<ttFont>
          <CharString index="0">
            216 86 rmoveto
            -40 -25 14 41 42 32 20 51 33 41 -3 -2 24 hvcurveto
            -70 vlineto
            -19 -24 -52 -23 -40 hhcurveto
            -16 -97 rmoveto
            46 54 28 18 33 hvcurveto
            10 -46 103 10 -11 88 rlineto
            203 vlineto
            136 -40 57 -143 -62 -91 -18 -14 -46 vhcurveto
            19 -95 rlineto
            12 37 92 18 45 hhcurveto
            71 15 -27 -77 hvcurveto
            2 -22 -45 3 -31 hhcurveto
            -109 -85 -30 -116 -108 63 -44 97 hvcurveto
            return
          </CharString>
          <CharString index="1">
            -11 90 108 84 119 93 hstem
            49 111 185 111 vstem
            257 483 rmoveto
            -132 -76 -83 -163 -134 50 -114 169 45 80 14 14 42 hvcurveto
            -21 87 rlineto
            -13 -40 -68 -12 -38 hhcurveto
            -69 -33 39 69 -6 hvcurveto
            292 hlineto
            4 74 rlineto
            148 -3 -76 74 -120 hhcurveto
            -93 vmoveto
            52 36 -31 -88 hvcurveto
            -185 hlineto
            88 4 33 31 60 hhcurveto
            return
          </CharString>
          <CharString index="2">
            173 78 120 173 204 vvcurveto
            205 -120 174 -175 78 vhcurveto
            296 return
          </CharString>
          <CharString index="3">
            267 rmoveto
            0 70 9 7 52 28 -27 -55 -48 -38 -15 -48 -31 -54 15 13 -35 vhcurveto
            -23 -65 rlineto
            -15 40 61 -15 42 hhcurveto
            94 70 33 101 72 -39 32 -49 12 hvcurveto
            3 vlineto
            40 24 29 16 64 vvcurveto
            88 -68 26 -76 -34 -65 -19 -18 -35 vhcurveto
            24 -63 rlineto
            16 35 44 17 27 hhcurveto
            36 35 -7 -43 -41 -32 -30 -61 -10 hvcurveto
            -55 -7 rlineto
            return
          </CharString>
          <CharString index="4">
            rmoveto
            -294 hlineto
            -105 callsubr
            60 callgsubr
            297 59 callsubr
            -121 -174 -205 vvcurveto
            -204 121 -173 173 -78 vhcurveto
            -295 -44 1001 hlineto
            endchar
          </CharString>
          <CharString index="5">
            rmoveto
            -502 -43 hlineto
            -92 callsubr
            502 44 -294 vlineto
            -105 callsubr
            hlineto
            endchar
          </CharString>
          <CharString index="6">
            220 rmoveto
            88 -43 68 -104 -27 -27 -8 -9 -17 vhcurveto
            5 101 rlineto
            202 67 -268 hlineto
            -7 -236 49 -15 rlineto
            19 25 24 11 32 hhcurveto
            54 25 -35 -51 -58 -37 -31 -52 -42 -45 16 13 -36 hvcurveto
            -23 -65 rlineto
            -16 36 55 -17 56 hhcurveto
            97 68 61 97 hvcurveto
            return
          </CharString>
          <CharString index="7">
            379 rmoveto
            -98 69 -42 69 43 20 12 4 11 vhcurveto
            -44 -81 -63 -62 -38 -40 84 -15 rcurveline
            18 22 142 122 165 vvcurveto
            110 -59 58 -97 -96 -59 -54 -101 vhcurveto
            70 1 rmoveto
            71 45 18 38 36 46 -15 -70 -56 -44 -22 -37 -38 -46 15 59 vhcurveto
            return
          </CharString>
          <CharString index="8">
            rmoveto
            95 43 42 79 5 hvcurveto
            -74 hlineto
            -42 -7 -24 -12 -38 hhcurveto
            -38 -24 12 42 -7 hvcurveto
            -74 hlineto
            -79 5 43 -42 95 hhcurveto
            return
          </CharString>
          <CharString index="9">
            -13 97 302 97 hstem
            42 111 194 111 vstem
            250 483 rmoveto
            -141 -67 -79 -168 -167 65 -82 143 142 66 82 167 168 -66 79 -142 hvcurveto
            -97 -247 rmoveto
            102 20 48 77 77 20 -48 -102 -101 -20 -51 -77 -77 -20 51 101 vhcurveto
            return
          </CharString>
          <CharString index="10">
            rmoveto
            -232 61 -114 164 166 59 104 242 222 -57 107 -168 -159 -66 -107 -222 vhcurveto
            344 -2 rmoveto
            -197 -28 -53 -91 -99 -20 83 167 181 34 56 85 92 27 -48 -189 vhcurveto
            endchar
          </CharString>
          <CharString index="11">
            rmoveto
            55 7 rlineto
            61 10 32 30 41 vvcurveto
            43 -35 7 -36 -27 -44 -17 -16 -35 vhcurveto
            -24 63 rlineto
            18 35 65 19 34 hhcurveto
            76 68 -26 -88 -64 -29 -16 -40 -24 hvcurveto
            -3 vlineto
            49 -12 39 -32 -72 vvcurveto
            -101 -70 -33 -94 -42 -61 15 15 -40 vhcurveto
            23 65 rlineto
            -13 35 54 -15 31 hhcurveto
            48 38 15 48 55 -28 27 -52 -7 -70 -9 0 hvcurveto
            return
          </CharString>
          <CharString index="12">
            404 rmoveto
            92 -68 40 -79 -43 -62 -32 -27 -37 vhcurveto
            36 -55 rlineto
            26 37 35 22 34 hhcurveto
            45 28 -24 -42 -111 -154 -23 -53 -134 hvcurveto
            -63 298 70 -216 vlineto
            30 77 169 41 143 vvcurveto
            return
          </CharString>
          <CharString index="13">
            535 rmoveto
            -97 -54 -64 -171 -170 54 -68 97 98 54 68 170 171 -54 64 -98 hvcurveto
            -407 vmoveto
            -50 -23 33 139 139 23 30 50 48 28 -30 -139 -139 -27 -33 -49 hvcurveto
            return
          </CharString>
          <CharString index="14">
            hstem
            57 102 183 102 -97 callgsubr
            return
          </CharString>
          <CharString index="15">
            -90 callsubr
            -44 return
          </CharString>
          <CharString index="16">
            rmoveto
            294 hlineto
            -173 15 callgsubr
            -204 vvcurveto
            -205 60 callsubr
            175 -78 vhcurveto
            -296 -44 -67 callgsubr
            endchar
          </CharString>
          <CharString index="17">
            253 203 -203 -254 -253 -204 -202 -252 hvcurveto
            return
          </CharString>
          <CharString index="18">
            344 hmoveto
            100 475 -103 -347 hlineto
            -8 -9 -56 -31 -53 hhcurveto
            -51 -13 39 63 hvcurveto
            284 -103 -290 vlineto
            -135 46 -61 109 50 35 19 21 46 vhcurveto
            return
          </CharString>
          <CharString index="19">
            rmoveto
            -97 -68 -61 -97 -56 -55 17 16 -36 vhcurveto
            23 65 rlineto
            -13 36 45 -16 42 hhcurveto
            52 37 31 58 51 -25 35 -54 -32 -24 -11 -19 -25 hvcurveto
            -49 15 7 236 rlineto
            268 -67 -202 hlineto
            -5 -101 rlineto
            9 17 27 8 27 hhcurveto
            104 43 -68 -88 hvcurveto
            return
          </CharString>
          <CharString index="20">
            hstem
            54 102 189 101 vstem
            54 184 rmoveto
            -128 54 -66 143 140 55 58 136 vhcurveto
            333 -101 -322 vlineto
            -86 -29 -26 -65 -69 -26 30 82 vhcurveto
            322 -102 vlineto
            return
          </CharString>
          <CharString index="21">
            rmoveto
            101 59 54 96 97 59 -58 -110 -165 -142 -122 -18 -22 vhcurveto
            -84 15 38 40 63 62 44 81 rlinecurve
            -4 -11 -20 -12 -43 hhcurveto
            -69 -69 42 98 hvcurveto
            70 1 rmoveto
            -59 46 -15 38 37 44 22 56 70 -46 15 -36 -38 -45 -18 -71 vhcurveto
            return
          </CharString>
          <CharString index="22">
            423 rmoveto
            62 -2 11 41 rlineto
            144 hlineto
            -17 -73 -127 -156 -162 vvcurveto
            74 hlineto
            5 156 136 175 15 60 rrcurveto
            67 -284 vlineto
            return
          </CharString>
          <CharString index="23">
            rmoveto
            -253 78 -91 166 66 84 15 19 53 vhcurveto
            322 -193 -92 93 -155 vlineto
            -8 -33 -30 -5 -40 hhcurveto
            -89 -49 69 179 159 36 78 108 51 74 -10 -14 41 hvcurveto
            18 89 rlineto
            17 -50 -81 11 -53 hhcurveto
            -173 -77 -107 -223 hvcurveto
            endchar
          </CharString>
          <CharString index="24">
            rmoveto
            -278 -223 -221 -278 -279 222 -221 279 hvcurveto
            return
          </CharString>
          <CharString index="25">
            rmoveto
            -200 66 -75 147 60 75 10 16 45 vhcurveto
            261 -195 -90 91 -98 vlineto
            -5 -26 -17 -1 -33 hhcurveto
            -71 -35 45 137 119 27 47 84 49 62 -12 -8 34 hvcurveto
            16 90 rlineto
            13 -44 -67 9 -50 hhcurveto
            -146 -72 -79 -179 hvcurveto
            return
          </CharString>
          <CharString index="26">
            -206 93 hstem
            29 112 220 109 vstem
            29 -10 callgsubr
            175 -519 -6 -15 rlineto
            -36 -14 -32 -18 -84 hhcurveto
            -93 vlineto
            178 3 38 26 54 189 132 463 rcurveline
            -109 hlineto
            -97 -386 rlineto
            -8 hlineto
            -115 386 rlineto
            return
          </CharString>
          <CharString index="27">
            rmoveto
            98 54 -64 -171 -170 -54 -68 -98 -97 -54 68 170 171 54 64 97 hvcurveto
            -407 vmoveto
            49 27 33 139 139 -28 30 -48 -50 -23 -30 -139 -139 23 -33 50 hvcurveto
            return
          </CharString>
          <CharString index="28">
            rmoveto
            -12 -42 -75 -13 -47 hhcurveto
            -108 -28 73 179 190 55 48 81 41 54 -7 -14 52 hvcurveto
            22 85 rlineto
            14 -41 -80 15 -48 hhcurveto
            -160 -82 -107 -224 -271 93 -73 148 return
          </CharString>
          <CharString index="29">
            104 hlineto
            22 93 rlineto
            179 hlineto
            21 -93 rlineto
            107 hlineto
            -122 517 rlineto
            -191 hlineto
            166 -43 callsubr
            return
          </CharString>
          <CharString index="30">
            -20 hstem
            67 hmoveto
            139 hlineto
            43 183 rlineto
            3 hlineto
            42 -183 rlineto
            141 hlineto
            51 517 rlineto
            -92 hlineto
            -39 -424 rlineto
            -12 hlineto
            -50 205 rlineto
            -83 hlineto
            -50 -205 rlineto
            -12 hlineto
            -36 424 rlineto
            -102 hlineto
            return
          </CharString>
          <CharString index="31">
            rmoveto
            35 -66 40 -85 33 -88 rrcurveto
            112 hlineto
            -35 98 -43 92 -38 72 rrcurveto
            74 35 38 59 89 vvcurveto
            158 -84 52 -137 vhcurveto
            -206 -655 104 236 47 hlineto
            20 22 2 1 18 hvcurveto
            -25 324 rmoveto
            93 42 -33 -85 -76 -47 -37 -87 hvcurveto
            -83 231 hlineto
            endchar
          </CharString>
          <CharString index="32">
            rmoveto
            -94 hlineto
            -108 -157 rlineto
            102 hlineto
            53 86 53 -86 rlineto
            102 hlineto
            endchar
          </CharString>
          <CharString index="33">
            353 93 -120 469 120 93 -353 -93 129 -469 -129 hlineto
            endchar
          </CharString>
          <CharString index="34">
            0 92 289 92 97 89 hstemhm
            95 222 -103 103 -100 75 hintmask 11100100
            103 381 rmoveto
            hintmask 11101000
            111 -289 hlineto
            hintmask 11110000
            -42 callgsubr
            hlineto
            return
          </CharString>
          <CharString index="35">
            752 rmoveto
            98 hlineto
            68 70 68 -70 rlineto
            98 hlineto
            -126 130 rlineto
            -80 hlineto
            return
          </CharString>
          <CharString index="36">
            vstem
            81 hmoveto
            338 93 -234 126 209 90 -209 115 231 93 -335 hlineto
            return
          </CharString>
          <CharString index="37">
            -200 65 874 65 hstem
            return
          </CharString>
          <CharString index="38">
            rmoveto
            -30 24 -27 32 32 24 27 30 30 -24 27 -32 -32 -24 -27 callgsubr
            return
          </CharString>
          <CharString index="39">
            50 -199 rmoveto
            401 999 -401 hlineto
            return
          </CharString>
          <CharString index="40">
            -107 -29 93 195 92 181 92 hstemhm
            283 103 -90 103 206 103 -88 103 hintmask 11101100
            502 624 rmoveto
            hintmask 11110010
            120 86 -69 -113 -44 -14 -59 -62 -32 hvcurveto
            67 -29 24 -54 -66 vvcurveto
            -131 -83 -57 -138 1 vhcurveto
            hintmask 11110100
            -138 1 -81 55 131 vvcurveto
            65 26 55 62 27 vhcurveto
            -62 34 -13 59 44 vvcurveto
            113 88 69 118 vhcurveto
            -116 -466 rmoveto
            -78 62 -16 54 vhcurveto
            hintmask 11110010
            54 64 16 78 66 -42 35 -76 -73 -43 -35 -66 hvcurveto
            13 284 rmoveto
            -58 28 -33 75 70 33 33 58 71 -54 19 -49 vhcurveto
            hintmask 11101100
            -49 -54 -19 -71 hvcurveto
            return
          </CharString>
          <CharString index="41">
            rmoveto
            70 -49 36 -63 -16 -26 -4 -4 -16 vhcurveto
            9 -61 rlineto
            0 31 3 11 32 13 -11 -29 -29 -13 -13 -32 -11 -35 3 0 vhcurveto
            -8 -63 rlineto
            -3 17 29 -4 15 hhcurveto
            68 44 39 70 hvcurveto
            return
          </CharString>
          <CharString index="42">
            rmoveto
            135 -105 67 -92 -66 -35 -21 -8 -10 vhcurveto
            53 80 53 36 129 63 -41 94 rcurveline
            -220 -108 -106 -123 -198 vvcurveto
            -152 97 -81 124 129 90 76 140 vhcurveto
            -101 1 rmoveto
            -96 -65 -30 -52 -52 -67 22 107 69 67 37 52 52 65 -22 -87 vhcurveto
            return
          </CharString>
          <CharString index="43">
            42 22 -43 65 hhcurveto
            33 36 24 29 27 hvcurveto
            return
          </CharString>
          <CharString index="44">
            rmoveto
            92 hlineto
            119 83 -50 68 -115 -87 -115 88 -50 -65 rlineto
            endchar
          </CharString>
          <CharString index="45">
            rmoveto
            45 -55 rlineto
            17 18 23 14 17 -64 callsubr
            -41 56 rlineto
            -20 callgsubr
            -39 -29 42 -60 hhcurveto
            -39 -37 -28 -29 -30 hvcurveto
            return
          </CharString>
          <CharString index="46">
            32 hmoveto
            -78 callsubr
            return
          </CharString>
          <CharString index="47">
            0 92 291 92 hstem
            81 383 rmoveto
            206 hlineto
            -218 -311 8 -72 rlineto
            350 92 -214 hlineto
            213 300 -6 83 rlineto
            -339 hlineto
            return
          </CharString>
          <CharString index="48">
            94 655 -94 -410 -4 hlineto
            -246 410 rlineto
            -94 -655 94 493 3 hlineto
            247 -406 rlineto
            endchar
          </CharString>
          <CharString index="49">
            rmoveto
            67 125 315 vlineto
            -112 -51 -25 61 147 67 rlineto
            57 -392 106 -67 hlineto
            return
          </CharString>
          <CharString index="50">
            rmoveto
            128 -95 56 -109 -61 -84 -45 -39 -53 vhcurveto
            51 -75 rlineto
            36 52 47 32 48 hhcurveto
            63 36 -34 -59 -154 -211 -32 -75 -184 hvcurveto
            -89 415 97 -299 vlineto
            40 109 235 54 199 vvcurveto
            return
          </CharString>
          <CharString index="51">
            rmoveto
            -134 -75 -90 -235 -236 75 -93 134 135 75 93 236 235 -75 90 -135 hvcurveto
            -563 vmoveto
            -69 -32 46 192 192 32 41 69 68 36 -41 -192 -192 -35 -46 -69 hvcurveto
            return
          </CharString>
          <CharString index="52">
            58 26 26 4 3 19 vhcurveto
            -10 75 rlineto
            -2 -11 -27 -2 -12 hhcurveto
            -36 -13 return
          </CharString>
          <CharString index="53">
            86 62 127 60 119 60 hstemhm
            return
          </CharString>
          <CharString index="54">
            -39 callsubr
            43 -117 -9 callsubr
            return
          </CharString>
          <CharString index="55">
            10 callgsubr
            -134 -96 -86 -134 -76 -77 25 21 -51 vhcurveto
            32 89 rlineto
            -18 51 61 -22 59 hhcurveto
            72 51 44 81 70 -33 49 -76 -45 -32 -15 -27 -35 hvcurveto
            -68 20 10 328 rlineto
            371 -92 -280 hlineto
            -5 -142 rlineto
            12 21 39 13 36 hhcurveto
            145 60 -95 -121 hvcurveto
            return
          </CharString>
          <CharString index="56">
            16 callsubr
            -140 -90 -76 -129 -124 -97 81 152 198 106 123 220 108 vhcurveto
            41 -94 -129 -63 -53 -36 -53 -80 rlinecurve
            8 10 35 21 66 hhcurveto
            92 105 -67 -135 hvcurveto
            -101 1 rmoveto
            87 -65 22 -52 -52 -67 -37 -69 -107 67 -22 52 52 65 30 96 vhcurveto
            return
          </CharString>
          <CharString index="57">
            -99 67 -36 -55 callsubr
            29 26 return
          </CharString>
          <CharString index="58">
            -11 100 386 69 callgsubr
            76 callgsubr
            return
          </CharString>
          <CharString index="59">
            85 61 153 61 98 61 hstem
            return
          </CharString>
          <CharString index="60">
            85 63 163 60 76 61 hstem
            return
          </CharString>
          <CharString index="61">
            rmoveto
            -30 hlineto
            0 2 27 31 25 vhcurveto
            -33 37 rlineto
            -53 -34 -18 -36 -53 vvcurveto
            -69 101 vlineto
            return
          </CharString>
          <CharString index="62">
            vstem
            52 264 rmoveto
            -168 46 -106 153 return
          </CharString>
          <CharString index="63">
            rmoveto
            23 46 30 13 45 hhcurveto
            37 23 -43 -54 hvcurveto
            -289 103 287 vlineto
            119 -36 77 -121 -43 -37 -15 -21 -47 vhcurveto
            220 -103 -667 103 vlineto
            return
          </CharString>
          <CharString index="64">
            -334 rmoveto
            -141 hlineto
            55 24 callgsubr
            return
          </CharString>
          <CharString index="65">
            0 86 326 86 hstem
            66 101 171 96 vstem
            5 218 rmoveto
            63 -218 134 hlineto
            167 71 56 203 206 -62 52 -174 hvcurveto
            -136 -205 -63 hlineto
            328 -55 rmoveto
            -141 -24 -23 -116 vhcurveto
            -21 125 91 94 -91 112 22 81 callsubr
          </CharString>
          <CharString index="66">
            rmoveto
            -33 26 -29 35 35 26 29 33 33 -26 29 -35 -35 -26 -29 -33 vhcurveto
            endchar
          </CharString>
          <CharString index="67">
            0 90 486 91 hstem
            208 103 vstem
            99 575 rmoveto
            109 1 rlineto
            -486 -113 -90 328 90 -112 577 vlineto
            -213 -1 rlineto
            return
          </CharString>
          <CharString index="68">
            46 -69 176 103 -51 83 rlineto
            return
          </CharString>
          <CharString index="69">
            38 callgsubr
            -199 -235 -54 -40 -109 vhcurveto
            299 -97 -415 89 hlineto
            75 184 211 32 154 vvcurveto
            59 -36 34 -63 -48 -47 -32 -36 -52 vhcurveto
            -51 75 rlineto
            39 53 84 45 61 hhcurveto
            109 95 -56 -128 hvcurveto
            return
          </CharString>
          <CharString index="70">
            0 94 467 94 hstem
            64 561 rmoveto
            248 hlineto
            -251 -490 rlineto
            -71 391 94 -260 vlineto
            245 479 rlineto
            82 -373 vlineto
            return
          </CharString>
          <CharString index="71">
            -70 callsubr
            -68 callsubr
            return
          </CharString>
          <CharString index="72">
            -159 -66 -107 -222 hvcurveto
            106 -2 rmoveto
            181 34 56 85 38 27 -8 -23 18 vhcurveto
            -194 -340 rlineto
            -6 36 -2 45 53 vvcurveto
            238 hmoveto
            -197 -28 -53 -91 -36 -25 10 22 -18 vhcurveto
            192 336 rlineto
            4 -32 2 -38 -48 vvcurveto
            endchar
          </CharString>
          <CharString index="73">
            rmoveto
            184 -87 40 73 -181 101 rlineto
            endchar
          </CharString>
          <CharString index="74">
            901 rmoveto
            -36 -82 207 -84 32 78 rlineto
            return
          </CharString>
          <CharString index="75">
            85 61 308 60 hstem
            return
          </CharString>
          <CharString index="76">
            93 60 356 -20 hstem
            return
          </CharString>
          <CharString index="77">
            rmoveto
            0 -83 -167 -73 -110 vhcurveto
            -54 -8 rlineto
            285 -101 -655 101 275 vlineto
            62 6 rlineto
            54 -86 101 -195 0 vvcurveto
            113 hlineto
            0 -122 235 -65 102 vhcurveto
            79 118 101 200 0 vvcurveto
            endchar
          </CharString>
          <CharString index="78">
            0 93 196 90 182 94 hstemhm
            60 102 vstemhm
            return
          </CharString>
          <CharString index="79">
            -9 98 566 -20 hstemhm
            26 103 242 102 vstemhm
            return
          </CharString>
          <CharString index="80">
            vstem
            64 hmoveto
            104 213 hlineto
            75 4 rlineto
            50 -73 71 -144 0 vvcurveto
            114 hlineto
            0 -89 170 -67 95 vhcurveto
            68 93 85 159 0 vvcurveto
            -114 hlineto
            0 -63 -123 -60 -89 vhcurveto
            -70 -3 rlineto
            215 -104 vlineto
            return
          </CharString>
          <CharString index="81">
            rmoveto
            134 34 36 58 18 15 -3 -9 13 vhcurveto
            -132 -249 rlineto
            -4 24 -2 30 37 vvcurveto
            183 hmoveto
            -149 -31 -30 -60 -16 -14 2 7 -12 vhcurveto
            128 244 rlineto
            3 -21 2 -24 -29 vvcurveto
            endchar
          </CharString>
          <CharString index="82">
            rmoveto
            -54 callgsubr
            return
          </CharString>
          <CharString index="83">
            rmoveto
            155 -137 58 66 -122 116 rlineto
            14 vlineto
            117 123 -57 59 -151 -137 rlineto
            return
          </CharString>
          <CharString index="84">
            vstem
            64 hmoveto
            138 hlineto
            167 71 56 203 206 -62 52 -174 hvcurveto
            -140 hlineto
            269 -260 rmoveto
            -141 -24 -23 -116 vhcurveto
            -25 331 26 hlineto
            121 18 -17 -150 hvcurveto
            return
          </CharString>
          <CharString index="85">
            -190 -21 596 90 76 127 hstem
            249 103 vstem
            352 -10 callgsubr
            -220 -90 117 -395 hlineto
            -81 -38 -6 -124 -18 vhcurveto
            12 -96 rlineto
            146 20 107 11 170 vvcurveto
            return
          </CharString>
          <CharString index="86">
            0 93 405 -20 hstem
            90 102 vstem
            85 hmoveto
            348 92 -244 return
          </CharString>
          <CharString index="87">
            rmoveto
            30 hlineto
            0 -2 -27 -31 -25 vhcurveto
            33 -37 rlineto
            53 34 18 36 53 vvcurveto
            69 -101 vlineto
            endchar
          </CharString>
          <CharString index="88">
            rmoveto
            -43 -87 184 -87 40 73 rlineto
            endchar
          </CharString>
          <CharString index="89">
            rmoveto
            169 -561 104 561 169 94 -442 hlineto
            endchar
          </CharString>
          <CharString index="90">
            -9 48 616 -20 hstem
            54 55 282 55 vstem
            return
          </CharString>
          <CharString index="91">
            -11 97 117 84 99 97 return
          </CharString>
          <CharString index="92">
            -10 52 310 52 198 49 hstem
            54 58 284 58 vstem
            return
          </CharString>
          <CharString index="93">
            60 123 70 vstem
            return
          </CharString>
          <CharString index="94">
            502 44 return
          </CharString>
          <CharString index="95">
            rmoveto
            -80 vlineto
            230 -166 rlineto
            114 vlineto
            -146 92 146 90 rlineto
            114 vlineto
            return
          </CharString>
          <CharString index="96">
            rmoveto
            63 22 18 37 35 hvcurveto
            -49 41 28 -6 47 hhcurveto
            45 65 25 0 hvcurveto
            -21 67 rlineto
            0 -61 -20 -28 vhcurveto
            -57 1 -14 55 -1 83 rrcurveto
            183 hlineto
            3 68 rlineto
            return
          </CharString>
          <CharString index="97">
            -107 -19 92 543 -20 hstem
            476 94 vstem
            717 -19 rmoveto
            92 -147 543 -80 vlineto
            -205 -92 36 -84 155 70 1 -437 rlineto
            -175 -92 hlineto
            return
          </CharString>
          <CharString index="98">
            rmoveto
            -39 callsubr
            return
          </CharString>
          <CharString index="99">
            -67 -241 rlineto
            -18 hlineto
            -52 427 rlineto
            -52 hlineto
            55 -475 rlineto
            105 hlineto
            52 207 rlineto
            4 hlineto
            51 -207 rlineto
            106 hlineto
            57 475 rlineto
            endchar
          </CharString>
          <CharString index="100">
            -502 hlineto
            return
          </CharString>
          <CharString index="101">
            21 -21 386 97 return
          </CharString>
          <CharString index="102">
            vstem
            94 425 rmoveto
            194 -233 hlineto
            -66 -40 -22 -153 -15 vhcurveto
            11 -99 rlineto
            156 13 133 25 164 vvcurveto
            325 -301 vlineto
            return
          </CharString>
          <CharString index="103">
            vstem
            56 424 rmoveto
            142 -424 104 424 142 93 -388 hlineto
            return
          </CharString>
          <CharString index="104">
            0 93 469 93 hstemhm
            201 103 vstemhm
            return
          </CharString>
          <CharString index="105">
            82 -55 48 -68 -68 -55 -48 -82 vhcurveto
            74 hmoveto
            38 20 17 29 29 20 -17 -38 -38 -20 -18 -29 -29 -20 18 38 vhcurveto
            return
          </CharString>
          <CharString index="106">
            91 50 rlineto
            48 vlineto
            -91 50 rlineto
            return
          </CharString>
          <CharString index="107">
            -9 96 162 89 232 95 hstemhm
            22 104 243 95 vstemhm
            return
          </CharString>
          <CharString index="108">
            rmoveto
            -250 vlineto
            227 123 rlineto
            return
          </CharString>
          <CharString index="109">
            rmoveto
            250 vlineto
            -227 -123 rlineto
            return
          </CharString>
          <CharString index="110">
            -135 25 -58 134 41 return
          </CharString>
          <CharString index="111">
            166 59 104 242 103 -13 78 -30 55 hvcurveto
            34 59 -61 34 -21 -37 rlineto
            25 -34 -44 12 -56 hhcurveto
            return
          </CharString>
          <CharString index="112">
            hvcurveto
            -11 8 16 -5 21 hhcurveto
            43 24 33 0 hvcurveto
            -10 20 rlineto
            0 -19 -13 -25 -12 -7 9 17 1 vhcurveto
            return
          </CharString>
          <CharString index="113">
            239 120 hstem
            191 116 vstem
            307 359 rmoveto
            -116 -120 116 hlineto
            endchar
          </CharString>
          <CharString index="114">
            105 655 -105 -282 -227 282 -105 hlineto
            endchar
          </CharString>
          <CharString index="115">
            -31 callsubr
            239 60 vstem
            return
          </CharString>
          <CharString index="116">
            rmoveto
            -102 -207 hlineto
            12 -28 -41 11 -38 hhcurveto
            -112 -93 -73 -182 -181 70 -58 117 return
          </CharString>
          <CharString index="117">
            rmoveto
            58 -66 155 137 rlineto
            104 vlineto
            -151 137 -57 -59 117 -123 rlineto
            -14 vlineto
            return
          </CharString>
          <CharString index="118">
            95 133 rmoveto
            -35 29 -30 34 34 27 29 36 36 -28 26 -33 -34 -29 -27 -35 vhcurveto
            endchar
          </CharString>
          <CharString index="119">
            124 -20 hstem
            140 103 vstem
            return
          </CharString>
          <CharString index="120">
            -91 -50 rlineto
            -48 vlineto
            91 -50 rlineto
            return
          </CharString>
          <CharString index="121">
            hstem
            56 48 callsubr
            return
          </CharString>
          <CharString index="122">
            -107 -36 19 233 92 224 91 hstem
            290 104 228 99 vstem
            290 408 rmoveto
            return
          </CharString>
          <CharString index="123">
            -107 -30 91 235 92 150 94 hstem
            277 103 236 101 vstem
            717 186 rmoveto
            return
          </CharString>
          <CharString index="124">
            50 hlineto
            149 204 rmoveto
            39 10 -31 -92 hvcurveto
            -107 hlineto
            100 2 21 23 35 hhcurveto
            endchar
          </CharString>
          <CharString index="125">
            rmoveto
            -112 14 -84 33 -57 vhcurveto
            -34 -60 61 -33 21 37 rlineto
            -25 33 43 -12 54 hhcurveto
            return
          </CharString>
          <CharString index="126">
            -6 callsubr
            14 callsubr
            return
          </CharString>
          <CharString index="127">
            -9 86 498 90 hstem
            37 104 206 104 vstem
            return
          </CharString>
          <CharString index="128">
            rmoveto
            -123 227 rlineto
            250 hlineto
            return
          </CharString>
          <CharString index="129">
            rmoveto
            123 -227 rlineto
            -250 hlineto
            return
          </CharString>
          <CharString index="130">
            rmoveto
            227 123 rlineto
            -250 vlineto
            return
          </CharString>
          <CharString index="131">
            -8 89 336 88 return
          </CharString>
          <CharString index="132">
            21 -21 236 96 231 92 hstemhm
            37 103 -103 104 217 104 -104 106 hintmask 11110100
            return
          </CharString>
          <CharString index="133">
            87 742 rmoveto
            98 hlineto
            68 80 68 -80 rlineto
            98 hlineto
            -126 140 rlineto
            -80 hlineto
            return
          </CharString>
          <CharString index="134">
            rmoveto
            -40 24 -28 42 39 25 25 43 38 -21 27 -43 -41 -25 -27 -38 vhcurveto
            endchar
          </CharString>
          <CharString index="135">
            50 34 43 -7 -7 31 vhcurveto
            16 91 rlineto
            10 -42 -50 7 -38 hhcurveto
            -118 -41 return
          </CharString>
          <CharString index="136">
            -82 vvcurveto
            -37 -15 -16 -29 vhcurveto
            -102 -52 107 hlineto
            51 47 21 77 hvcurveto
            78 -10 return
          </CharString>
          <CharString index="137">
            rmoveto
            -73 -28 -26 -67 vhcurveto
            -69 178 69 hlineto
            68 27 -22 -57 hvcurveto
            endchar
          </CharString>
          <CharString index="138">
            vlineto
            3 callsubr
            return
          </CharString>
          <CharString index="139">
            21 -21 475 -20 hstem
            return
          </CharString>
          <CharString index="140">
            21 -21 655 -20 hstemhm
            18 103 -79 103 216 104 -88 104 hintmask 11100100
            return
          </CharString>
          <CharString index="141">
            hlineto
            -75 -27 -23 -88 -30 vhcurveto
            14 -50 rlineto
            124 40 30 34 104 vvcurveto
            return
          </CharString>
          <CharString index="142">
            vstem
            57 -192 rmoveto
            103 202 hlineto
            -11 28 34 -10 27 hhcurveto
            140 return
          </CharString>
          <CharString index="143">
            -9 -16 -30 -39 27 -25 rcurveline
            53 52 15 return
          </CharString>
          <CharString index="144">
            25 104 242 104 return
          </CharString>
          <CharString index="145">
            hlineto
            -3 -42 -16 -33 -30 -44 27 -24 rcurveline
            53 57 24 59 57 vvcurveto
            return
          </CharString>
          <CharString index="146">
            rmoveto
            -82 293 82 vlineto
            endchar
          </CharString>
          <CharString index="147">
            hlineto
            -37 -16 9 29 hvcurveto
            102 -52 -107 vlineto
            -51 21 -37 77 vhcurveto
            return
          </CharString>
          <CharString index="148">
            85 hlineto
            125 61 65 128 111 -57 60 -126 hvcurveto
            return
          </CharString>
          <CharString index="149">
            hlineto
            -105 -60 -66 -132 hvcurveto
            -95 -50 95 -425 53 425 return
          </CharString>
          <CharString index="150">
            21 -21 279 93 283 -20 hstem
            32 102 233 102 vstem
            return
          </CharString>
          <CharString index="151">
            -10 52 311 52 174 55 hstem
            81 60 247 58 vstem
            return
          </CharString>
          <CharString index="152">
            68 -49 43 -71 -70 -49 -43 -68 vhcurveto
            return
          </CharString>
          <CharString index="153">
            37 callgsubr
            hstem
            return
          </CharString>
          <CharString index="154">
            97 117 84 100 96 return
          </CharString>
          <CharString index="155">
            83 callsubr
            vstem
            return
          </CharString>
          <CharString index="156">
            vvcurveto
            36 17 16 29 vhcurveto
            100 52 -107 hlineto
            -51 -46 -21 -77 return
          </CharString>
          <CharString index="157">
            -857 -11 52 564 50 hstem
            147 55 vstem
            202 return
          </CharString>
          <CharString index="158">
            vvcurveto
            77 -46 21 -51 vhcurveto
            -107 -52 100 hlineto
            29 17 -16 -36 return
          </CharString>
          <CharString index="159">
            70 -54 70 vstem
            return
          </CharString>
          <CharString index="160">
            21 -21 655 -20 hstemhm
            198 104 -103 102 hintmask 11010000
            return
          </CharString>
          <CharString index="161">
            147 -57 callgsubr
            return
          </CharString>
          <CharString index="162">
            -13 98 303 97 hstem
            59 111 156 98 vstem
            return
          </CharString>
          <CharString index="163">
            -33 callgsubr
            -1 return
          </CharString>
          <CharString index="164">
            124 vlineto
            -103 -10 rlineto
            -114 return
          </CharString>
          <CharString index="165">
            -82 55 -48 68 68 55 48 82 return
          </CharString>
          <CharString index="166">
            hlineto
            -175 -78 return
          </CharString>
          <CharString index="167">
            120 -173 return
          </CharString>
          <CharString index="168">
            0 93 196 90 182 94 hstem
            60 102 vstem
            return
          </CharString>
          <CharString index="169">
            0 90 475 90 hstem
            38 102 225 101 vstem
            return
          </CharString>
          <CharString index="170">
            -9 86 498 90 hstemhm
            37 104 206 104 vstemhm
            return
          </CharString>
          <CharString index="171">
            hlineto
            -217 -139 -66 -84 -122 hvcurveto
            endchar
          </CharString>
          <CharString index="172">
            hlineto
            217 139 66 84 122 hvcurveto
            endchar
          </CharString>
          <CharString index="173">
            hlineto
            213 128 -70 -74 109 hvcurveto
            endchar
          </CharString>
          <CharString index="174">
            vlineto
            217 -66 139 -84 122 vhcurveto
            endchar
          </CharString>
          <CharString index="175">
            25 callgsubr
            hstemhm
            return
          </CharString>
          <CharString index="176">
            hlineto
            15 123 rlineto
            -80 hlineto
            -15 -123 rlineto
            return
          </CharString>
          <CharString index="177">
            21 -21 425 50 149 49 hstem
            96 53 return
          </CharString>
          <CharString index="178">
            -7 -21 295 85 113 29 134 31 return
          </CharString>
          <CharString index="179">
            -66 39 -30 -52 rlineto
            9 -25 -30 5 -34 hhcurveto
            return
          </CharString>
          <CharString index="180">
            rmoveto
            82 -22 80 201 -104 28 rlineto
            endchar
          </CharString>
          <CharString index="181">
            145 145 -145 hlineto
            return
          </CharString>
          <CharString index="182">
            -257 67 82 66 return
          </CharString>
          <CharString index="183">
            rmoveto
            84 122 66 139 217 vvcurveto
            return
          </CharString>
          <CharString index="184">
            rmoveto
            74 -109 70 -128 -213 vvcurveto
            return
          </CharString>
          <CharString index="185">
            0 92 313 93 hstem
            203 102 vstem
            return
          </CharString>
          <CharString index="186">
            17 15 11 hvcurveto
            -22 7 18 -9 20 hhcurveto
            return
          </CharString>
          <CharString index="187">
            -223 -21 566 34 387 -20 hstem
            return
          </CharString>
          <CharString index="188">
            hlineto
            121 18 -17 -150 hvcurveto
            endchar
          </CharString>
          <CharString index="189">
            1 rlineto
            -206 48 151 vlineto
            endchar
          </CharString>
          <CharString index="190">
            103 181 103 return
          </CharString>
        <CharString name=".notdef">
          endchar
        </CharString>
        <CharString name="A">
          25 callgsubr
          hstem
          0 vmoveto
          -92 callgsubr
        </CharString>
        <CharString name="AE">
          21 -21 126 85 hstem
          0 vmoveto
          108 hlineto
          29 125 rlineto
          116 -125 228 94 -124 195 94 90 -94 182 121 94 -324 hlineto
          99 -437 rmoveto
          -95 hlineto
          78 344 rlineto
          17 hlineto
          endchar
        </CharString>
        <CharString name="AEacute">
          21 -21 126 85 hstem
          481 hmoveto
          76 -132 208 102 98 -102 197 129 76 -282 vlineto
          -190 -655 rlineto
          94 hlineto
          35 126 rlineto
          114 -126 hlineto
          -83 -57 callgsubr
          -207 -689 rmoveto
          95 352 rlineto
          -352 vlineto
          endchar
        </CharString>
        <CharString name="Aacute">
          68 callsubr
          156 -57 callgsubr
          hintmask 11000000
          -361 -900 rmoveto
          -92 callgsubr
        </CharString>
        <CharString name="Abreve">
          68 callsubr
          250 754 -99 callsubr
          hintmask 11000000
          -250 -754 rmoveto
          -92 callgsubr
        </CharString>
        <CharString name="Acircumflex">
          25 callgsubr
          hstem
          26 callsubr
          -213 -882 rmoveto
          -92 callgsubr
        </CharString>
        <CharString name="Adieresis">
          68 callsubr
          97 812 -105 callgsubr
          hintmask 11000000
          -290 -812 rmoveto
          -92 callgsubr
        </CharString>
        <CharString name="Agrave">
          68 callsubr
          156 -33 callsubr
          hintmask 11000000
          -359 -813 rmoveto
          -92 callgsubr
        </CharString>
        <CharString name="Amacron">
          68 callsubr
          84 853 -15 callgsubr
          hintmask 11000000
          -417 -853 rmoveto
          -92 callgsubr
        </CharString>
        <CharString name="Aogonek">
          25 callgsubr
          hstem
          305 -135 -25 callsubr
          32 92 69 hvcurveto
          -37 47 rlineto
          -130 -76 -30 -53 -53 vvcurveto
          -305 135 rmoveto
          -92 callgsubr
        </CharString>
        <CharString name="Aring">
          25 callgsubr
          490 65 90 66 hstem
          130 69 100 70 vstem
          369 818 -69 callgsubr
          -199 -818 rmoveto
          -92 callgsubr
        </CharString>
        <CharString name="Aringacute">
          0 654 -633 -21 125 93 490 65 -18 -21 129 66 hstemhm
          60 69 100 70 hintmask 10001111
          314 734 rmoveto
          73 -22 67 191 -89 25 rlineto
          -66 -110 rmoveto
          45 callsubr
          hintmask 10010111
          -68 49 -42 70 71 49 42 68 vhcurveto
          -170 hmoveto
          31 17 14 33 33 17 -14 -31 -30 -17 -15 -33 -33 -17 15 30 vhcurveto
          -129 -818 rmoveto
          108 hlineto
          hintmask 01101111
          29 125 rlineto
          222 hlineto
          hintmask 10001111
          31 -125 rlineto
          110 hlineto
          -154 655 rlineto
          -187 hlineto
          hintmask 01101111
          178 -437 rmoveto
          -179 hlineto
          83 344 rlineto
          22 hlineto
          endchar
        </CharString>
        <CharString name="Atilde">
          25 callgsubr
          543 83 callgsubr
          hintmask 11100000
          373 870 -8 callgsubr
          hintmask 11010000
          -39 -29 42 -60 hhcurveto
          -39 -37 -28 -29 -30 hvcurveto
          45 -55 rlineto
          17 18 23 14 17 hhcurveto
          hintmask 11100000
          -64 callsubr
          -414 -814 rmoveto
          -92 callgsubr
        </CharString>
        <CharString name="B">
          0 85 204 89 196 81 hstem
          45 103 206 105 -75 98 vstem
          45 hmoveto
          192 hlineto
          164 79 61 125 hvcurveto
          -2 87 -44 56 -74 11 rrcurveto
          65 13 39 60 72 vvcurveto
          114 -74 56 -144 vhcurveto
          -201 hlineto
          329 -466 rmoveto
          -46 -26 -53 -96 vhcurveto
          -103 199 98 hlineto
          84 43 -22 -78 hvcurveto
          -12 288 rmoveto
          -63 -36 -35 -81 vhcurveto
          -96 186 104 hlineto
          70 39 -25 -63 hvcurveto
          endchar
        </CharString>
        <CharString name="C">
          21 callgsubr
          446 107 -79 callsubr
          50 89 17 13 44 hvcurveto
          endchar
        </CharString>
        <CharString name="C.calt">
          -10 93 405 177 -93 93 hstemhm
          40 106 214 104 hintmask 10111000
          40 334 rmoveto
          -252 82 -94 159 2 vhcurveto
          50 89 15 15 44 hvcurveto
          -18 87 -42 -13 -68 -12 -54 1 rlinecurve
          -88 -46 36 215 -2 hvcurveto
          186 52 52 84 vhcurveto
          0 38 0 40 -10 vhcurveto
          hintmask 11011000
          -74 104 145 vlineto
          0 -96 32 -86 -156 -86 -102 -229 vhcurveto
          endchar
        </CharString>
        <CharString name="C.calt.sc">
          -7 95 326 91 hstem
          65 101 vstem
          409 107 rmoveto
          -10 -35 -57 -9 -40 hhcurveto
          -50 -59 9 156 -2 hvcurveto
          127 4 37 34 72 hhcurveto
          37 55 -10 -6 24 hvcurveto
          24 85 rlineto
          9 -36 -66 13 -40 hhcurveto
          -133 -79 -84 -167 -159 44 -102 168 41 78 12 10 37 hvcurveto
          endchar
        </CharString>
        <CharString name="Cacute">
          -9 97 487 90 hstemhm
          40 104 217 103 vstemhm
          156 -57 callgsubr
          hintmask 11110000
          85 -793 -79 callsubr
          50 89 17 13 44 hvcurveto
          endchar
        </CharString>
        <CharString name="Ccaron">
          21 callgsubr
          434 882 -77 callgsubr
          138 -645 -79 callsubr
          50 89 17 13 44 hvcurveto
          endchar
        </CharString>
        <CharString name="Ccedilla">
          75 callsubr
          33 97 487 90 hstemhm
          40 104 155 74 -12 103 hintmask 11111100
          373 -148 -66 callsubr
          73 255 -79 callsubr
          hvcurveto
          hintmask 11111010
          50 89 17 13 44 hvcurveto
          endchar
        </CharString>
        <CharString name="Ccircumflex">
          21 callgsubr
          102 -72 callsubr
          218 -775 -79 callsubr
          50 89 17 13 44 hvcurveto
          endchar
        </CharString>
        <CharString name="Cdotaccent">
          -9 97 487 90 hstemhm
          40 104 217 103 vstemhm
          224 812 -69 callsubr
          hintmask 11110000
          222 -705 -79 callsubr
          50 89 17 13 44 hvcurveto
          endchar
        </CharString>
        <CharString name="D">
          62 callsubr
          38 hmoveto
          -21 callgsubr
        </CharString>
        <CharString name="Dcaron">
          62 callsubr
          394 882 -77 callgsubr
          -230 -752 rmoveto
          -21 callgsubr
        </CharString>
        <CharString name="Dcroat">
          40 callgsubr
          44 hmoveto
          153 hlineto
          177 97 55 272 hvcurveto
          hintmask 01110000
          272 -84 56 -188 vhcurveto
          -155 -277 -44 -84 44 hlineto
          hintmask 10110000
          135 271 rmoveto
          86 105 18 -257 -256 -108 20 -85 hvcurveto
          -34 204 123 84 -123 187 hlineto
          endchar
        </CharString>
        <CharString name="Delta">
          0 93 561 -20 hstem
          497 hmoveto
          -179 654 rlineto
          -126 hlineto
          -190 -654 rlineto
          127 93 rmoveto
          125 459 117 -459 rlineto
          endchar
        </CharString>
        <CharString name="Delta.alt">
          0 78 484 93 hstem
          43 hmoveto
          414 hlineto
          14 80 -127 575 rlineto
          -194 hlineto
          -123 -577 rlineto
          208 484 rmoveto
          21 hlineto
          103 -470 rlineto
          -223 hlineto
          endchar
        </CharString>
        <CharString name="E">
          61 callsubr
          60 hmoveto
          -74 callgsubr
        </CharString>
        <CharString name="Eacute">
          -29 callsubr
          140 -57 callgsubr
          hintmask 11110000
          -285 -900 rmoveto
          -74 callgsubr
        </CharString>
        <CharString name="Ebreve">
          -29 callsubr
          250 754 -99 callsubr
          hintmask 11110000
          -190 -754 rmoveto
          -74 callgsubr
        </CharString>
        <CharString name="Ecaron">
          61 callsubr
          419 882 -77 callgsubr
          -233 -752 rmoveto
          -74 callgsubr
        </CharString>
        <CharString name="Ecircumflex">
          0 93 196 90 182 94 hstem
          60 102 18 callgsubr
          -153 -882 rmoveto
          -74 callgsubr
        </CharString>
        <CharString name="Edieresis">
          -29 callsubr
          97 812 -105 callgsubr
          hintmask 11110000
          -230 -812 rmoveto
          -74 callgsubr
        </CharString>
        <CharString name="Edotaccent">
          -29 callsubr
          194 812 -69 callsubr
          hintmask 11110000
          -134 -812 rmoveto
          -74 callgsubr
        </CharString>
        <CharString name="Egrave">
          -29 callsubr
          165 53 callgsubr
          -308 -813 rmoveto
          -74 callgsubr
        </CharString>
        <CharString name="Emacron">
          -29 callsubr
          84 853 -15 callgsubr
          hintmask 11110000
          -357 -853 rmoveto
          -74 callgsubr
        </CharString>
        <CharString name="Eng">
          -215 89 137 -21 331 93 241 -20 hstem
          18 103 256 104 vstem
          481 655 rmoveto
          -104 -405 hlineto
          -254 405 rlineto
          -105 -655 103 485 hlineto
          256 -398 rlineto
          -97 vlineto
          -81 -37 -6 -124 -18 vhcurveto
          12 -96 rlineto
          146 20 107 11 170 vvcurveto
          endchar
        </CharString>
        <CharString name="Eogonek">
          0 90 -90 93 196 90 182 94 hstemhm
          60 102 -100 100 hintmask 10110100
          249 -134 -25 callsubr
          31 42 31 hvcurveto
          50 38 -37 49 -69 -49 rlineto
          -61 -28 -30 -53 -53 vvcurveto
          hintmask 01111000
          -189 134 rmoveto
          -74 callgsubr
        </CharString>
        <CharString name="Eth">
          40 callgsubr
          50 hmoveto
          142 hlineto
          197 77 67 260 hvcurveto
          hintmask 01110000
          272 -73 56 -199 vhcurveto
          -144 -288 -42 -97 42 hlineto
          hintmask 10110000
          310 56 rmoveto
          -200 -43 -36 -145 vhcurveto
          -18 180 91 97 -91 198 20 hlineto
          152 34 -30 -209 hvcurveto
          endchar
        </CharString>
        <CharString name="Euro">
          -9 97 75 44 124 44 200 90 hstem
          59 64 255 64 vstem
          429 vmoveto
          -79 41 -32 vlineto
          -23 -41 -79 48 vlineto
          24 -171 87 -58 126 4 rrcurveto
          50 86 13 15 44 hvcurveto
          -25 93 rlineto
          -13 -42 -61 -11 -47 hhcurveto
          -77 -39 39 89 -18 hvcurveto
          208 79 -219 hlineto
          7 -1 8 8 vvcurveto
          32 220 79 -213 vlineto
          106 16 43 40 76 hhcurveto
          51 52 -11 -12 39 hvcurveto
          23 85 rlineto
          13 -38 -70 15 -57 hhcurveto
          -147 -70 -83 -153 -21 hvcurveto
          endchar
        </CharString>
        <CharString name="F">
          21 -21 249 90 222 94 hstem
          64 102 vstem
          64 hmoveto
          104 249 239 90 -239 222 280 94 -384 hlineto
          endchar
        </CharString>
        <CharString name="G">
          -9 96 162 89 232 95 hstem
          22 104 243 95 vstem
          22 335 -84 callsubr
        </CharString>
        <CharString name="G.001">
          -9 51 572 51 hstem
          38 59 292 55 vstem
          22 335 rmoveto
          -253 78 -91 166 66 84 15 19 53 vhcurveto
          322 -100 -247 vlineto
          -8 -33 -30 -5 -40 hhcurveto
          -89 -49 69 179 159 36 78 108 51 74 -10 -14 41 hvcurveto
          18 89 rlineto
          17 -50 -81 11 -53 hhcurveto
          -173 -77 -107 -223 hvcurveto
          endchar
        </CharString>
        <CharString name="Gbreve">
          0 callsubr
          260 754 -99 callsubr
          hintmask 11111000
          -238 -419 -84 callsubr
        </CharString>
        <CharString name="Gcircumflex">
          -9 96 162 89 232 95 hstem
          22 104 243 95 vstem
          97 -72 callsubr
          -201 -547 -84 callsubr
        </CharString>
        <CharString name="Gcommaaccent">
          0 callsubr
          221 -160 -81 callgsubr
          hintmask 11111000
          -199 394 -84 callsubr
        </CharString>
        <CharString name="Gdotaccent">
          0 callsubr
          214 812 -69 callsubr
          hintmask 11111000
          -192 -477 -84 callsubr
        </CharString>
        <CharString name="H">
          43 callsubr
          32 hmoveto
          105 279 227 -279 7 callsubr
        </CharString>
        <CharString name="Hbar">
          0 655 -634 -21 279 93 84 -20 114 -21 126 -20 hstemhm
          0 0 32 102 213 102 -82 102 hintmask 0111111110000000
          529 vmoveto
          -73 500 73 vlineto
          hintmask 1000001110000000
          -468 -529 rmoveto
          105 hlineto
          hintmask 0111111110000000
          279 227 vlineto
          hintmask 1000001110000000
          -279 vlineto
          hintmask 1000001101000000
          7 callsubr
        </CharString>
        <CharString name="Hcircumflex">
          43 callsubr
          84 -72 callsubr
          -178 -882 rmoveto
          105 279 227 -279 7 callsubr
        </CharString>
        <CharString name="I">
          0 93 469 93 hstem
          201 103 vstem
          72 hmoveto
          -74 callsubr
        </CharString>
        <CharString name="I.001">
          0 50 555 50 hstem
          218 55 vstem
          210 vmoveto
          506 55 -506 hlineto
          endchar
        </CharString>
        <CharString name="I.001.bi">
          -857 -49 callgsubr
          98 55 vstem
          153 655 rmoveto
          -55 -655 55 hlineto
          endchar
        </CharString>
        <CharString name="I.bi">
          -857 0 50 555 50 hstemhm
          20 209 -131 55 hintmask 11010000
          153 605 rmoveto
          hintmask 11100000
          76 50 -209 -50 hlineto
          hintmask 11010000
          78 -555 hlineto
          hintmask 11100000
          -78 -50 209 50 hlineto
          hintmask 11010000
          -76 hlineto
          endchar
        </CharString>
        <CharString name="I.swsh">
          0 50 555 50 hstem
          217 58 vstem
          275 605 rmoveto
          62 50 -242 -50 122 -555 -62 -50 229 50 -109 hlineto
          endchar
        </CharString>
        <CharString name="I_J">
          11 -21 201 75 314 75 hstem
          113 97 161 98 vstem
          113 266 rmoveto
          -84 -75 263 75 -82 314 82 75 -263 -75 84 hlineto
          258 75 rmoveto
          -452 vlineto
          -71 -61 70 callgsubr
          125 38 157 vvcurveto
          450 vlineto
          endchar
        </CharString>
        <CharString name="Iacute">
          -3 callsubr
          133 -57 callgsubr
          hintmask 11100000
          -266 -900 rmoveto
          -74 callsubr
        </CharString>
        <CharString name="Ibreve">
          -3 callsubr
          251 754 -99 callsubr
          hintmask 11100000
          -179 -754 rmoveto
          -74 callsubr
        </CharString>
        <CharString name="Icircumflex">
          0 93 469 93 hstem
          201 103 vstem
          26 callsubr
          -141 -882 rmoveto
          -74 callsubr
        </CharString>
        <CharString name="Idieresis">
          -3 callsubr
          97 812 -105 callgsubr
          hintmask 11100000
          -218 -812 rmoveto
          -74 callsubr
        </CharString>
        <CharString name="Idotaccent">
          -3 callsubr
          194 812 -69 callsubr
          hintmask 11100000
          -122 -812 rmoveto
          -74 callsubr
        </CharString>
        <CharString name="Igrave">
          -3 callsubr
          159 -33 callsubr
          hintmask 11100000
          -290 -813 rmoveto
          -74 callsubr
        </CharString>
        <CharString name="Imacron">
          -3 callsubr
          84 853 -15 callgsubr
          hintmask 11100000
          -345 -853 rmoveto
          -74 callsubr
        </CharString>
        <CharString name="Iogonek">
          0 93 469 93 hstem
          201 103 vstem
          218 -134 -25 callsubr
          31 42 31 hvcurveto
          50 38 -37 49 -69 -49 rlineto
          -61 -28 -30 -53 -53 vvcurveto
          -146 134 rmoveto
          -74 callsubr
        </CharString>
        <CharString name="Itilde">
          0 93 469 93 106 83 callgsubr
          201 103 hintmask 11101000
          373 870 -8 callgsubr
          hintmask 11011000
          -39 -29 42 -60 hhcurveto
          -39 -37 -28 -29 -30 hvcurveto
          45 -55 rlineto
          17 18 23 14 17 hhcurveto
          hintmask 11101000
          -64 callsubr
          -342 -814 rmoveto
          -74 callsubr
        </CharString>
        <CharString name="J">
          -11 92 480 94 hstem
          227 104 vstem
          331 561 -18 callgsubr
        </CharString>
        <CharString name="J.001">
          -11 52 564 50 hstem
          257 55 vstem
          472 63 callgsubr
          -22 -55 22 65 callsubr
        </CharString>
        <CharString name="J.001.bi">
          50 callsubr
          605 rmoveto
          45 50 -211 -3 callgsubr
        </CharString>
        <CharString name="J.002.bi">
          -857 -11 52 614 -20 hstem
          147 55 vstem
          202 655 rmoveto
          -55 -437 hlineto
          -156 -12 -21 -48 -17 -23 2 0 vhcurveto
          -4 -51 rlineto
          0 23 -3 22 100 14 43 183 vhcurveto
          endchar
        </CharString>
        <CharString name="J.bi">
          50 callsubr
          655 rmoveto
          -166 -3 callgsubr
        </CharString>
        <CharString name="J.bi.sc">
          -857 -8 41 445 40 hstem
          141 47 vstem
          188 478 rmoveto
          37 40 -177 -40 93 -306 hlineto
          -123 -9 -16 -58 -14 -26 4 0 vhcurveto
          -4 -40 rlineto
          0 27 -5 18 101 12 33 145 vhcurveto
          endchar
        </CharString>
        <CharString name="J.calt">
          561 94 hstem
          278 104 vstem
          82 561 rmoveto
          196 -358 hlineto
          -71 -57 70 callgsubr
          127 38 157 vvcurveto
          450 -300 vlineto
          endchar
        </CharString>
        <CharString name="Jcircumflex">
          561 94 97 70 hstem
          70 206 vstem
          70 -72 callsubr
          135 -321 -18 callgsubr
        </CharString>
        <CharString name="K">
          -49 callgsubr
          49 101 vstem
          360 655 -30 callsubr
        </CharString>
        <CharString name="K.001">
          -49 callgsubr
          71 55 vstem
          500 62 callgsubr
          -22 -55 22 66 callsubr
        </CharString>
        <CharString name="K.calt">
          -49 callgsubr
          54 104 vstem
          54 hmoveto
          104 275 hlineto
          61 7 rlineto
          54 -86 99 -196 0 vvcurveto
          114 hlineto
          0 -123 236 -65 102 vhcurveto
          79 118 100 199 0 vvcurveto
          -112 hlineto
          0 -81 -168 -73 -110 vhcurveto
          -53 -7 rlineto
          285 -104 vlineto
          endchar
        </CharString>
        <CharString name="Kcommaaccent">
          -49 callgsubr
          49 101 vstem
          201 -160 -81 callgsubr
          159 714 -30 callsubr
        </CharString>
        <CharString name="L">
          0 94 561 -20 hstem
          68 104 vstem
          439 94 -19 callgsubr
        </CharString>
        <CharString name="L.001">
          0 51 604 -20 hstem
          91 55 vstem
          972 63 callgsubr
          -522 -55 522 65 callsubr
        </CharString>
        <CharString name="L_I">
          0 94 97 75 314 75 hstemhm
          43 102 86 243 -171 97 hintmask 11111000
          474 94 rmoveto
          -329 561 -102 -655 431 hlineto
          hintmask 11110100
          -74 580 rmoveto
          hintmask 11111000
          74 75 -243 -75 hlineto
          hintmask 11110100
          72 -314 hlineto
          hintmask 11111000
          -72 -75 243 75 hlineto
          hintmask 11110100
          -74 hlineto
          endchar
        </CharString>
        <CharString name="Lacute">
          0 94 561 -20 hstemhm
          68 102 -102 104 hintmask 11100000
          136 -57 callgsubr
          hintmask 11010000
          98 -806 -19 callgsubr
        </CharString>
        <CharString name="Lcaron">
          508 -20 100 29 hstem
          304 27 vstem
          310 588 rmoveto
          36 hlineto
          -3 -25 36 callsubr
          31 51 vvcurveto
          70 -89 vlineto
          129 -593 -19 callgsubr
        </CharString>
        <CharString name="Lcommaaccent">
          0 94 561 -20 hstemhm
          68 102 -102 104 hintmask 11100000
          201 -160 -81 callgsubr
          hintmask 11010000
          238 153 -19 callgsubr
        </CharString>
        <CharString name="Lslash">
          94 331 -80 -20 hstemhm
          0 0 hintmask 10100000
          328 330 rmoveto
          95 vlineto
          hintmask 01100000
          -328 -80 rlineto
          -96 vlineto
          hintmask 10100000
          449 -155 -19 callgsubr
        </CharString>
        <CharString name="M">
          -49 callgsubr
          24 94 263 95 vstem
          21 hmoveto
          94 hlineto
          -3 443 rlineto
          4 hlineto
          85 -221 rlineto
          98 hlineto
          85 221 rlineto
          4 hlineto
          -3 -443 rlineto
          94 655 -99 hlineto
          -126 -342 rlineto
          -8 hlineto
          -126 342 rlineto
          -99 hlineto
          endchar
        </CharString>
        <CharString name="M.001">
          -49 callgsubr
          41 55 293 55 vstem
          1000 62 callgsubr
          -522 -55 522 66 callsubr
        </CharString>
        <CharString name="M.tri">
          -357 -49 callgsubr
          63 55 513 55 vstem
          686 hmoveto
          655 -60 vlineto
          -242 -456 rlineto
          -11 hlineto
          -249 456 rlineto
          -61 -655 55 559 hlineto
          233 -427 rlineto
          56 hlineto
          224 427 rlineto
          -559 vlineto
          endchar
        </CharString>
        <CharString name="M.tri.sc">
          -357 21 -21 518 -20 hstem
          114 46 430 45 vstem
          635 hmoveto
          518 -50 vlineto
          -202 -361 rlineto
          -9 hlineto
          -208 361 rlineto
          -52 -518 46 442 hlineto
          195 -338 rlineto
          47 hlineto
          188 338 rlineto
          -442 vlineto
          endchar
        </CharString>
        <CharString name="N">
          -49 callgsubr
          42 103 216 104 vstem
          375 hmoveto
          -59 callsubr
        </CharString>
        <CharString name="N.001">
          -49 callgsubr
          43 55 299 55 vstem
          210 vmoveto
          402 45 callgsubr
          -395 hlineto
          endchar
        </CharString>
        <CharString name="Nacute">
          33 callsubr
          136 -57 callgsubr
          hintmask 11011000
          34 -900 rmoveto
          -59 callsubr
        </CharString>
        <CharString name="Ncaron">
          -49 callgsubr
          42 103 216 104 vstem
          419 882 -77 callgsubr
          82 -752 rmoveto
          -59 callsubr
        </CharString>
        <CharString name="Ncommaaccent">
          33 callsubr
          199 -160 -81 callgsubr
          hintmask 11011000
          176 59 rmoveto
          -59 callsubr
        </CharString>
        <CharString name="Ntilde">
          21 -21 655 -20 126 83 callgsubr
          18 103 256 104 hintmask 11101100
          373 870 -78 callgsubr
          -39 -814 rmoveto
          -59 callsubr
        </CharString>
        <CharString name="O">
          -10 91 493 91 hstem
          37 callsubr
          vstem
          25 336 -97 callsubr
        </CharString>
        <CharString name="O.001">
          -10 49 callgsubr
          395 43 callgsubr
          -402 hlineto
          endchar
        </CharString>
        <CharString name="OE">
          21 -21 151 50 hstem
          258 665 rmoveto
          -189 -43 -118 -206 -216 48 -125 184 hvcurveto
          223 89 -128 200 98 90 -98 187 125 99 hlineto
          -350 -324 rmoveto
          128 23 102 82 3 13 -1 0 vhcurveto
          -486 -16 vlineto
          -81 -24 117 140 hvcurveto
          endchar
        </CharString>
        <CharString name="OE.001">
          -10 104 195 90 182 104 hstem
          31 106 112 104 vstem
          31 336 rmoveto
          -262 62 -84 146 16 18 4 6 17 vhcurveto
          185 94 -122 195 92 90 -92 182 119 94 -178 hlineto
          5 -16 -17 5 -22 hhcurveto
          -141 -67 -95 -234 hvcurveto
          106 -2 rmoveto
          189 32 48 70 vhcurveto
          10 -487 -10 hlineto
          -70 -32 46 204 hvcurveto
          endchar
        </CharString>
        <CharString name="Oacute">
          -28 callgsubr
          54 callsubr
          hintmask 11110000
          -327 -564 -97 callsubr
        </CharString>
        <CharString name="Obreve">
          -28 callgsubr
          251 754 -99 callsubr
          hintmask 11110000
          -226 -418 -97 callsubr
        </CharString>
        <CharString name="Ocircumflex">
          -10 91 493 91 hstem
          37 callsubr
          18 callgsubr
          -188 -546 -97 callsubr
        </CharString>
        <CharString name="Odieresis">
          -28 callgsubr
          97 812 -105 callgsubr
          hintmask 11110000
          -265 -476 -97 callsubr
        </CharString>
        <CharString name="Ograve">
          -28 callgsubr
          168 53 callgsubr
          -346 -477 -97 callsubr
        </CharString>
        <CharString name="Ohungarumlaut">
          -28 callgsubr
          44 757 rmoveto
          -53 callsubr
          hintmask 11110000
          -404 -538 -97 callsubr
        </CharString>
        <CharString name="Omacron">
          -28 callgsubr
          84 853 -15 callgsubr
          hintmask 11110000
          -392 -517 -97 callsubr
        </CharString>
        <CharString name="Omega">
          51 callgsubr
          118 79 rmoveto
          -64 15 rlineto
          -94 167 94 vlineto
          -87 24 -5 125 103 vvcurveto
          98 3 130 118 118 3 -130 -98 -103 -5 -126 -87 -23 vhcurveto
          -94 173 94 vlineto
          -70 -15 rlineto
          5 vlineto
          69 46 24 105 111 vvcurveto
          208 -47 111 -178 -179 -46 -111 -208 -125 28 -92 65 -45 vhcurveto
          endchar
        </CharString>
        <CharString name="Omega.001">
          51 callgsubr
          33 hmoveto
          188 79 hlineto
          -63 26 -38 59 88 vvcurveto
          100 50 59 81 79 51 -61 -98 -88 -40 -61 -62 -26 vhcurveto
          -77 191 76 vlineto
          -118 -10 rlineto
          5 vlineto
          58 26 53 41 114 vvcurveto
          144 -83 85 -129 -132 -81 -94 -135 -111 50 -40 55 -30 vhcurveto
          -5 vlineto
          -110 10 rlineto
          endchar
        </CharString>
        <CharString name="Oslash">
          -32 -21 773 -20 hstem
          25 336 18 callsubr
          4 callsubr
          -35 callsubr
        </CharString>
        <CharString name="Oslashacute">
          -10 687 -685 673 hstemhm
          25 394 -338 394 hintmask 10100000
          54 callsubr
          -327 -564 18 callsubr
          hintmask 01010000
          4 callsubr
          hintmask 01100000
          -35 callsubr
        </CharString>
        <CharString name="Otilde">
          -10 91 493 91 96 82 -39 81 33 callgsubr
          hintmask 11101100
          373 870 -78 callgsubr
          -389 -478 -97 callsubr
        </CharString>
        <CharString name="P">
          21 -21 210 95 258 92 hstem
          45 104 215 106 vstem
          248 210 rmoveto
          154 68 80 153 141 -65 71 -154 hvcurveto
          -206 -655 104 210 hlineto
          86 353 rmoveto
          85 44 -29 -90 -104 -43 -35 -86 hvcurveto
          -86 258 hlineto
          endchar
        </CharString>
        <CharString name="P.001">
          21 -21 242 50 313 50 hstem
          69 55 269 58 vstem
          210 vmoveto
          902 45 callgsubr
          -895 hlineto
          endchar
        </CharString>
        <CharString name="Q">
          -52 -21 63 91 493 91 hstem
          37 callsubr
          vstem
          425 -73 rmoveto
          53 69 -55 75 rlineto
          36 57 16 87 121 vvcurveto
          225 -58 104 -167 -169 -56 -104 -225 -239 63 -107 162 41 35 7 14 29 vhcurveto
          -226 325 rmoveto
          124 13 114 108 108 13 -114 -124 -74 -5 -64 -18 -45 vhcurveto
          -52 52 -49 -83 37 -37 rlineto
          -3 -10 -12 -1 -12 hhcurveto
          -101 -20 108 147 hvcurveto
          endchar
        </CharString>
        <CharString name="Q.001">
          -52 -21 63 49 callgsubr
          895 43 callgsubr
          -902 hlineto
          endchar
        </CharString>
        <CharString name="Q.calt">
          -10 94 487 94 hstem
          25 106 238 106 vstem
          25 336 rmoveto
          -232 61 -114 164 58 46 13 27 34 vhcurveto
          34 -41 59 57 -45 47 rlineto
          27 56 12 80 107 vvcurveto
          222 -57 107 -168 -159 -66 -107 -222 vhcurveto
          106 -2 rmoveto
          181 34 56 85 92 27 -48 -189 -65 -3 -49 -8 -37 vhcurveto
          -65 82 -65 -54 95 -104 rlineto
          -17 -18 -24 -6 -31 hhcurveto
          -99 -20 83 167 hvcurveto
          endchar
        </CharString>
        <CharString name="R">
          21 -21 236 96 231 92 hstem
          37 104 217 106 vstem
          248 239 -76 callsubr
        </CharString>
        <CharString name="R.001">
          21 -21 268 50 287 50 hstem
          61 55 270 58 vstem
          265 vmoveto
          -55 vlineto
          500 82 callgsubr
        </CharString>
        <CharString name="Racute">
          25 callsubr
          116 -57 callgsubr
          hintmask 11101010
          -73 -661 -76 callsubr
        </CharString>
        <CharString name="Rcaron">
          0 0 655 97 151 -21 hstem
          37 30 74 132 vstem
          399 882 -77 callgsubr
          -25 -513 -76 callsubr
        </CharString>
        <CharString name="Rcommaaccent">
          25 callsubr
          201 -160 -81 callgsubr
          hintmask 11101010
          47 298 -76 callsubr
        </CharString>
        <CharString name="S">
          20 callsubr
          42 480 -96 callgsubr
        </CharString>
        <CharString name="S.001">
          -9 51 572 51 hstem
          54 60 260 59 vstem
          452 211 rmoveto
          -151 48 206 vlineto
          -500 -1 rlineto
          -55 vlineto
          endchar
        </CharString>
        <CharString name="Sacute">
          63 callsubr
          148 779 -79 callgsubr
          hintmask 11110000
          -287 -400 -96 callgsubr
        </CharString>
        <CharString name="Scaron">
          20 callsubr
          409 882 -77 callgsubr
          -241 -272 -96 callgsubr
        </CharString>
        <CharString name="Scedilla">
          75 callsubr
          33 86 498 90 hstem
          37 104 122 74 10 104 vstem
          337 -148 -66 callsubr
          -295 628 -96 callgsubr
        </CharString>
        <CharString name="Scircumflex">
          -9 86 498 90 hstem
          37 104 206 104 18 callgsubr
          -171 -402 -96 callgsubr
        </CharString>
        <CharString name="Scommaaccent">
          63 callsubr
          181 -160 -81 callgsubr
          hintmask 11110000
          -139 539 -96 callgsubr
        </CharString>
        <CharString name="T">
          21 -21 561 94 hstem
          198 102 vstem
          28 561 -18 callsubr
        </CharString>
        <CharString name="T.001">
          21 -21 605 50 hstem
          221 55 vstem
          265 vmoveto
          -55 vlineto
          1000 82 callgsubr
        </CharString>
        <CharString name="Tbar">
          21 -21 561 94 hstemhm
          198 102 vstemhm
          84 454 -15 callgsubr
          hintmask 11100000
          -389 107 -18 callsubr
        </CharString>
        <CharString name="Tcaron">
          21 -21 561 94 hstem
          198 102 vstem
          419 882 -77 callgsubr
          -265 -191 -18 callsubr
        </CharString>
        <CharString name="Tcommaaccent">
          21 -21 561 94 hstemhm
          198 102 -102 103 hintmask 11100000
          201 -160 -81 callgsubr
          hintmask 11010000
          -173 620 -18 callsubr
        </CharString>
        <CharString name="Thorn">
          21 -21 115 90 255 90 105 -20 hstem
          44 99 vstem
          143 115 rmoveto
          79 hlineto
          269 12 435 -279 hhcurveto
          -81 105 -99 -655 99 hlineto
          61 460 rmoveto
          153 -1 -255 -154 hhcurveto
          -59 255 hlineto
          endchar
        </CharString>
        <CharString name="Thorn.calt">
          21 -21 119 95 258 183 hstem
          45 104 215 106 vstem
          45 hmoveto
          104 119 99 hlineto
          148 74 75 158 143 -68 69 -151 hvcurveto
          -102 91 -104 hlineto
          319 -302 rmoveto
          -103 -39 -36 -90 vhcurveto
          -86 258 86 hlineto
          87 42 -30 -89 hvcurveto
          endchar
        </CharString>
        <CharString name="U">
          -9 98 566 -20 hstem
          26 103 242 102 vstem
          26 220 -87 callgsubr
        </CharString>
        <CharString name="U.001">
          -17 callsubr
          952 211 rmoveto
          -151 48 206 vlineto
          -1000 -1 rlineto
          -55 vlineto
          endchar
        </CharString>
        <CharString name="Uacute">
          -28 callsubr
          151 -57 callgsubr
          hintmask 11110000
          -330 -680 -87 callgsubr
        </CharString>
        <CharString name="Ubreve">
          -28 callsubr
          250 754 -99 callsubr
          hintmask 11110000
          -224 -534 -87 callgsubr
        </CharString>
        <CharString name="Ucircumflex">
          -9 98 566 -20 hstem
          26 103 242 102 18 callgsubr
          -187 -662 -87 callgsubr
        </CharString>
        <CharString name="Udieresis">
          -28 callsubr
          97 812 -105 callgsubr
          hintmask 11110000
          -264 -592 -87 callgsubr
        </CharString>
        <CharString name="Ugrave">
          -28 callsubr
          157 53 callgsubr
          -334 -593 -87 callgsubr
        </CharString>
        <CharString name="Uhungarumlaut">
          -28 callsubr
          54 757 rmoveto
          -53 callsubr
          hintmask 11110000
          -413 -654 -87 callgsubr
        </CharString>
        <CharString name="Umacron">
          -28 callsubr
          84 853 -15 callgsubr
          hintmask 11110000
          -391 -633 -87 callgsubr
        </CharString>
        <CharString name="Uogonek">
          -192 0 847 -20 hstemhm
          356 71 -56 0 hintmask 11100000
          277 -9 rmoveto
          -56 -40 -22 -2 callgsubr
          17 36 57 54 rrcurveto
          84 79 31 21 143 vvcurveto
          429 vlineto
          hintmask 11010000
          -102 -435 hlineto
          -42 -5 -44 -31 -24 vhcurveto
          -13 -17 -23 -8 -45 hhcurveto
          -67 -54 30 98 hvcurveto
          438 -103 -452 vlineto
          -129 53 -83 171 vhcurveto
          endchar
        </CharString>
        <CharString name="Uring">
          -9 98 566 -20 73 65 90 66 hstem
          26 103 1 69 100 70 2 102 vstem
          369 818 -69 callgsubr
          -173 -598 -87 callgsubr
        </CharString>
        <CharString name="Utilde">
          -9 98 566 -20 126 83 callgsubr
          26 103 242 102 hintmask 11101100
          373 870 -78 callgsubr
          -388 -594 -87 callgsubr
        </CharString>
        <CharString name="V">
          0 105 550 -20 hstem
          13 655 rmoveto
          162 -655 rlineto
          154 hlineto
          160 655 rlineto
          -116 hlineto
          -120 -550 -123 550 rlineto
          endchar
        </CharString>
        <CharString name="V.001">
          47 callgsubr
          360 vmoveto
          -84 122 139 -66 217 hhcurveto
          22 55 -22 65 callgsubr
        </CharString>
        <CharString name="V.calt">
          0 93 562 -20 hstem
          155 hmoveto
          194 hlineto
          140 655 rlineto
          -107 hlineto
          -118 -562 rlineto
          -21 hlineto
          -123 562 rlineto
          -110 hlineto
          endchar
        </CharString>
        <CharString name="W">
          9 callgsubr
          hstem
          57 hmoveto
          -75 callgsubr
        </CharString>
        <CharString name="W.001">
          9 callgsubr
          hstem
          28 72 callgsubr
          22 55 -22 64 callsubr
        </CharString>
        <CharString name="W.titl">
          -49 callgsubr
          221 56 vstem
          437 655 rmoveto
          -64 -605 rlineto
          -12 hlineto
          -84 273 rlineto
          58 -56 -58 vlineto
          -83 -273 rlineto
          -13 hlineto
          -64 605 rlineto
          -58 hlineto
          71 -655 rlineto
          101 hlineto
          74 256 76 -256 rlineto
          99 hlineto
          71 655 rlineto
          endchar
        </CharString>
        <CharString name="W.titl.sc">
          21 -21 518 -20 hstem
          226 47 vstem
          407 518 rmoveto
          -53 -478 rlineto
          -10 hlineto
          -71 216 rlineto
          45 -47 -45 vlineto
          -69 -216 rlineto
          -11 hlineto
          -54 478 rlineto
          -48 hlineto
          60 -518 rlineto
          84 hlineto
          62 203 64 -203 rlineto
          83 hlineto
          59 518 rlineto
          endchar
        </CharString>
        <CharString name="W.tri">
          -357 -49 callgsubr
          683 655 rmoveto
          -124 -605 rlineto
          -6 hlineto
          -141 573 rlineto
          -76 hlineto
          -143 -573 rlineto
          -6 hlineto
          -124 605 rlineto
          -58 hlineto
          140 -655 rlineto
          91 hlineto
          135 566 rlineto
          6 hlineto
          132 -566 rlineto
          92 hlineto
          140 655 rlineto
          endchar
        </CharString>
        <CharString name="W.tri.sc">
          -357 21 -21 518 -20 hstem
          634 518 rmoveto
          -104 -478 rlineto
          -5 hlineto
          -118 453 rlineto
          -64 hlineto
          -119 -453 rlineto
          -5 hlineto
          -104 478 rlineto
          -48 hlineto
          117 -518 rlineto
          75 hlineto
          114 447 rlineto
          5 hlineto
          110 -447 rlineto
          77 hlineto
          118 518 rlineto
          endchar
        </CharString>
        <CharString name="Wacute">
          9 callgsubr
          hstemhm
          54 callsubr
          hintmask 11000000
          -295 -900 rmoveto
          -75 callgsubr
        </CharString>
        <CharString name="Wcircumflex">
          9 callgsubr
          hstem
          87 -72 callsubr
          -156 -882 rmoveto
          -75 callgsubr
        </CharString>
        <CharString name="Wdieresis">
          9 callgsubr
          hstemhm
          97 812 -105 callgsubr
          hintmask 11000000
          -233 -812 rmoveto
          -75 callgsubr
        </CharString>
        <CharString name="Wgrave">
          9 callgsubr
          hstemhm
          168 -33 callsubr
          hintmask 11000000
          -314 -813 rmoveto
          -75 callgsubr
        </CharString>
        <CharString name="X">
          -49 callgsubr
          238 250 rmoveto
          3 hlineto
          117 -250 rlineto
          127 hlineto
          -170 336 154 319 rlineto
          -122 hlineto
          -100 -240 rlineto
          -4 hlineto
          -101 240 rlineto
          -125 hlineto
          153 -319 -161 -336 rlineto
          123 hlineto
          endchar
        </CharString>
        <CharString name="X.001">
          -49 callgsubr
          -500 360 rmoveto
          -84 122 139 -66 217 hhcurveto
          522 55 -522 65 callgsubr
        </CharString>
        <CharString name="Y">
          -49 callgsubr
          198 104 vstem
          302 283 -56 callgsubr
        </CharString>
        <CharString name="Y.001">
          -49 callgsubr
          223 55 vstem
          -472 72 callgsubr
          522 55 -522 64 callsubr
        </CharString>
        <CharString name="Yacute">
          53 callsubr
          148 779 -79 callgsubr
          hintmask 11100000
          -27 -597 -56 callgsubr
        </CharString>
        <CharString name="Ycircumflex">
          676 -21 97 -20 hstem
          87 215 18 callgsubr
          89 -599 -56 callgsubr
        </CharString>
        <CharString name="Ydieresis">
          -49 callgsubr
          199 102 vstem
          301 283 rmoveto
          198 372 rlineto
          -113 hlineto
          -135 -275 -133 275 rlineto
          -119 hlineto
          200 -372 rlineto
          -283 102 vlineto
          -11 812 -69 callsubr
          -193 hmoveto
          -30 24 -27 32 32 24 27 30 30 -25 27 -31 -31 -25 -27 callgsubr
          endchar
        </CharString>
        <CharString name="Ygrave">
          53 callsubr
          168 -33 callsubr
          hintmask 11100000
          -69 -530 -56 callgsubr
        </CharString>
        <CharString name="Z">
          -37 callsubr
          endchar
        </CharString>
        <CharString name="Z.001">
          0 47 560 48 hstem
          500 265 rmoveto
          -395 40 callsubr
          402 hlineto
          endchar
        </CharString>
        <CharString name="Z.calt">
          0 94 467 94 hstem
          64 561 rmoveto
          248 hlineto
          -250 -485 13 -76 rlineto
          377 94 -260 hlineto
          245 479 -12 82 rlineto
          -361 hlineto
          endchar
        </CharString>
        <CharString name="Zacute">
          -37 callsubr
          84 124 -79 callgsubr
          endchar
        </CharString>
        <CharString name="Zcaron">
          71 811 -130 130 hstemhm
          hintmask 01000000
          419 882 -77 callgsubr
          -229 -191 rmoveto
          248 hlineto
          hintmask 10000000
          -251 -490 rlineto
          -71 391 94 -260 vlineto
          245 479 rlineto
          82 -373 vlineto
          endchar
        </CharString>
        <CharString name="Zdotaccent">
          -37 callsubr
          130 157 -69 callsubr
          endchar
        </CharString>
        <CharString name="a">
          -16 callsubr
          hstem
          40 111 181 103 vstem
          -107 callsubr
          endchar
        </CharString>
        <CharString name="a.001">
          -11 47 callsubr
          hstem
          40 111 181 103 vstem
          500 265 rmoveto
          -402 41 callgsubr
          395 hlineto
          endchar
        </CharString>
        <CharString name="a.sc">
          21 -21 93 90 hstem
          -61 callsubr
          endchar
        </CharString>
        <CharString name="aacute">
          -16 callsubr
          hstem
          40 111 181 103 vstem
          -107 callsubr
          -75 645 -79 callgsubr
          endchar
        </CharString>
        <CharString name="aacute.sc">
          21 -21 93 90 hstem
          -61 callsubr
          -126 189 -79 callgsubr
          endchar
        </CharString>
        <CharString name="abreve">
          -16 callsubr
          hstem
          40 111 181 103 vstem
          -107 callsubr
          50 590 -99 callsubr
          endchar
        </CharString>
        <CharString name="abreve.sc">
          21 -21 77 93 hstem
          250 561 -99 callsubr
          -218 -561 rmoveto
          -78 callsubr
          endchar
        </CharString>
        <CharString name="acircumflex">
          -16 callsubr
          hstem
          40 111 181 103 vstem
          -107 callsubr
          97 756 -75 callsubr
        </CharString>
        <CharString name="acircumflex.sc">
          21 -21 93 90 358 152 hstem
          83 330 vstem
          -61 callsubr
          -180 178 -70 callgsubr
        </CharString>
        <CharString name="acorn.left">
          71 callsubr
          hstem
          207 32 vstem
          229 -26 rmoveto
          29 -2 3 32 45 3 40 29 5 58 rlinecurve
          9 80 18 15 11 22 3 31 rlinecurve
          6 69 -44 35 -81 6 rrcurveto
          -7 hlineto
          -10 44 -7 31 -6 31 -3 28 rlinecurve
          55 27 40 52 11 62 rrcurveto
          6 6 1 7 hhcurveto
          105 31 -106 hlineto
          -112 -48 -51 -104 3 hvcurveto
          -7 -17 -19 -3 -20 hhcurveto
          -121 -29 121 hlineto
          20 20 3 6 18 hvcurveto
          3 -26 5 -29 8 -31 8 -37 rcurveline
          -59 -5 -33 -28 -4 -57 -3 -31 8 -23 17 -18 rrcurveto
          -80 vlineto
          -5 -53 33 -41 44 -9 rrcurveto
          -72 527 rmoveto
          33 142 -163 -14 0 vvcurveto
          -182 -38 160 16 -1 hhcurveto
          20 -263 rmoveto
          18 25 29 13 47 -3 47 -3 28 -14 15 -29 -31 -13 rcurveline
          -11 16 -18 8 -33 3 -31 3 -18 -9 -12 -13 rrcurveto
          113 406 rmoveto
          -11 -43 -26 -36 -37 -23 2 50 18 38 54 14 rrcurveto
          endchar
        </CharString>
        <CharString name="acorn.right">
          71 callsubr
          hstemhm
          149 192 -81 32 hintmask 11111000
          269 6 rmoveto
          43 9 33 41 -4 53 rrcurveto
          80 vlineto
          17 18 7 23 -2 31 -4 57 -34 28 -59 5 9 37 rcurveline
          7 31 6 29 2 26 rrcurveto
          -6 19 19 -3 21 hhcurveto
          121 29 -102 hlineto
          40 2 92 19 -30 145 rrcurveto
          0 -163 14 33 -142 vhcurveto
          9 -38 rlineto
          hintmask 11110100
          -20 -19 3 7 -18 hvcurveto
          104 3 -47 51 -112 hhcurveto
          -106 -31 105 hlineto
          6 7 -1 6 hhcurveto
          11 -62 40 -52 54 -27 -2 -28 -6 -31 -7 -31 -10 -44 rcurveline
          -7 hlineto
          -81 -6 -44 -35 6 -69 2 -31 11 -22 18 -15 rrcurveto
          hintmask 11111000
          10 -80 4 -58 40 -29 46 -3 rlinecurve
          3 -32 29 2 rlineto
          29 242 rmoveto
          -12 13 -18 9 -31 -3 -33 -3 -18 -8 -11 -16 -31 13 rcurveline
          15 29 28 14 47 3 47 3 29 -13 18 -25 rrcurveto
          -143 390 rmoveto
          hintmask 11110100
          53 -14 19 -38 1 -50 -36 23 -27 36 -10 43 rrcurveto
          endchar
        </CharString>
        <CharString name="adieresis">
          -16 callsubr
          hstem
          40 111 181 103 vstem
          -107 callsubr
          -103 658 -105 callgsubr
          endchar
        </CharString>
        <CharString name="adieresis.sc">
          21 -21 93 90 386 116 hstem
          97 114 vstem
          -61 callsubr
          -166 199 -105 callgsubr
          endchar
        </CharString>
        <CharString name="ae">
          -10 71 140 68 136 75 -5 -20 hstemhm
          19 76 109 93 107 81 hintmask 11011110
          135 -10 -11 callsubr
          hintmask 11101110
          36 callgsubr
          42 callgsubr
          26 callgsubr
          0 -14 -41 -52 -25 -20 21 52 44 25 23 36 vhcurveto
          17 callsubr
        </CharString>
        <CharString name="ae.sc">
          0 89 4 90 36 90 119 89 hstem
          229 104 vstem
          11 hmoveto
          94 hlineto
          22 93 rlineto
          102 -93 233 89 -129 130 104 90 -104 119 126 89 -328 hlineto
          98 -334 rmoveto
          -80 hlineto
          49 24 callgsubr
          endchar
        </CharString>
        <CharString name="aeacute">
          201 176 -94 -20 142 330 -295 35 hstemhm
          34 106 -45 43 -3 227 hintmask 10100100
          138 634 rmoveto
          40 -73 rlineto
          hintmask 10100010
          184 87 -5 callgsubr
          hintmask 10100100
          hintmask 10010010
          -184 -745 -11 callsubr
          36 callgsubr
          hintmask 10011000
          42 callgsubr
          hintmask 01100010
          26 callgsubr
          hintmask 10101000
          0 -14 -41 -52 vhcurveto
          hintmask 10100100
          -25 -20 21 52 44 25 23 36 hvcurveto
          17 callsubr
        </CharString>
        <CharString name="aeacute.sc">
          21 -21 90 70 hstem
          147 617 -79 callgsubr
          -317 -718 rmoveto
          94 hlineto
          22 93 rlineto
          102 -93 233 89 -129 130 104 90 -104 119 126 89 -328 hlineto
          98 -334 rmoveto
          -80 hlineto
          49 24 callgsubr
          endchar
        </CharString>
        <CharString name="agrave">
          -16 callsubr
          hstem
          40 111 181 103 vstem
          -107 callsubr
          -19 746 -19 callsubr
        </CharString>
        <CharString name="agrave.sc">
          21 -21 93 90 358 174 hstem
          147 224 vstem
          -61 callsubr
          -116 200 -34 callsubr
        </CharString>
        <CharString name="amacron">
          -16 callsubr
          hstem
          40 111 181 103 vstem
          -107 callsubr
          -116 699 -15 callgsubr
          endchar
        </CharString>
        <CharString name="amacron.sc">
          21 -21 77 93 hstem
          100 658 rmoveto
          -82 293 82 vlineto
          -361 -658 rmoveto
          -78 callsubr
          endchar
        </CharString>
        <CharString name="ampersand">
          -10 81 513 81 hstemhm
          4 91 0 93 128 90 hintmask 11101000
          4 197 rmoveto
          -141 77 -66 122 77 48 26 49 45 vhcurveto
          27 -39 29 -36 0 vvcurveto
          69 54 rlineto
          0 -48 62 -24 32 vhcurveto
          38 74 15 67 12 97 -85 12 rcurveline
          -10 -70 -5 -49 -23 -57 -103 148 rcurveline
          108 48 33 44 70 vvcurveto
          89 -59 54 -96 -96 -60 -56 -84 -47 19 -29 26 -44 vhcurveto
          -85 -38 -51 -63 -107 vvcurveto
          312 325 rmoveto
          -41 -21 -28 -71 -29 vhcurveto
          hintmask 11011000
          -29 40 -7 21 40 vvcurveto
          36 21 23 42 45 20 -20 -42 vhcurveto
          -221 -325 rmoveto
          69 30 46 54 27 vhcurveto
          146 -207 rlineto
          -41 -30 -48 -20 -42 hhcurveto
          -78 -32 39 87 hvcurveto
          endchar
        </CharString>
        <CharString name="ampersand.alt">
          -9 52 301 51 218 52 hstem
          17 55 22 53 231 53 vstem
          154 395 rmoveto
          -3 19 -4 28 18 vvcurveto
          90 20 63 95 26 55 -7 -6 28 vhcurveto
          7 52 rlineto
          6 -35 -46 7 -35 hhcurveto
          -126 -42 -80 -121 -24 6 -36 5 -28 hvcurveto
          -55 -29 -33 -47 -101 vvcurveto
          -134 65 -74 141 70 77 9 13 61 vhcurveto
          331 57 51 vlineto
          -110 -338 rmoveto
          -6 -35 -77 -8 -40 hhcurveto
          -106 -42 44 112 -6 hvcurveto
          80 25 65 80 vhcurveto
          201 hlineto
          endchar
        </CharString>
        <CharString name="ampersand.calt">
          -10 92 246 -21 266 92 hstemhm
          20 107 -56 106 143 104 hintmask 11110100
          20 195 rmoveto
          -137 60 -68 162 70 62 12 14 50 vhcurveto
          291 69 91 -285 vlineto
          hintmask 11101100
          -23 24 -8 24 41 vvcurveto
          58 26 28 74 36 45 -9 -7 28 vhcurveto
          21 93 rlineto
          0 -72 15 -58 -143 -63 -63 -111 -52 11 -42 42 -33 vhcurveto
          hintmask 11110100
          -67 -25 -37 -53 -91 vvcurveto
          107 hmoveto
          80 30 32 72 vhcurveto
          91 -215 hlineto
          -7 -23 -22 -3 -30 hhcurveto
          -94 -24 34 79 hvcurveto
          endchar
        </CharString>
        <CharString name="aogonek">
          -263 252 -124 134 -10 209 hstemhm
          234 99 41 72 hintmask 10011000
          200 -11 rmoveto
          46 54 28 18 33 hvcurveto
          7 -35 rlineto
          hintmask 01011000
          -71 -52 -20 -41 -42 vvcurveto
          -99 67 -36 58 vhcurveto
          hintmask 10011000
          26 26 4 3 19 hvcurveto
          6 callgsubr
          hintmask 01011000
          36 18 31 92 69 vhcurveto
          -11 88 rlineto
          203 vlineto
          136 -40 57 -143 -62 -91 -18 -14 -46 vhcurveto
          19 -95 rlineto
          12 37 92 18 45 hhcurveto
          71 15 -27 -77 hvcurveto
          2 -22 -45 3 -31 hhcurveto
          -109 -85 -30 -116 hvcurveto
          hintmask 10011000
          -108 63 -44 97 vhcurveto
          16 97 rmoveto
          -40 -25 14 41 42 32 20 51 hvcurveto
          hintmask 00111000
          33 41 -3 -2 24 hvcurveto
          -70 vlineto
          -19 -24 -52 -23 -40 hhcurveto
          endchar
        </CharString>
        <CharString name="aogonek.sc">
          21 -21 77 93 hstem
          32 hmoveto
          104 hlineto
          22 93 rlineto
          179 hlineto
          20 -88 rlineto
          -70 -48 -19 -51 -41 vvcurveto
          -54 callgsubr
          32 92 69 hvcurveto
          -127 517 rlineto
          -181 hlineto
          161 -43 callsubr
          endchar
        </CharString>
        <CharString name="approxequal">
          92 49 29 49 67 47 31 47 hstem
          399 408 rmoveto
          -43 callgsubr
          -63 -142 rmoveto
          -43 callgsubr
          endchar
        </CharString>
        <CharString name="aring">
          -16 callsubr
          35 65 90 66 hstemhm
          40 111 -21 69 100 70 -37 103 hintmask 1111110010000000
          -107 callsubr
          hintmask 1111101100000000
          169 639 -69 callgsubr
          endchar
        </CharString>
        <CharString name="aring.sc">
          21 -21 93 90 348 65 90 66 hstem
          136 69 100 70 vstem
          32 hmoveto
          -46 callgsubr
        </CharString>
        <CharString name="aringacute">
          -11 301 -87 616 -368 391 -329 65 90 66 hstemhm
          72 105 -47 69 53 81 -34 70 hintmask 0100010100000000
          138 819 rmoveto
          39 -64 rlineto
          hintmask 1010010100000000
          184 87 -42 78 rlineto
          hintmask 0100010100000000
          -103 -834 rmoveto
          -40 -25 14 41 42 32 20 51 33 41 -3 -2 24 hvcurveto
          -70 vlineto
          -19 -24 -52 -23 -40 hhcurveto
          hintmask 1010010100000000
          -16 -97 rmoveto
          46 54 28 18 33 hvcurveto
          10 -46 103 10 -11 88 rlineto
          203 vlineto
          136 -40 57 -143 -62 -91 -18 -14 -46 vhcurveto
          19 -95 rlineto
          12 37 92 18 45 hhcurveto
          71 15 -27 -77 hvcurveto
          2 -22 -45 3 -31 hhcurveto
          -109 -85 -30 -116 -108 63 -44 97 hvcurveto
          hintmask 1001101010000000
          169 634 -69 callgsubr
          endchar
        </CharString>
        <CharString name="aringacute.sc">
          21 -21 77 93 hstem
          145 819 rmoveto
          39 -64 184 77 -42 78 rlineto
          -294 -910 rmoveto
          -46 callgsubr
        </CharString>
        <CharString name="asciitilde">
          193 92 -18 80 hstemhm
          hintmask 01000000
          403 332 rmoveto
          hintmask 10000000
          -43 callgsubr
          endchar
        </CharString>
        <CharString name="asterisk">
          485 84 hstem
          70 484 rmoveto
          120 1 -44 -110 90 -33 33 117 97 -76 57 78 -106 65 107 67 -57 76 -96 -75 -31 118 -92 -31 44 -112 -122 3 rlineto
          endchar
        </CharString>
        <CharString name="at">
          -109 52 84 51 260 51 84 52 hstem
          55 59 67 56 160 55 vstem
          30 214 rmoveto
          -233 100 -96 177 50 61 10 15 44 vhcurveto
          -18 67 rlineto
          -14 -42 -47 -9 -47 hhcurveto
          -127 -67 75 185 160 79 79 111 43 29 -6 0 hvcurveto
          -53 vlineto
          3 -15 -18 2 -20 hhcurveto
          -99 -53 -53 -130 -142 38 -61 114 83 58 26 0 hvcurveto
          452 vlineto
          0 -61 32 -99 -174 -100 -117 -192 vhcurveto
          242 2 rmoveto
          76 17 23 36 22 15 -1 -2 14 vhcurveto
          -208 vlineto
          0 -20 -7 -27 -40 -17 27 92 vhcurveto
          endchar
        </CharString>
        <CharString name="at.002">
          -89 52 108 39 182 48 115 52 hstem
          25 59 46 46 182 44 vstem
          277 507 rmoveto
          -154 -90 -98 -195 -8 hvcurveto
          -225 -9 120 -78 129 hhcurveto
          143 60 53 79 callgsubr
          -92 -103 51 200 7 vhcurveto
          161 6 72 80 105 hhcurveto
          114 62 -44 0 hvcurveto
          20 47 rlineto
          0 -72 49 -114 vhcurveto
          89 -124 rmoveto
          -16 -262 rlineto
          -3 vlineto
          -4 -8 -11 -4 -6 callgsubr
          28 18 79 callsubr
          28 17 7 9 10 5 callsubr
          7 154 rlineto
          63 hlineto
          5 41 rlineto
          -66 hlineto
          3 50 rlineto
          -198 -272 rmoveto
          20 callgsubr
          24 13 -15 -4 3 hvcurveto
          -13 -142 rlineto
          -12 -10 -17 -15 -17 hhcurveto
          endchar
        </CharString>
        <CharString name="at.003">
          -64 51 103 39 182 41 110 50 hstem
          18 56 84 46 181 46 vstem
          436 311 rmoveto
          61 hlineto
          5 41 rlineto
          -63 hlineto
          1 16 rlineto
          72 4 -61 72 -104 hhcurveto
          -125 -128 -90 -195 -8 hvcurveto
          -225 -9 130 -66 100 hhcurveto
          143 60 52 79 callgsubr
          vhcurveto
          -75 1 -104 31 7 200 rrcurveto
          161 6 97 82 92 hhcurveto
          61 67 -35 -64 -5 hvcurveto
          -14 -223 rlineto
          -3 vlineto
          -5 -9 -10 -3 -6 callgsubr
          27 19 79 callsubr
          27 17 8 8 11 5 callsubr
          -169 161 rmoveto
          23 13 -15 -4 4 hvcurveto
          -13 -142 rlineto
          -12 -10 -16 -15 -18 hhcurveto
          20 callgsubr
          endchar
        </CharString>
        <CharString name="at.004">
          -59 51 99 43 185 41 98 50 hstem
          25 57 76 46 -46 184 93 54 vstem
          435 272 rmoveto
          -125 -6 -36 -13 -27 hhcurveto
          -27 -4 21 25 1 hvcurveto
          12 174 rlineto
          -30 hlineto
          -9 -25 rlineto
          12 -11 -22 19 -22 hhcurveto
          -50 -40 -53 -94 -6 hvcurveto
          -84 -5 29 -38 48 hhcurveto
          32 21 24 16 10 hvcurveto
          -25 9 20 -16 38 hhcurveto
          57 67 47 116 5 hvcurveto
          156 7 -40 99 -166 hhcurveto
          -140 -117 -88 -195 -8 hvcurveto
          -207 -8 97 -77 131 hhcurveto
          121 67 50 0 hvcurveto
          -12 49 rlineto
          0 -52 -48 -117 vhcurveto
          -114 -1 -62 61 6 176 rrcurveto
          161 5 96 69 97 hhcurveto
          110 52 -41 -145 -7 hvcurveto
          -177 47 rmoveto
          19 16 -15 -5 5 hvcurveto
          -10 -123 rlineto
          -1 -5 0 -5 -5 vvcurveto
          -12 -9 -17 -18 -20 hhcurveto
          20 callgsubr
          endchar
        </CharString>
        <CharString name="atilde">
          -16 callsubr
          113 83 callgsubr
          40 111 181 103 hintmask 11110110
          -107 callsubr
          160 716 -8 callgsubr
          hintmask 11101110
          -39 -29 42 -60 hhcurveto
          -39 -37 -28 -29 -30 hvcurveto
          45 -55 rlineto
          17 18 23 14 17 hhcurveto
          hintmask 11110110
          56 callgsubr
        </CharString>
        <CharString name="atilde.sc">
          21 -21 93 90 381 83 callgsubr
          hintmask 11010000
          -61 callsubr
          -180 203 rmoveto
          45 -55 rlineto
          17 18 23 14 17 hhcurveto
          hintmask 11100000
          -64 callsubr
          -41 56 rlineto
          -20 callgsubr
          hhcurveto
          hintmask 11010000
          -39 -29 42 -60 hhcurveto
          -39 -37 -28 -29 -30 hvcurveto
          endchar
        </CharString>
        <CharString name="b">
          -11 97 300 97 184 -20 hstem
          57 103 201 111 vstem
          57 hmoveto
          100 hlineto
          2 20 rlineto
          -13 27 43 -18 37 hhcurveto
          113 93 64 182 167 -55 81 -141 -38 -45 -20 -23 -33 hvcurveto
          227 -103 vlineto
          206 -281 rmoveto
          77 21 -64 -87 -97 -25 -52 -74 -35 -43 18 12 -24 hvcurveto
          225 vlineto
          30 36 31 15 36 hhcurveto
          endchar
        </CharString>
        <CharString name="b.001">
          -10 52 385 52 185 -20 hstem
          76 53 251 57 vstem
          129 664 rmoveto
          -53 -662 hlineto
          -8 51 59 -4 45 hhcurveto
          141 65 89 157 162 -48 81 -139 -34 -57 -25 -15 -30 hvcurveto
          116 -12 rmoveto
          106 29 -61 -130 -129 -48 -65 -102 -23 -55 4 3 -23 hvcurveto
          340 vlineto
          14 25 58 24 33 hhcurveto
          endchar
        </CharString>
        <CharString name="b.002">
          21 -21 75 -20 348 89 175 -20 hstem
          57 103 235 111 vstem
          500 265 rmoveto
          -895 40 callsubr
          902 hlineto
          endchar
        </CharString>
        <CharString name="b.sc">
          0 90 129 90 118 90 hstemhm
          71 104 164 105 -92 106 hintmask 11110100
          71 hmoveto
          179 hlineto
          140 70 39 112 -2 hvcurveto
          -2 87 -41 25 -60 6 rrcurveto
          hintmask 11111000
          54 9 35 46 59 vvcurveto
          98 -47 36 -140 vhcurveto
          -186 hlineto
          hintmask 11110100
          281 -363 rmoveto
          -44 -20 -20 -65 vhcurveto
          -92 129 80 hlineto
          75 22 -17 -48 hvcurveto
          hintmask 11111000
          -13 220 rmoveto
          -43 -18 -22 -68 vhcurveto
          -78 118 90 hlineto
          56 18 -12 -41 hvcurveto
          endchar
        </CharString>
        <CharString name="backslash">
          -39 -21 777 -20 hstem
          2 669 rmoveto
          414 -729 82 49 -414 728 rlineto
          endchar
        </CharString>
        <CharString name="bar">
          80 callsubr
          199 103 328 36 vstem
          302 743 rmoveto
          -103 -987 103 hlineto
          endchar
        </CharString>
        <CharString name="bar.black">
          57 callgsubr
          226 50 226 vstem
          -1 -199 rmoveto
          226 999 -226 hlineto
          276 -999 rmoveto
          226 999 -226 hlineto
          endchar
        </CharString>
        <CharString name="bar.white">
          -33 callgsubr
          226 47 vstem
          -1 757 rmoveto
          227 -912 -227 52 callgsubr
          -228 912 228 43 -7 callsubr
          endchar
        </CharString>
        <CharString name="braceleft">
          -156 80 789 80 hstem
          184 139 vstem
          104 285 rmoveto
          90 -43 rlineto
          -137 -10 -71 -91 vvcurveto
          -78 47 -21 51 vhcurveto
          108 80 -67 hlineto
          -36 -14 10 34 hvcurveto
          96 10 88 137 vvcurveto
          -86 33 rlineto
          8 vlineto
          86 34 rlineto
          150 -10 71 83 vvcurveto
          35 11 10 39 vhcurveto
          67 80 -108 hlineto
          -51 -47 -21 -78 hvcurveto
          -78 10 -59 -150 vvcurveto
          -90 -39 rlineto
          endchar
        </CharString>
        <CharString name="braceleft.center.2">
          -206 92 hstem
          16 106 213 109 vstem
          186 820 rmoveto
          -872 vlineto
          13 callsubr
          55 35 hlineto
          -87 37 rlineto
          4 vlineto
          87 37 rlineto
          907 vlineto
          endchar
        </CharString>
        <CharString name="braceleft.center.3">
          -11 91 314 89 hstem
          69 104 143 104 vstem
          186 820 rmoveto
          -420 vlineto
          13 callsubr
          -472 55 507 vlineto
          -87 37 rlineto
          4 vlineto
          87 37 rlineto
          455 vlineto
          endchar
        </CharString>
        <CharString name="braceleft.down">
          16 callgsubr
          186 820 rmoveto
          -565 -10 -270 30 callgsubr
          282 542 vvcurveto
          endchar
        </CharString>
        <CharString name="braceleft.down.1">
          16 callgsubr
          222 1020 rmoveto
          -565 -10 -844 30 callgsubr
          856 542 vvcurveto
          endchar
        </CharString>
        <CharString name="braceleft.down.2">
          9 callgsubr
          hstem
          156 717 rmoveto
          4 vlineto
          87 37 rlineto
          35 -55 vlineto
          13 callsubr
          -2 -462 -7 -214 -71 vvcurveto
          -77 46 -21 51 vhcurveto
          107 52 -100 hlineto
          -29 -17 16 36 76 5 234 1 466 hvcurveto
          endchar
        </CharString>
        <CharString name="braceleft.down.3">
          -49 callgsubr
          223 55 vstem
          241 365 rmoveto
          455 -55 -420 vlineto
          13 callsubr
          -150 -9 -116 -78 vvcurveto
          -78 44 -21 51 vhcurveto
          109 52 -103 hlineto
          -25 -18 16 37 hvcurveto
          83 6 140 150 vvcurveto
          -87 37 rlineto
          4 vlineto
          endchar
        </CharString>
        <CharString name="braceleft.up">
          50 callgsubr
          241 -220 rmoveto
          -1 542 -5 285 82 49 callsubr
          -78 8 -272 1 -565 hvcurveto
          endchar
        </CharString>
        <CharString name="braceleft.up.1">
          50 callgsubr
          277 -565 rmoveto
          542 -6 856 82 vvcurveto
          37 15 16 29 vhcurveto
          102 52 -107 hlineto
          -51 -47 -21 -77 hvcurveto
          -78 10 -844 -565 vvcurveto
          endchar
        </CharString>
        <CharString name="braceleft.up.2">
          9 callgsubr
          hstem
          243 -87 rmoveto
          -1 466 -5 234 76 49 callsubr
          -71 7 -214 2 -462 hvcurveto
          13 callsubr
          55 35 hlineto
          -87 37 rlineto
          4 vlineto
          87 37 rlineto
          endchar
        </CharString>
        <CharString name="braceleft.up.3">
          0 -20 41 -21 92 -20 135 82 0 -20 206 -20 hstem
          -4 104 -49 173 178 100 vstem
          154 324 rmoveto
          4 vlineto
          87 37 rlineto
          150 -6 90 83 vvcurveto
          37 18 16 25 vhcurveto
          103 52 -109 hlineto
          -51 -44 -21 -78 hvcurveto
          -78 9 -66 -150 vvcurveto
          13 callsubr
          -472 55 507 vlineto
          endchar
        </CharString>
        <CharString name="braceright">
          -156 80 789 80 hstem
          171 139 vstem
          104 -156 rmoveto
          108 hlineto
          51 47 21 78 hvcurveto
          91 -10 71 137 vvcurveto
          90 43 rlineto
          83 vlineto
          -90 39 rlineto
          150 10 59 78 vvcurveto
          78 -47 21 -51 vhcurveto
          -108 -80 67 hlineto
          39 11 -10 -35 hvcurveto
          -83 -10 -71 -150 vvcurveto
          86 -34 rlineto
          -8 vlineto
          -86 -33 rlineto
          -137 10 -88 -96 vvcurveto
          -34 -14 -10 -36 vhcurveto
          -67 hlineto
          endchar
        </CharString>
        <CharString name="braceright.center.2">
          0 92 291 92 hstem
          259 820 rmoveto
          -907 vlineto
          87 -37 rlineto
          -4 vlineto
          -87 -37 rlineto
          -35 55 vlineto
          -1 callsubr
          872 vlineto
          endchar
        </CharString>
        <CharString name="braceright.center.3">
          0 92 383 -20 hstem
          259 820 rmoveto
          -455 vlineto
          87 -37 rlineto
          -4 vlineto
          -87 -37 rlineto
          -507 55 472 vlineto
          -1 callsubr
          420 vlineto
          endchar
        </CharString>
        <CharString name="braceright.down">
          -49 callsubr
          259 820 rmoveto
          -542 6 -282 29 callsubr
          270 565 vvcurveto
          endchar
        </CharString>
        <CharString name="braceright.down.1">
          -49 callsubr
          222 1020 rmoveto
          -542 6 -856 29 callsubr
          844 565 vvcurveto
          endchar
        </CharString>
        <CharString name="braceright.down.2">
          -49 callgsubr
          259 680 rmoveto
          1 -466 5 -234 -76 vvcurveto
          -36 -17 -16 -29 vhcurveto
          -100 -52 107 hlineto
          51 46 21 77 71 -7 214 -2 462 hvcurveto
          -1 callsubr
          -55 -35 hlineto
          87 -37 rlineto
          -4 vlineto
          endchar
        </CharString>
        <CharString name="braceright.down.3">
          0 47 560 48 hstem
          346 328 rmoveto
          -4 vlineto
          -87 -37 rlineto
          -150 6 -140 -83 vvcurveto
          -37 -18 -16 -25 vhcurveto
          -103 -52 109 hlineto
          51 44 21 78 hvcurveto
          78 -9 116 150 vvcurveto
          -1 callsubr
          420 -55 -455 vlineto
          endchar
        </CharString>
        <CharString name="braceright.up">
          -11 98 295 93 12 callsubr
          314 -220 rmoveto
          1 565 8 272 78 51 callsubr
          -82 -5 -285 -1 -542 hvcurveto
          endchar
        </CharString>
        <CharString name="braceright.up.1">
          -11 98 295 93 12 callsubr
          277 -565 rmoveto
          565 10 844 78 vvcurveto
          77 -47 21 -51 vhcurveto
          -107 -52 102 hlineto
          29 15 -16 -37 hvcurveto
          -82 -6 -856 -542 vvcurveto
          endchar
        </CharString>
        <CharString name="braceright.up.2">
          -49 callgsubr
          259 -87 rmoveto
          87 -37 rlineto
          -4 vlineto
          -87 -37 rlineto
          -35 55 vlineto
          -1 callsubr
          2 462 7 214 71 51 callsubr
          -76 -5 -234 -1 -466 hvcurveto
          endchar
        </CharString>
        <CharString name="braceright.up.3">
          20 -21 477 -20 hstem
          259 287 rmoveto
          -507 55 472 vlineto
          -1 callsubr
          150 9 66 78 vvcurveto
          78 -44 21 -51 vhcurveto
          -109 -52 103 hlineto
          25 18 -16 -37 hvcurveto
          -83 -6 -90 -150 vvcurveto
          87 -37 rlineto
          -4 vlineto
          endchar
        </CharString>
        <CharString name="bracket.center.1">
          80 callsubr
          223 53 354 36 vstem
          222 1020 rmoveto
          -1585 55 1585 vlineto
          endchar
        </CharString>
        <CharString name="bracketleft">
          -156 94 761 94 hstem
          166 105 vstem
          166 -156 rmoveto
          214 94 -109 761 109 94 -214 hlineto
          endchar
        </CharString>
        <CharString name="bracketleft.center">
          21 -21 582 52 hstem
          241 820 rmoveto
          -55 -1040 55 hlineto
          endchar
        </CharString>
        <CharString name="bracketleft.down">
          19 callsubr
          241 820 rmoveto
          -55 -1011 206 48 -151 hlineto
          endchar
        </CharString>
        <CharString name="bracketleft.down.1">
          19 callsubr
          277 1020 rmoveto
          -55 -1585 206 48 -151 hlineto
          endchar
        </CharString>
        <CharString name="bracketleft.up">
          54 callgsubr
          241 745 rmoveto
          151 48 -206 -1013 55 hlineto
          endchar
        </CharString>
        <CharString name="bracketleft.up.1">
          54 callgsubr
          277 972 rmoveto
          151 48 -206 -1585 55 hlineto
          endchar
        </CharString>
        <CharString name="bracketright">
          -156 94 761 94 hstemhm
          120 214 -105 105 hintmask 11100000
          120 -156 rmoveto
          214 949 -214 -94 hlineto
          hintmask 11010000
          109 -761 hlineto
          hintmask 11100000
          -109 hlineto
          endchar
        </CharString>
        <CharString name="bracketright.center">
          -6 80 hstem
          85 64 vstem
          314 820 rmoveto
          -55 -1040 55 hlineto
          endchar
        </CharString>
        <CharString name="bracketright.down">
          35 callgsubr
          259 -143 rmoveto
          -151 -48 206 1011 -55 hlineto
          endchar
        </CharString>
        <CharString name="bracketright.down.1">
          35 callgsubr
          222 -517 rmoveto
          -151 -48 206 1585 -55 hlineto
          endchar
        </CharString>
        <CharString name="bracketright.up">
          -13 97 302 97 hstem
          42 111 194 111 vstem
          259 -220 rmoveto
          55 1013 -206 -48 151 hlineto
          endchar
        </CharString>
        <CharString name="bracketright.up.1">
          -13 97 302 97 hstem
          42 111 194 111 vstem
          222 -565 rmoveto
          55 1585 -206 -48 151 hlineto
          endchar
        </CharString>
        <CharString name="brokenbar">
          -223 -21 440 -20 146 34 hstem
          198 103 329 36 vstem
          301 196 rmoveto
          -103 -440 103 hlineto
          987 vmoveto
          -103 -440 103 hlineto
          endchar
        </CharString>
        <CharString name="bullet">
          6 callsubr
        </CharString>
        <CharString name="bullet.001">
          6 callsubr
        </CharString>
        <CharString name="bullet.black">
          57 callgsubr
          214 74 214 vstem
          287 259 rmoveto
          -74 80 74 hlineto
          -288 -538 13 callgsubr
          endchar
        </CharString>
        <CharString name="bullet.white">
          -199 44 414 80 418 43 hstem
          213 74 vstem
          287 339 rmoveto
          -74 -80 74 hlineto
          -288 498 -80 callgsubr
          endchar
        </CharString>
        <CharString name="c">
          55 callsubr
          431 465 rmoveto
          12 -40 -69 8 -41 hhcurveto
          -153 -69 -90 -158 -182 90 -68 133 45 62 8 12 42 hvcurveto
          -15 96 rlineto
          -11 -39 -68 -7 -28 hhcurveto
          -91 -20 69 83 112 42 38 69 33 61 -7 -11 41 hvcurveto
          endchar
        </CharString>
        <CharString name="c.001">
          55 callsubr
          500 265 rmoveto
          -902 41 callgsubr
          895 hlineto
          endchar
        </CharString>
        <CharString name="c.calt">
          -13 98 302 98 hstem
          59 111 vstem
          -84 callgsubr
          endchar
        </CharString>
        <CharString name="c.sc">
          -10 92 349 92 hstem
          61 107 163 104 vstem
          -88 callgsubr
          endchar
        </CharString>
        <CharString name="c_k">
          -107 0 88 -76 -21 397 93 -6 -20 63 93 hstemhm
          56 110 156 103 129 103 hintmask 10011111
          802 253 rmoveto
          36 55 88 112 34 55 -120 -1 rcurveline
          -31 -48 -49 -79 -44 -57 -59 -10 rcurveline
          85 vlineto
          158 54 2 68 vhcurveto
          98 vlineto
          -55 -54 0 -20 -34 hvcurveto
          4 -23 -80 4 -18 hhcurveto
          -116 -71 -52 -82 hvcurveto
          hintmask 01101111
          5 -29 -20 -1 -22 hhcurveto
          -133 -68 -86 -158 -202 96 -44 137 45 52 5 16 42 hvcurveto
          -15 92 rlineto
          hintmask 10101111
          -13 -45 -62 -3 -18 hhcurveto
          -88 -34 36 113 117 39 34 59 23 8 2 -6 27 hvcurveto
          -86 103 104 vlineto
          96 21 20 90 vhcurveto
          38 hlineto
          -18 -21 -2 -100 -82 vvcurveto
          -315 103 194 vlineto
          64 9 40 -56 51 -95 32 -52 rlinecurve
          122 hlineto
          -42 66 -89 126 -33 61 rrcurveto
          endchar
        </CharString>
        <CharString name="c_t">
          -107 -10 93 305 93 -37 92 -80 96 107 -20 hstemhm
          59 105 161 103 192 103 hintmask 11001111
          59 237 rmoveto
          -165 69 -82 153 45 63 9 13 42 vhcurveto
          -15 89 rlineto
          44 callgsubr
          13 14 -1 -3 17 hvcurveto
          -86 103 82 vlineto
          hintmask 10011111
          65 47 11 45 vhcurveto
          hintmask 10101111
          46 54 -12 0 hvcurveto
          -261 vlineto
          -25 callgsubr
          261 187 92 -187 123 vlineto
          -103 -10 rlineto
          -112 vlineto
          hintmask 10011111
          0 -54 13 -43 2 vhcurveto
          -99 1 -56 -29 -19 -48 rrcurveto
          hintmask 11001111
          3 -27 -27 2 -17 hhcurveto
          -148 -71 -76 -168 hvcurveto
          endchar
        </CharString>
        <CharString name="cacute">
          55 callsubr
          -84 callgsubr
          -188 250 -79 callgsubr
          endchar
        </CharString>
        <CharString name="cacute.sc">
          -7 95 330 87 hstem
          65 102 164 102 vstem
          -88 callgsubr
          96 353 -79 callgsubr
          endchar
        </CharString>
        <CharString name="ccaron">
          55 callsubr
          -84 callgsubr
          120 338 -77 callgsubr
          endchar
        </CharString>
        <CharString name="ccaron.sc">
          -7 95 330 87 hstem
          65 102 164 102 vstem
          -88 callgsubr
          168 287 -63 callsubr
        </CharString>
        <CharString name="ccedilla">
          75 callsubr
          29 98 303 97 hstemhm
          59 111 134 74 -52 98 hintmask 11111010
          -84 callgsubr
          hintmask 11111100
          52 -532 -66 callsubr
          endchar
        </CharString>
        <CharString name="ccedilla.sc">
          -257 71 75 69 32 92 349 92 hstemhm
          61 107 128 77 -42 104 hintmask 11111010
          -88 callgsubr
          hintmask 11111100
          235 -412 -23 callgsubr
        </CharString>
        <CharString name="ccircumflex">
          55 callsubr
          -84 callgsubr
          -29 361 -75 callsubr
        </CharString>
        <CharString name="ccircumflex.sc">
          -7 95 330 87 hstem
          65 102 164 102 vstem
          -88 callgsubr
          52 342 rmoveto
          45 -65 120 83 120 -82 45 68 -119 83 rlineto
          -92 hlineto
          endchar
        </CharString>
        <CharString name="cdotaccent">
          55 callsubr
          -84 callgsubr
          -122 263 -69 callsubr
          endchar
        </CharString>
        <CharString name="cdotaccent.sc">
          -7 95 330 87 hstem
          65 102 164 102 vstem
          -88 callgsubr
          152 373 -41 callsubr
        </CharString>
        <CharString name="cent">
          -72 66 -1 90 305 90 71 -20 hstemhm
          59 105 hintmask 10111000
          59 237 rmoveto
          -144 52 -81 115 -18 vhcurveto
          -66 102 vlineto
          hintmask 01111000
          65 vlineto
          36 3 38 7 29 9 -15 89 rcurveline
          44 callgsubr
          60 64 -19 0 hvcurveto
          23 93 rlineto
          0 -42 11 -58 5 vhcurveto
          71 -102 -72 vlineto
          -113 -17 -54 -76 -147 vvcurveto
          endchar
        </CharString>
        <CharString name="cent.calt">
          -73 -21 81 99 236 34 30 97 80 -20 hstem
          59 103 105 95 48 14 206 36 vstem
          362 563 rmoveto
          -95 hlineto
          -10 -81 rlineto
          -144 -6 -54 -80 -160 vvcurveto
          -130 44 -82 97 -27 vhcurveto
          -10 -91 rlineto
          97 hlineto
          9 81 43 2 54 8 38 10 rlinecurve
          -15 96 -31 -9 -44 -6 -33 -2 rlinecurve
          33 296 21 -3 24 -4 24 -6 rlinecurve
          14 95 -18 5 -27 4 -27 4 rlinecurve
          -190 -241 rmoveto
          86 24 48 60 12 vhcurveto
          -33 -279 rlineto
          -35 23 -16 46 64 vvcurveto
          endchar
        </CharString>
        <CharString name="circle.black">
          -107 14 callgsubr
          499 800 -90 callgsubr
        </CharString>
        <CharString name="circle.white">
          -107 -33 callgsubr
          0 45 909 45 vstem
          500 800 rmoveto
          -106 callgsubr
        </CharString>
        <CharString name="closed.black">
          14 callgsubr
          -68 callsubr
          endchar
        </CharString>
        <CharString name="closed.white">
          56 callsubr
          46 410 46 vstem
          501 800 -86 callgsubr
        </CharString>
        <CharString name="clover.left">
          -357 546 -20 hstem
          709 306 rmoveto
          -59 -54 -94 135 -42 54 -74 12 rlinecurve
          -61 9 -63 -63 36 -76 rrcurveto
          -25 13 -20 11 0 vvcurveto
          -11 6 -12 4 -11 4 33 75 -30 67 -48 43 -19 -21 rcurveline
          38 -30 25 -62 -31 -65 -64 10 -65 -23 -43 -48 -5 3 rcurveline
          -9 5 -22 14 0 vvcurveto
          -18 -22 9 -10 13 -8 12 -6 rlinecurve
          74 -40 91 23 45 69 11 -4 12 -4 11 -6 45 -24 rcurveline
          -111 -65 57 -135 130 -8 119 -9 86 73 117 124 rrcurveto
          -635 20 rmoveto
          33 30 45 17 45 -3 -30 -37 -47 -16 -46 9 rrcurveto
          endchar
        </CharString>
        <CharString name="colon">
          -6 80 hstem
          85 64 vstem
          175 hmoveto
          74 callsubr
          145 vmoveto
          74 callsubr
          endchar
        </CharString>
        <CharString name="colon.bi">
          -857 0 102 201 102 hstem
          79 92 vstem
          79 77 callgsubr
          92 102 -92 hlineto
          endchar
        </CharString>
        <CharString name="comma">
          -122 -21 hstem
          173 hmoveto
          7 callgsubr
        </CharString>
        <CharString name="comma.bi">
          -857 -122 -21 164 -21 112 -20 hstem
          72 95 vstem
          72 hmoveto
          40 38 callsubr
          82 -95 vlineto
          endchar
        </CharString>
        <CharString name="copyright">
          -6 60 73 67 162 67 66 60 hstem
          10 61 60 74 222 63 vstem
          10 270 rmoveto
          -170 76 -106 165 144 95 89 187 191 -83 88 -156 -157 -84 -101 -178 vhcurveto
          61 hmoveto
          154 67 65 114 119 56 -57 -162 -164 -65 -52 -110 -113 -68 58 158 vhcurveto
          60 hmoveto
          -109 41 -34 89 41 41 16 0 vhcurveto
          -16 63 rlineto
          0 -43 -12 -22 -43 -14 16 61 66 12 19 42 8 36 -4 -8 24 vhcurveto
          16 63 rlineto
          9 -27 -30 7 -33 hhcurveto
          -90 -32 -44 -109 hvcurveto
          endchar
        </CharString>
        <CharString name="cornersleft.black">
          -17 callsubr
          413 -199 rmoveto
          87 999 -87 hlineto
          endchar
        </CharString>
        <CharString name="cornersleft.white">
          -17 callsubr
          459 757 rmoveto
          41 43 -87 -999 87 44 -41 hlineto
          endchar
        </CharString>
        <CharString name="cornersright.black">
          47 callgsubr
          86 800 rmoveto
          -87 -999 87 hlineto
          endchar
        </CharString>
        <CharString name="cornersright.white">
          47 callgsubr
          40 -155 rmoveto
          -41 -44 87 999 -87 -43 41 hlineto
          endchar
        </CharString>
        <CharString name="currency">
          116 -21 521 -20 hstem
          154 538 rmoveto
          -71 78 -69 -55 69 -81 -56 -66 0 -110 55 -68 rlinecurve
          -72 -84 72 -57 72 81 71 -34 43 -2 76 36 rlinecurve
          71 -80 70 56 -72 84 55 67 -1 111 -56 66 rlinecurve
          70 81 -69 55 -70 -78 -68 33 -58 1 -62 -34 rlinecurve
          8 -263 rmoveto
          -42 39 0 84 42 42 49 49 73 -4 47 -45 41 -40 2 -81 -43 -44 -53 -48 -70 5 -46 43 rrcurveto
          endchar
        </CharString>
        <CharString name="d">
          -11 96 -75 -21 398 96 184 -20 hstem
          42 111 201 102 vstem
          456 667 9 callsubr
          51 43 23 24 33 hvcurveto
          9 -46 -4 callgsubr
        </CharString>
        <CharString name="d.001">
          10 -21 399 95 184 -20 hstem
          16 111 228 103 vstem
          48 264 rmoveto
          151 -48 -206 vlineto
          500 1 rlineto
          55 vlineto
          endchar
        </CharString>
        <CharString name="d.sc">
          0 93 331 93 hstem
          64 104 165 107 -23 callsubr
          endchar
        </CharString>
        <CharString name="dagger">
          -96 -21 600 85 190 -20 hstem
          204 93 vstem
          26 483 rmoveto
          183 2 -5 -602 rlineto
          93 hlineto
          -5 601 183 -1 rlineto
          85 vlineto
          -183 -3 5 193 rlineto
          -93 hlineto
          5 -193 -183 3 rlineto
          endchar
        </CharString>
        <CharString name="daggerdbl">
          -96 -21 188 87 326 -20 104 0 190 -20 hstem
          209 82 vstem
          26 71 rmoveto
          183 6 -6 -194 rlineto
          94 hlineto
          -6 193 184 -3 rlineto
          86 vlineto
          -182 -3 rlineto
          328 vlineto
          182 -2 rlineto
          86 vlineto
          -184 -3 7 193 rlineto
          -94 hlineto
          5 -192 -183 2 rlineto
          -85 vlineto
          183 2 rlineto
          -328 vlineto
          -183 1 rlineto
          endchar
        </CharString>
        <CharString name="dcaron">
          0 460 -232 439 8 -20 33 -21 hstemhm
          284 92 45 78 hintmask 01001100
          376 667 rmoveto
          -101 hlineto
          hintmask 10101100
          -207 vlineto
          12 -26 -23 11 -34 hhcurveto
          hintmask 01001100
          -101 -75 -73 -182 -181 55 -58 105 46 25 23 24 29 hvcurveto
          8 -46 rlineto
          hintmask 10101100
          101 10 -9 83 rlineto
          hintmask 10011100
          -194 2 rmoveto
          hintmask 01001100
          -57 -9 66 77 106 19 53 62 29 26 -13 -12 23 hvcurveto
          -223 vlineto
          -30 -33 -19 -24 -41 hhcurveto
          228 503 rmoveto
          36 hlineto
          -3 -35 36 callsubr
          41 51 vvcurveto
          70 -89 vlineto
          endchar
        </CharString>
        <CharString name="dcaron.sc">
          0 89 320 89 hstem
          66 101 168 99 -23 callsubr
          -154 294 -63 callsubr
        </CharString>
        <CharString name="dcroat">
          0 602 -566 631 21 -21 hstemhm
          227 0 138 91 hintmask 10111000
          227 602 rmoveto
          -73 273 73 vlineto
          -44 65 9 callsubr
          hvcurveto
          hintmask 01011000
          51 43 23 24 33 hvcurveto
          9 -46 rlineto
          hintmask 01111000
          -4 callgsubr
        </CharString>
        <CharString name="dcroat.sc">
          -42 callsubr
        </CharString>
        <CharString name="degree">
          420 70 134 69 hstem
          108 76 131 76 vstem
          108 557 rmoveto
          -78 60 -59 80 85 58 58 79 78 -59 58 -81 -81 -62 -57 -79 vhcurveto
          207 -2 rmoveto
          -38 -29 -27 -36 -41 -25 27 41 41 26 25 38 43 24 -25 -44 vhcurveto
          endchar
        </CharString>
        <CharString name="divide">
          67 130 hstem
          186 122 vstem
          186 130 rmoveto
          -41 23 -22 38 38 23 22 41 40 -23 27 -38 -38 -23 -27 -40 vhcurveto
          303 vmoveto
          -40 23 -23 38 38 23 23 40 40 -23 27 -38 -38 -23 -27 -40 vhcurveto
          -131 -197 rmoveto
          390 96 -390 hlineto
          endchar
        </CharString>
        <CharString name="divide.calt">
          63 110 48 93 42 110 hstem
          194 106 vstem
          194 411 rmoveto
          -32 19 -23 34 32 21 23 32 33 -19 22 -34 -31 -22 -20 -35 vhcurveto
          -119 -190 rmoveto
          349 93 -349 hlineto
          119 -196 rmoveto
          -32 22 -23 31 29 24 20 35 36 -22 19 -31 -31 -22 -23 -32 vhcurveto
          endchar
        </CharString>
        <CharString name="dollar">
          -71 -21 85 84 245 34 199 88 82 -20 hstem
          37 104 42 100 64 104 179 36 vstem
          451 175 rmoveto
          129 -69 34 -123 33 vhcurveto
          -75 20 -43 29 52 vvcurveto
          88 85 -5 26 41 85 -21 -12 36 vhcurveto
          23 88 -44 16 -70 16 -31 1 rlinecurve
          82 -101 -85 vlineto
          -63 -4 -91 -51 -105 vvcurveto
          -103 36 -55 143 -41 vhcurveto
          104 -30 28 -12 -1 -70 -1 -70 -65 -27 -60 5 -50 4 -72 17 -40 13 -21 -88 rcurveline
          44 -13 50 -12 51 -5 rrcurveto
          -85 100 85 vlineto
          114 13 54 62 107 vvcurveto
          endchar
        </CharString>
        <CharString name="dotlessi">
          -73 callsubr
          endchar
        </CharString>
        <CharString name="down-leftdiagonalarrow">
          21 -21 269 50 286 50 hstem
          86 55 vstem
          86 448 rmoveto
          -51 -51 rlineto
          -350 350 vlineto
          51 50 rlineto
          -312 hlineto
          317 317 -39 39 -316 -317 rlineto
          endchar
        </CharString>
        <CharString name="down-rightdiagonalarrow">
          0 48 261 48 250 48 hstem
          82 55 vstem
          406 136 rmoveto
          -317 317 -39 -39 317 -317 rlineto
          -312 hlineto
          51 -50 rlineto
          350 350 hlineto
          -50 51 rlineto
          endchar
        </CharString>
        <CharString name="downarrow">
          -9 52 570 52 hstem
          55 59 270 55 vstem
          498 238 rmoveto
          71 vlineto
          -221 -220 rlineto
          396 -55 -396 vlineto
          -220 220 rlineto
          -71 vlineto
          248 -248 rlineto
          endchar
        </CharString>
        <CharString name="downarrow.circleleft.bl">
          -70 callsubr
          255 166 21 callsubr
          119 407 -83 callsubr
          endchar
        </CharString>
        <CharString name="downarrow.circleleft.wt">
          -70 callsubr
          382 393 2 callgsubr
          246 -321 -102 callgsubr
        </CharString>
        <CharString name="downarrow.circleright.bl">
          -70 callsubr
          200 166 21 callsubr
          -328 -592 -100 callgsubr
          endchar
        </CharString>
        <CharString name="downarrow.circleright.wt">
          -50 callgsubr
          310 393 2 callgsubr
          -184 -365 -100 callgsubr
          -63 callgsubr
          hvcurveto
          hintmask 01110110
          -60 callgsubr
        </CharString>
        <CharString name="downarrow.closed.black">
          -36 callsubr
          198 -634 21 callsubr
          endchar
        </CharString>
        <CharString name="downarrow.closed.white">
          -70 callsubr
          375 393 2 callgsubr
          253 634 -86 callgsubr
        </CharString>
        <CharString name="downarrow.small.black">
          -35 callgsubr
          249 -634 21 callsubr
          endchar
        </CharString>
        <CharString name="downarrow.small.white">
          -200 65 874 65 -45 callgsubr
          376 548 2 callgsubr
          endchar
        </CharString>
        <CharString name="downclosed.arrow">
          46 callgsubr
          0 80 840 80 vstem
          460 467 rmoveto
          -420 hlineto
          207 -395 rlineto
          endchar
        </CharString>
        <CharString name="downclosed.arrow.small">
          -70 callsubr
          375 393 2 callgsubr
          endchar
        </CharString>
        <CharString name="e">
          -106 callsubr
          endchar
        </CharString>
        <CharString name="e.001">
          -11 90 192 -20 139 93 hstem
          49 111 185 111 vstem
          500 210 rmoveto
          55 vlineto
          -500 82 callsubr
        </CharString>
        <CharString name="e.sc">
          12 callgsubr
          hstem
          81 104 -71 callsubr
          endchar
        </CharString>
        <CharString name="eacute">
          -106 callsubr
          -124 244 -79 callgsubr
          endchar
        </CharString>
        <CharString name="eacute.sc">
          12 callgsubr
          hstem
          81 104 -71 callsubr
          56 100 -79 callgsubr
          endchar
        </CharString>
        <CharString name="ebreve">
          -106 callsubr
          -7 189 -99 callsubr
          endchar
        </CharString>
        <CharString name="ebreve.sc">
          23 callgsubr
          101 -71 callsubr
          169 44 -99 callsubr
          endchar
        </CharString>
        <CharString name="ecaron">
          -106 callsubr
          159 332 -77 callgsubr
          endchar
        </CharString>
        <CharString name="ecaron.sc">
          23 callgsubr
          104 -71 callsubr
          118 34 -63 callsubr
        </CharString>
        <CharString name="ecircumflex">
          -106 callsubr
          40 355 -75 callsubr
        </CharString>
        <CharString name="ecircumflex.sc">
          12 callgsubr
          24 152 hstemhm
          81 104 vstemhm
          81 hmoveto
          338 93 -234 126 209 90 -209 115 hlineto
          hintmask 11111000
          231 93 -335 hlineto
          3 89 -70 callgsubr
        </CharString>
        <CharString name="edieresis">
          -106 callsubr
          -160 257 -105 callgsubr
          endchar
        </CharString>
        <CharString name="edieresis.sc">
          12 callgsubr
          52 116 hstem
          81 104 -87 114 -71 callsubr
          16 110 -105 callgsubr
          endchar
        </CharString>
        <CharString name="edotaccent">
          -106 callsubr
          -63 257 -69 callsubr
          endchar
        </CharString>
        <CharString name="edotaccent.sc">
          23 callgsubr
          101 -71 callsubr
          102 120 -41 callsubr
        </CharString>
        <CharString name="egrave">
          -106 callsubr
          -76 345 -19 callsubr
        </CharString>
        <CharString name="egrave.sc">
          12 callgsubr
          4 174 hstem
          81 104 -43 224 -71 callsubr
          66 111 -34 callsubr
        </CharString>
        <CharString name="eight">
          -10 52 257 50 242 52 hstemhm
          50 58 -45 56 266 56 hintmask 11101100
          39 176 rmoveto
          -103 65 -83 148 133 81 71 115 74 -38 53 -70 23 vhcurveto
          59 18 36 51 70 vvcurveto
          101 -61 77 -140 vhcurveto
          hintmask 11110100
          -133 -69 -77 -101 -68 38 -47 60 -26 hvcurveto
          -66 -22 -43 -60 -66 vvcurveto
          105 1 rmoveto
          62 38 40 70 72 37 -40 -62 -61 -38 -37 -71 -70 -38 40 58 vhcurveto
          9 288 rmoveto
          53 29 38 70 69 30 -36 -55 -54 -28 -43 -71 -71 -28 46 51 vhcurveto
          endchar
        </CharString>
        <CharString name="eight.002">
          28 callgsubr
          78 992 77 callsubr
          -1107 55 1107 67 callsubr
        </CharString>
        <CharString name="eight.circle.black">
          -67 callsubr
          100 358 -90 callgsubr
        </CharString>
        <CharString name="eight.circle.white">
          -66 callgsubr
          101 358 rmoveto
          -106 callgsubr
        </CharString>
        <CharString name="eight.closed.black">
          -54 callsubr
          101 -48 callgsubr
          -68 callsubr
          200 -265 -98 callgsubr
          endchar
        </CharString>
        <CharString name="eight.closed.white">
          -54 callsubr
          101 -48 callgsubr
          250 -104 callgsubr
          326 397 -86 callgsubr
        </CharString>
        <CharString name="eight.frameleft">
          -54 callsubr
          165 -48 callgsubr
          314 -104 callgsubr
          262 -602 rmoveto
          44 vlineto
          -103 callgsubr
          -30 callgsubr
          vlineto
          endchar
        </CharString>
        <CharString name="eight.frameright">
          -54 callsubr
          37 -48 callgsubr
          186 -104 callgsubr
          390 -602 rmoveto
          999 -502 -43 vlineto
          -92 callsubr
          vlineto
          endchar
        </CharString>
        <CharString name="eight.halfcircleleft.bl">
          -54 callsubr
          157 -48 callgsubr
          306 535 -98 callgsubr
          270 397 -83 callsubr
          endchar
        </CharString>
        <CharString name="eight.halfcircleleft.wt">
          -54 callsubr
          165 -48 callgsubr
          314 -104 callgsubr
          262 -558 -102 callgsubr
        </CharString>
        <CharString name="eight.halfcircleright.bl">
          -54 callsubr
          45 -48 callgsubr
          194 535 -98 callgsubr
          -120 -602 -100 callgsubr
          endchar
        </CharString>
        <CharString name="eight.halfcircleright.wt">
          -11 97 0 62 55 84 -12 60 52 96 -29 60 hstemhm
          37 67 -64 111 -106 66 136 67 18 103 hintmask 0101011001000000
          186 535 rmoveto
          -85 -64 -49 -83 -30 10 -44 44 -25 hvcurveto
          -44 -18 -18 -40 -47 vvcurveto
          -96 58 -38 99 -1 vhcurveto
          100 -2 59 41 96 vvcurveto
          48 -17 39 -48 20 vhcurveto
          44 23 10 44 30 vvcurveto
          83 -61 49 -87 vhcurveto
          -84 -336 rmoveto
          48 32 24 52 55 31 -24 -48 -56 -48 -12 -38 -39 -45 12 56 vhcurveto
          hintmask 0101010011000000
          9 204 rmoveto
          51 40 15 35 35 40 -15 -51 -40 -25 -26 -50 -53 -22 26 40 vhcurveto
          -112 -602 -100 callgsubr
          -63 callgsubr
          hvcurveto
          hintmask 1010100100100000
          -60 callgsubr
        </CharString>
        <CharString name="eight.handle.black">
          -67 callsubr
          601 -597 -103 callsubr
        </CharString>
        <CharString name="eight.handle.white">
          -66 callgsubr
          -400 -641 -107 callgsubr
        </CharString>
        <CharString name="eight.handleleft.bl">
          -54 callsubr
          157 -48 callgsubr
          306 535 -98 callgsubr
          -232 354 -91 callsubr
        </CharString>
        <CharString name="eight.handleleft.wt">
          -54 callsubr
          165 -48 callgsubr
          314 -104 callgsubr
          -240 354 -101 callgsubr
        </CharString>
        <CharString name="eight.handleright.bl">
          -54 callsubr
          45 -48 callgsubr
          194 535 -98 callgsubr
          382 -558 rmoveto
          -294 hlineto
          -105 callsubr
          43 -30 callgsubr
          502 hlineto
          endchar
        </CharString>
        <CharString name="eight.handleright.wt">
          -54 callsubr
          37 -48 callgsubr
          186 -104 callgsubr
          390 397 -102 callsubr
        </CharString>
        <CharString name="eight.onum">
          -10 89 217 89 193 87 hstemhm
          50 94 217 92 -92 105 hintmask 11110100
          39 183 rmoveto
          -103 65 -90 148 133 81 78 115 79 -38 58 -70 23 vhcurveto
          hintmask 11111000
          59 18 36 49 77 vvcurveto
          101 -57 77 -144 -137 -65 -77 -101 -73 38 -47 60 -26 vhcurveto
          -66 -22 -43 -66 -70 vvcurveto
          105 1 rmoveto
          71 38 41 70 72 37 -40 -72 -68 -38 -37 -71 -72 -36 47 58 vhcurveto
          9 303 rmoveto
          56 35 35 64 70 29 -32 -59 -54 -28 -48 -71 -71 -28 51 51 vhcurveto
          endchar
        </CharString>
        <CharString name="eight.small">
          -54 callsubr
          101 -48 callgsubr
          250 -104 callgsubr
          endchar
        </CharString>
        <CharString name="eight.small.black">
          -54 callsubr
          101 -48 callgsubr
          250 535 -98 callgsubr
          -176 -602 13 callgsubr
          endchar
        </CharString>
        <CharString name="eight.small.white">
          -54 callsubr
          101 -48 callgsubr
          250 -104 callgsubr
          -176 354 -80 callgsubr
          endchar
        </CharString>
        <CharString name="ellipsis">
          0 145 hstem
          52 89 64 89 65 89 vstem
          52 hmoveto
          89 145 -89 hlineto
          153 -145 rmoveto
          89 145 -89 hlineto
          154 -145 rmoveto
          89 145 -89 hlineto
          endchar
        </CharString>
        <CharString name="emacron">
          -106 callsubr
          -173 298 -15 callgsubr
          endchar
        </CharString>
        <CharString name="emacron.sc">
          23 callgsubr
          101 -71 callsubr
          19 141 39 callsubr
        </CharString>
        <CharString name="emdash">
          218 97 hstem
          1 218 rmoveto
          499 97 -499 hlineto
          endchar
        </CharString>
        <CharString name="endash">
          218 97 hstem
          70 218 rmoveto
          359 97 -359 hlineto
          endchar
        </CharString>
        <CharString name="eng">
          19 callsubr
          443 287 rmoveto
          135 -50 61 -108 -34 -47 -16 -21 -46 vhcurveto
          -2 29 rlineto
          -100 -475 103 351 hlineto
          21 45 35 14 36 hhcurveto
          42 23 -39 -63 hvcurveto
          -294 vlineto
          -81 -38 4 -124 -18 vhcurveto
          12 -96 rlineto
          146 20 107 1 170 vvcurveto
          endchar
        </CharString>
        <CharString name="eng.sc">
          21 75 callgsubr
          54 94 193 103 vstem
          351 -10 rmoveto
          -81 -38 -6 -114 -18 vhcurveto
          12 -96 rlineto
          136 20 98 11 170 vvcurveto
          527 -94 -312 vlineto
          -209 312 rlineto
          -88 -517 94 365 hlineto
          203 -303 rlineto
          endchar
        </CharString>
        <CharString name="eogonek">
          -262 126 2 0 151 220 hstemhm
          257 143 -61 96 hintmask 11110000
          257 483 rmoveto
          -132 -76 -83 -163 -134 50 -114 169 4 5 0 1 6 hvcurveto
          -47 -30 -22 -47 -47 vvcurveto
          hintmask 11101000
          -99 67 -36 58 26 26 4 3 19 vhcurveto
          hintmask 11110000
          6 callgsubr
          hintmask 11101000
          -1 36 20 32 115 85 -21 87 rcurveline
          -13 -40 -68 -12 -38 hhcurveto
          -69 -33 39 69 -6 hvcurveto
          292 hlineto
          4 74 rlineto
          hintmask 11110000
          148 -3 -76 74 -120 hhcurveto
          -93 vmoveto
          52 36 -31 -88 hvcurveto
          -185 hlineto
          88 4 33 31 60 hhcurveto
          endchar
        </CharString>
        <CharString name="eogonek.sc">
          23 callgsubr
          101 vstem
          81 hmoveto
          232 hlineto
          -61 -28 -30 -53 -53 vvcurveto
          -99 67 -37 -55 callsubr
          30 26 36 18 31 92 69 hvcurveto
          93 -234 126 209 90 -209 115 231 93 -335 vlineto
          endchar
        </CharString>
        <CharString name="equal">
          123 94 74 94 hstem
          35 217 rmoveto
          -94 429 94 vlineto
          -429 168 rmoveto
          -94 429 94 vlineto
          endchar
        </CharString>
        <CharString name="equal.calt">
          123 94 74 94 hstem
          94 123 rmoveto
          312 94 -312 hlineto
          74 vmoveto
          312 94 -312 hlineto
          endchar
        </CharString>
        <CharString name="eth">
          -17 52 300 52 245 11 hstem
          63 58 275 58 vstem
          263 556 rmoveto
          29 -28 22 -30 15 -31 rrcurveto
          6 -23 -28 3 -28 hhcurveto
          -141 -67 -72 -168 -167 65 -82 143 142 65 82 207 148 -37 106 -91 85 hvcurveto
          57 52 -55 55 -62 -59 -26 18 -29 18 -32 17 rlinecurve
          -44 -75 24 -12 22 -13 20 -13 rlinecurve
          -58 -55 52 -50 rlineto
          -45 -262 rmoveto
          102 20 48 77 77 20 -48 -102 -101 -20 -51 -77 -77 -20 51 101 vhcurveto
          endchar
        </CharString>
        <CharString name="eth.calt">
          -10 90 247 90 hstem
          62 106 182 106 vstem
          62 208 rmoveto
          -133 71 -85 123 127 73 73 148 144 -19 91 -48 76 vhcurveto
          69 23 -31 87 -98 -35 -31 31 -37 30 -45 33 rlinecurve
          -67 -78 73 -54 -84 -30 30 -82 128 43 27 -32 16 -34 16 -49 rlinecurve
          27 -19 -37 15 -44 hhcurveto
          -117 -76 -77 -132 hvcurveto
          106 hmoveto
          80 31 39 56 65 30 -35 -82 -101 -27 -29 -67 -59 -29 36 92 vhcurveto
          endchar
        </CharString>
        <CharString name="eth.sc">
          -42 callsubr
        </CharString>
        <CharString name="exclam">
          -6 90 604 -20 hstem
          185 76 -71 66 vstem
          195 -6 rmoveto
          134 137 -134 hlineto
          18 57 rmoveto
          96 hlineto
          12 467 rlineto
          -119 hlineto
          endchar
        </CharString>
        <CharString name="exclam.bi">
          -857 -6 86 608 -20 hstem
          96 57 vstem
          158 688 rmoveto
          -66 hlineto
          9 -500 rlineto
          48 hlineto
          -62 -194 rmoveto
          76 86 -76 hlineto
          endchar
        </CharString>
        <CharString name="exclamdown">
          -192 -20 206 90 hstem
          185 76 -71 66 vstem
          318 502 rmoveto
          -134 -137 134 hlineto
          -18 -57 rmoveto
          -96 hlineto
          -12 -467 rlineto
          119 hlineto
          endchar
        </CharString>
        <CharString name="f">
          -34 callgsubr
          163 385 rmoveto
          -295 -102 -90 375 90 -173 295 171 90 -171 vlineto
          80 15 31 28 callsubr
          -61 -144 hvcurveto
          -98 -90 hlineto
          endchar
        </CharString>
        <CharString name="f.001">
          -34 callgsubr
          -452 264 rmoveto
          151 -48 -206 vlineto
          1000 1 rlineto
          55 vlineto
          endchar
        </CharString>
        <CharString name="f.001.bi">
          -857 58 callgsubr
          hstemhm
          1 240 -171 53 hintmask 11101000
          70 425 rmoveto
          -375 vlineto
          hintmask 11110000
          -69 -50 240 50 hlineto
          hintmask 11101000
          -118 375 131 50 -131 hlineto
          -1 callgsubr
        </CharString>
        <CharString name="f.bi">
          -857 21 -21 425 50 146 52 hstem
          70 53 vstem
          70 425 rmoveto
          -425 53 425 131 50 -131 vlineto
          -1 callgsubr
        </CharString>
        <CharString name="f.calt">
          0 92 291 92 103 94 hstem
          163 103 vstem
          54 hmoveto
          388 92 -176 291 174 92 -174 hlineto
          80 12 23 28 callsubr
          -53 -144 hvcurveto
          -105 -92 105 -291 -109 hlineto
          endchar
        </CharString>
        <CharString name="f.sc">
          21 -21 187 90 147 93 hstem
          82 104 vstem
          82 hmoveto
          104 187 197 90 -197 147 232 93 -336 hlineto
          endchar
        </CharString>
        <CharString name="f_f_b">
          -107 -34 callgsubr
          296 680 rmoveto
          -97 -62 -73 -132 hvcurveto
          -107 -90 107 48 callgsubr
          125 48 callgsubr
          139 -385 96 hlineto
          2 20 rlineto
          -13 27 28 -8 27 hhcurveto
          103 83 55 182 167 -45 72 -131 hvcurveto
          -91 184 hlineto
          0 -104 22 -77 -1 vhcurveto
          -42 -1 -31 -8 -23 -16 rrcurveto
          12 -39 -50 13 -38 hhcurveto
          482 -295 rmoveto
          67 11 -58 -87 -97 -15 -47 -64 -25 -28 8 12 -24 hvcurveto
          269 vlineto
          -238 90 rmoveto
          99 28 12 42 37 32 -6 0 vhcurveto
          -105 vlineto
          -289 116 rmoveto
          19 21 -5 -6 21 hvcurveto
          -8 -29 -3 -35 -41 vvcurveto
          -125 hlineto
          99 33 17 42 vhcurveto
          endchar
        </CharString>
        <CharString name="f_f_i">
          -107 -34 callgsubr
          649 586 rmoveto
          52 107 -19 0 hvcurveto
          17 86 rlineto
          0 -129 27 -70 -37 -29 -8 -16 -23 vhcurveto
          12 -42 -54 12 -44 hhcurveto
          -109 -70 -73 -132 hvcurveto
          -117 -90 117 48 callgsubr
          155 48 callgsubr
          199 -385 99 475 -298 hlineto
          99 30 12 46 vhcurveto
          -236 5 rmoveto
          21 27 -6 -7 24 hvcurveto
          -8 -29 -4 -34 -40 vvcurveto
          -155 hlineto
          99 -1 44 17 52 hhcurveto
          endchar
        </CharString>
        <CharString name="f_f_l">
          -107 -34 callgsubr
          707 -10 callgsubr
          -134 hlineto
          99 28 12 62 37 72 -9 0 vhcurveto
          -577 99 659 vlineto
          0 -144 22 -77 -1 vhcurveto
          -50 -1 -37 -9 -26 -17 rrcurveto
          13 -48 -63 14 -39 hhcurveto
          -107 -72 -73 -132 hvcurveto
          -107 -90 107 48 callgsubr
          165 48 callgsubr
          134 hlineto
          -234 90 rmoveto
          -165 hlineto
          99 43 17 52 23 30 -7 -7 28 vhcurveto
          -8 -29 -3 -34 -39 vvcurveto
          endchar
        </CharString>
        <CharString name="f_i">
          21 -21 385 90 111 94 hstem
          56 99 199 99 vstem
          244 586 rmoveto
          55 103 -20 0 hvcurveto
          15 90 rlineto
          0 -117 24 -70 vhcurveto
          -125 2 -49 -75 -132 vvcurveto
          -50 -90 49 -385 99 385 200 -385 99 475 -298 hlineto
          99 37 12 52 vhcurveto
          endchar
        </CharString>
        <CharString name="f_l">
          21 -21 385 90 111 94 hstem
          96 100 184 99 vstem
          330 -10 callgsubr
          -134 hlineto
          99 34 11 34 1 vhcurveto
          47 1 69 -10 0 vvcurveto
          -577 99 659 vlineto
          0 -138 23 -72 -2 vhcurveto
          -128 -2 -45 -58 -145 vvcurveto
          -95 -90 95 48 callgsubr
          134 hlineto
          endchar
        </CharString>
        <CharString name="fi.001">
          58 callgsubr
          hstem
          180 53 vstem
          152 -10 callgsubr
          99 26 47 80 33 61 -11 -7 29 vhcurveto
          11 52 rlineto
          8 -34 -64 10 -38 -12 callgsubr
          201 -425 119 50 -66 425 hlineto
          endchar
        </CharString>
        <CharString name="fi.002">
          70 callsubr
          216 53 vstem
          263 624 rmoveto
          119 49 -121 42 callsubr
          216 -425 53 475 -269 hlineto
          99 32 50 82 vhcurveto
          endchar
        </CharString>
        <CharString name="five">
          44 callsubr
          468 209 -64 callgsubr
          endchar
        </CharString>
        <CharString name="five.circle.black">
          -52 callsubr
          -219 610 -90 callgsubr
        </CharString>
        <CharString name="five.circle.white">
          -107 -30 95 244 97 117 92 hstem
          331 91 188 108 vstem
          718 190 -64 callgsubr
          -218 610 rmoveto
          -106 callgsubr
        </CharString>
        <CharString name="five.closed.black">
          -47 callsubr
          124 -14 callsubr
          -68 callsubr
          357 -580 -88 callsubr
          endchar
        </CharString>
        <CharString name="five.closed.white">
          -47 callsubr
          124 -14 callsubr
          407 -101 callsubr
          94 580 -86 callgsubr
        </CharString>
        <CharString name="five.frameleft">
          -47 callsubr
          188 -14 callsubr
          471 -101 callsubr
          30 -419 rmoveto
          44 vlineto
          -103 callgsubr
          -30 callgsubr
          vlineto
          endchar
        </CharString>
        <CharString name="five.frameright">
          -47 callsubr
          60 -14 callsubr
          343 -101 callsubr
          158 -419 rmoveto
          999 -502 -43 vlineto
          -92 callsubr
          vlineto
          endchar
        </CharString>
        <CharString name="five.halfcircleleft.bl">
          -47 callsubr
          180 -14 callsubr
          463 220 -88 callsubr
          38 580 -83 callsubr
          endchar
        </CharString>
        <CharString name="five.halfcircleleft.wt">
          -47 callsubr
          188 -14 callsubr
          471 -101 callsubr
          30 -375 -102 callgsubr
        </CharString>
        <CharString name="five.halfcircleright.bl">
          -47 callsubr
          68 -14 callsubr
          351 220 -88 callsubr
          -352 -419 -100 callgsubr
          endchar
        </CharString>
        <CharString name="five.halfcircleright.wt">
          -11 97 -1 63 55 84 24 60 16 96 -36 61 hstemhm
          40 111 -91 60 123 70 19 103 hintmask 0101010110000000
          343 -101 callsubr
          -344 -419 -100 callgsubr
          -63 callgsubr
          hvcurveto
          hintmask 1010101001000000
          -60 callgsubr
        </CharString>
        <CharString name="five.handle.black">
          -52 callsubr
          282 -345 -103 callsubr
        </CharString>
        <CharString name="five.handle.white">
          -107 -30 95 244 97 117 92 hstem
          331 91 188 108 vstem
          718 190 -64 callgsubr
          -719 -389 -107 callgsubr
        </CharString>
        <CharString name="five.handleleft.bl">
          -47 callsubr
          180 -14 callsubr
          463 220 -88 callsubr
          -464 537 -91 callsubr
        </CharString>
        <CharString name="five.handleleft.wt">
          -47 callsubr
          188 -14 callsubr
          471 -101 callsubr
          -472 537 -101 callgsubr
        </CharString>
        <CharString name="five.handleright.bl">
          -47 callsubr
          68 -14 callsubr
          351 220 -88 callsubr
          150 -375 rmoveto
          -294 hlineto
          -105 callsubr
          43 -30 callgsubr
          502 hlineto
          endchar
        </CharString>
        <CharString name="five.handleright.wt">
          -47 callsubr
          60 -14 callsubr
          343 -101 callsubr
          158 580 -102 callsubr
        </CharString>
        <CharString name="five.onum">
          -160 -21 620 91 hstem
          102 98 141 104 vstem
          96 -181 rmoveto
          245 53 104 79 126 vvcurveto
          117 -35 44 -215 43 vhcurveto
          10 158 rlineto
          228 91 -322 hlineto
          -18 -322 rlineto
          220 -40 28 -18 -73 vvcurveto
          -66 -62 -54 -204 -46 vhcurveto
          endchar
        </CharString>
        <CharString name="five.small">
          -47 callsubr
          124 -14 callsubr
          407 -101 callsubr
          endchar
        </CharString>
        <CharString name="five.small.black">
          -47 callsubr
          124 -14 callsubr
          407 220 -88 callsubr
          -408 -419 13 callgsubr
          endchar
        </CharString>
        <CharString name="five.small.white">
          -47 callsubr
          124 -14 callsubr
          407 -101 callsubr
          -408 537 -80 callgsubr
          endchar
        </CharString>
        <CharString name="fl.001">
          -10 52 383 50 146 52 hstem
          99 53 201 53 vstem
          248 -10 callgsubr
          -96 hlineto
          99 26 47 80 31 39 -5 -8 25 vhcurveto
          -511 vlineto
          -69 34 -38 66 12 24 1 3 18 vhcurveto
          -5 51 rlineto
          -2 -18 -14 -1 -13 hhcurveto
          -36 -15 21 36 hvcurveto
          553 vlineto
          9 -34 -62 12 -54 -12 callgsubr
          96 hlineto
          endchar
        </CharString>
        <CharString name="fl.002">
          58 callgsubr
          hstem
          180 53 vstem
          353 hmoveto
          119 50 -66 601 hlineto
          11 -35 -69 11 -46 -12 callgsubr
          86 50 -86 hlineto
          99 26 47 80 25 46 -5 -6 24 vhcurveto
          endchar
        </CharString>
        <CharString name="fl.003">
          70 callsubr
          232 53 vstem
          310 -10 callgsubr
          -161 hlineto
          99 32 50 82 vhcurveto
          118 -624 53 673 -173 42 callsubr
          161 hlineto
          endchar
        </CharString>
        <CharString name="florin">
          -34 callgsubr
          107 6 rmoveto
          -77 -15 -27 -24 -33 hhcurveto
          -8 -97 rlineto
          93 74 62 136 19 hvcurveto
          46 349 rlineto
          141 hlineto
          15 100 rlineto
          -146 hlineto
          89 12 30 22 41 hhcurveto
          26 34 -5 -6 26 hvcurveto
          27 91 rlineto
          10 -31 -43 4 -34 hhcurveto
          -128 -46 -75 -130 -12 hvcurveto
          -66 hlineto
          -16 -100 rlineto
          66 hlineto
          -3 -45 -344 -2 vvcurveto
          endchar
        </CharString>
        <CharString name="florin.alt">
          -4 0 317 92 103 94 hstem
          201 103 vstem
          96 313 rmoveto
          105 -317 hlineto
          4 callgsubr
          317 124 92 -124 0 callgsubr
          -105 hlineto
          endchar
        </CharString>
        <CharString name="flourish.left">
          0 30 351 52 125 54 hstemhm
          180 51 -26 246 -95 55 hintmask 11101000
          384 654 rmoveto
          -28 24 -39 -12 -16 -5 -16 5 -39 12 -29 -24 -18 -15 1 -26 4 -18 -17 5 -32 5 -17 -20 -23 -28 12 -39 5 -17 -5 -16 -12 -39 23 -28 15 -19 26 2 18 4 rrcurveto
          -5 -17 -5 -32 21 -17 28 -24 39 13 16 4 16 -4 39 -13 29 24 18 15 -3 26 -4 18 17 -5 33 -6 18 21 23 29 -12 39 -5 16 5 16 12 39 -23 29 rrcurveto
          -16 18 -26 -3 -18 -4 5 17 6 33 -21 17 rrcurveto
          -181 -542 rmoveto
          -1 1 236 -86 13 244 rrcurveto
          0 -236 62 -10 -175 vhcurveto
          146 -128 rmoveto
          -92 -75 37 59 -52 hvcurveto
          -9 93 20 68 26 58 -28 11 rcurveline
          -19 -44 -13 -42 -6 -54 rrcurveto
          -3 -26 2 -14 -14 vvcurveto
          -7 11 -31 57 -10 30 rrcurveto
          0 -26 -8 -2 -1 vhcurveto
          45 -120 85 -130 195 -1 rrcurveto
          149 30 hlineto
          hintmask 11110100
          -144 466 rmoveto
          -36 -26 -27 -37 -37 -25 27 37 35 27 26 36 36 26 -26 -36 vhcurveto
          -220 -118 rmoveto
          -17 96 -119 -35 0 vvcurveto
          -146 24 118 63 -1 hhcurveto
          160 286 rmoveto
          0 49 22 23 -25 vhcurveto
          17 -19 -14 -38 0 vvcurveto
          -1 vlineto
          19 -21 -28 12 -32 hhcurveto
          -28 -1 -24 -8 -20 -15 -3 12 -5 25 14 14 rrcurveto
          22 25 50 -22 0 vvcurveto
          140 -150 rmoveto
          0 22 -49 -25 -23 vhcurveto
          -18 -16 -33 11 -5 1 rrcurveto
          18 21 11 27 33 vvcurveto
          28 -9 24 -15 20 vhcurveto
          12 3 25 4 14 -12 rrcurveto
          25 -23 -22 -49 0 vvcurveto
          -150 -141 rmoveto
          0 -49 -21 -23 24 vhcurveto
          -16 18 11 35 1 3 rrcurveto
          -18 21 27 -11 33 hhcurveto
          28 25 8 15 19 hvcurveto
          4 -12 4 -24 -13 -14 rrcurveto
          -22 -24 -50 21 0 vvcurveto
          -140 150 rmoveto
          0 -22 50 24 23 vhcurveto
          19 17 38 -14 0 vvcurveto
          -20 -21 -11 -28 1 -32 rrcurveto
          -28 8 -25 15 -19 vhcurveto
          -12 -3 -24 -5 -14 13 rrcurveto
          -24 23 22 49 0 vvcurveto
          endchar
        </CharString>
        <CharString name="flourish.right">
          0 30 351 52 125 54 hstemhm
          49 246 -206 55 125 51 hintmask 11110000
          116 654 rmoveto
          -21 -17 5 -33 5 -17 -18 4 -26 3 -15 -18 -23 -29 12 -39 5 -16 -5 -16 -12 -39 23 -29 17 -21 33 6 17 5 -4 -18 -2 -26 18 -15 29 -24 39 13 16 4 rrcurveto
          16 -4 39 -13 28 24 20 17 -5 32 -4 17 18 -4 26 -2 15 19 23 28 -12 39 -5 16 5 17 12 39 -23 28 -17 20 -33 -5 -17 -5 4 18 2 26 -18 15 rrcurveto
          -29 24 -39 -12 -16 -5 -16 5 -39 12 -28 -24 rrcurveto
          179 -496 rmoveto
          -10 175 -236 -62 0 vvcurveto
          13 -244 236 86 -1 -1 rrcurveto
          -297 -82 rmoveto
          -30 149 vlineto
          195 1 85 130 45 120 rrcurveto
          -2 1 -26 8 0 vvcurveto
          -10 -30 -31 -57 -7 -11 rrcurveto
          14 2 14 -3 26 vhcurveto
          -6 54 -13 42 -19 44 -28 -11 rcurveline
          26 -58 20 -68 -9 -93 rrcurveto
          -59 -52 -75 -37 -92 hhcurveto
          hintmask 11101100
          -5 466 rmoveto
          36 26 26 36 36 27 -26 -35 -37 -25 -27 -37 -37 -26 27 36 vhcurveto
          215 -140 rmoveto
          -1 118 -63 146 24 hvcurveto
          0 -119 35 -17 -96 vhcurveto
          -165 264 rmoveto
          0 50 22 22 -25 vhcurveto
          13 -14 -4 -25 -4 -12 -19 15 -24 8 -28 1 rrcurveto
          -33 -28 -12 -19 -21 hvcurveto
          1 1 rlineto
          0 -14 38 17 19 vhcurveto
          23 25 49 -22 0 vvcurveto
          -140 -150 rmoveto
          0 -22 49 25 23 vhcurveto
          14 12 25 -4 11 -3 rrcurveto
          -15 -20 -8 -24 -28 vvcurveto
          -33 10 -27 19 -21 vhcurveto
          -5 -1 -34 -11 -17 16 rrcurveto
          -25 23 22 49 0 vvcurveto
          150 -141 rmoveto
          0 -50 -21 -22 24 vhcurveto
          -13 14 4 24 3 12 rrcurveto
          -15 19 25 -8 29 hhcurveto
          32 28 11 18 20 hvcurveto
          1 -3 12 -35 -16 -18 rrcurveto
          -23 -24 -49 21 0 vvcurveto
          140 150 rmoveto
          0 22 -49 -24 -23 vhcurveto
          -14 -13 -24 5 -12 3 rrcurveto
          14 19 9 25 28 vvcurveto
          32 -11 28 -19 21 vhcurveto
          0 38 14 19 -17 vhcurveto
          24 -23 -22 -50 0 vvcurveto
          endchar
        </CharString>
        <CharString name="four">
          11 -21 137 52 455 -20 hstem
          324 55 vstem
          474 199 rmoveto
          -74 190 -99 -190 -157 hlineto
          142 435 rlineto
          -101 hlineto
          -148 -439 rlineto
          -89 264 -116 99 116 74 vlineto
          endchar
        </CharString>
        <CharString name="four.circle.black">
          -24 callgsubr
          -234 620 -90 callgsubr
        </CharString>
        <CharString name="four.circle.white">
          -26 callgsubr
          -233 713 rmoveto
          -106 callgsubr
        </CharString>
        <CharString name="four.closed.black">
          -47 callgsubr
          289 58 vstem
          -68 callsubr
          370 -654 -68 callgsubr
          endchar
        </CharString>
        <CharString name="four.closed.white">
          -47 callgsubr
          289 58 vstem
          420 -83 callgsubr
          81 654 -86 callgsubr
        </CharString>
        <CharString name="four.frameleft">
          -47 callgsubr
          353 58 vstem
          484 -83 callgsubr
          17 -345 rmoveto
          44 vlineto
          -103 callgsubr
          -30 callgsubr
          vlineto
          endchar
        </CharString>
        <CharString name="four.frameright">
          -47 callgsubr
          225 58 vstem
          356 -83 callgsubr
          145 -345 rmoveto
          999 -502 -43 vlineto
          -92 callsubr
          vlineto
          endchar
        </CharString>
        <CharString name="four.halfcircleleft.bl">
          -47 callgsubr
          345 58 vstem
          476 146 -68 callgsubr
          25 586 -83 callsubr
          endchar
        </CharString>
        <CharString name="four.halfcircleleft.wt">
          -47 callgsubr
          353 58 vstem
          484 -83 callgsubr
          17 -301 -102 callgsubr
        </CharString>
        <CharString name="four.halfcircleright.bl">
          -47 callgsubr
          233 58 vstem
          364 146 -68 callgsubr
          -365 -413 -100 callgsubr
          endchar
        </CharString>
        <CharString name="four.halfcircleright.wt">
          -11 97 21 -21 77 59 -19 84 100 96 25 -20 hstemhm
          40 111 74 58 49 103 hintmask 0110010100000000
          356 -83 callgsubr
          -357 -345 -100 callgsubr
          -63 callgsubr
          hvcurveto
          hintmask 1001101010000000
          -60 callgsubr
        </CharString>
        <CharString name="four.handle.black">
          -24 callgsubr
          267 -335 -103 callsubr
        </CharString>
        <CharString name="four.handle.white">
          -26 callgsubr
          -734 -286 -107 callgsubr
        </CharString>
        <CharString name="four.handleleft.bl">
          -47 callgsubr
          345 58 vstem
          476 146 -68 callgsubr
          -477 543 -91 callsubr
        </CharString>
        <CharString name="four.handleleft.wt">
          -47 callgsubr
          353 58 vstem
          484 -83 callgsubr
          -485 611 -101 callgsubr
        </CharString>
        <CharString name="four.handleright.bl">
          -47 callgsubr
          233 58 vstem
          364 146 -68 callgsubr
          137 -369 rmoveto
          -294 hlineto
          -105 callsubr
          43 -30 callgsubr
          502 hlineto
          endchar
        </CharString>
        <CharString name="four.handleright.wt">
          -47 callgsubr
          225 58 vstem
          356 -83 callgsubr
          145 654 -102 callsubr
        </CharString>
        <CharString name="four.onum">
          -86 -21 138 91 408 -20 hstem
          318 100 vstem
          39 107 rmoveto
          6 -76 rlineto
          272 -138 101 138 60 91 -60 408 -191 hlineto
          -75 -408 rmoveto
          141 318 rlineto
          26 hlineto
          -2 -318 rlineto
          endchar
        </CharString>
        <CharString name="four.small">
          -47 callgsubr
          289 58 vstem
          420 -83 callgsubr
          endchar
        </CharString>
        <CharString name="four.small.black">
          -47 callgsubr
          289 58 vstem
          420 146 -68 callgsubr
          -421 -413 13 callgsubr
          endchar
        </CharString>
        <CharString name="four.small.white">
          -47 callgsubr
          289 58 vstem
          420 -83 callgsubr
          -421 611 -80 callgsubr
          endchar
        </CharString>
        <CharString name="fraction">
          21 -21 665 -20 hstem
          34 callgsubr
          endchar
        </CharString>
        <CharString name="frameleft">
          56 callsubr
          46 vstem
          501 -199 rmoveto
          44 vlineto
          -103 callgsubr
          -30 callgsubr
          vlineto
          endchar
        </CharString>
        <CharString name="frameright">
          -33 callgsubr
          455 46 vstem
          501 -199 rmoveto
          999 -502 -43 vlineto
          -92 callsubr
          vlineto
          endchar
        </CharString>
        <CharString name="g">
          -91 callgsubr
          endchar
        </CharString>
        <CharString name="g.001">
          -220 51 319 49 232 50 5 -20 hstemhm
          43 55 -40 55 2 52 174 56 -4 55 hintmask 1110101010000000
          248 -220 rmoveto
          131 69 51 93 93 -51 27 -114 19 hvcurveto
          -98 16 -18 6 19 vvcurveto
          14 15 26 13 12 vhcurveto
          -4 10 13 -2 8 hhcurveto
          hintmask 1101101100000000
          108 63 51 109 47 -10 29 -25 22 hvcurveto
          103 25 -13 53 -118 -34 rlineto
          hintmask 1110011100000000
          17 -27 -30 12 -51 hhcurveto
          -95 -73 -59 -112 -72 37 -50 56 -25 hvcurveto
          -16 -15 -20 -34 -15 vvcurveto
          -19 8 -19 13 -10 vhcurveto
          hintmask 1110101010000000
          -59 -38 -34 -26 -65 vvcurveto
          -93 71 -49 134 vhcurveto
          16 235 rmoveto
          96 -13 33 -23 -55 vvcurveto
          -60 -54 -33 -89 -100 -52 29 70 45 19 25 57 34 vhcurveto
          25 -7 28 -7 37 -5 rrcurveto
          -38 184 rmoveto
          hintmask 1110011100000000
          -69 -44 37 74 79 42 42 71 74 41 -38 -83 -80 -45 -31 -70 hvcurveto
          endchar
        </CharString>
        <CharString name="g.002">
          -201 95 104 95 296 92 hstem
          28 111 226 103 vstem
          500 210 rmoveto
          55 vlineto
          -1000 82 callsubr
        </CharString>
        <CharString name="g.calt">
          -201 94 107 93 295 93 hstem
          39 104 206 103 vstem
          39 238 rmoveto
          -172 57 -66 119 49 56 23 26 31 vhcurveto
          0 10 -50 -23 vvcurveto
          -60 -40 -23 -102 -46 -67 23 15 -39 vhcurveto
          -25 -91 rlineto
          -17 43 77 -24 57 hhcurveto
          172 75 64 114 hvcurveto
          35 -14 68 35 vvcurveto
          366 -101 vlineto
          -2 -31 rlineto
          17 -27 -42 14 -39 hhcurveto
          -131 -71 -80 -163 hvcurveto
          104 hmoveto
          107 33 43 71 39 40 -12 -15 23 vhcurveto
          -210 vlineto
          -30 -36 -41 -28 -43 hhcurveto
          -69 -17 63 82 hvcurveto
          endchar
        </CharString>
        <CharString name="g.sc">
          -10 93 104 90 154 92 hstem
          51 107 182 104 vstem
          51 265 -82 callsubr
          endchar
        </CharString>
        <CharString name="gbreve">
          -91 callgsubr
          14 485 -99 callsubr
          endchar
        </CharString>
        <CharString name="gbreve.sc">
          -7 95 91 88 145 93 hstem
          55 101 187 94 vstem
          51 265 -82 callsubr
          219 296 -99 callsubr
          endchar
        </CharString>
        <CharString name="gcircumflex">
          -91 callgsubr
          61 651 -75 callsubr
        </CharString>
        <CharString name="gcircumflex.sc">
          -7 95 91 88 145 93 hstem
          55 101 187 94 vstem
          51 265 -82 callsubr
          47 341 rmoveto
          45 -65 120 83 120 -82 45 68 -119 83 rlineto
          -92 hlineto
          endchar
        </CharString>
        <CharString name="gcommaaccent">
          -76 841 -789 597 -335 240 hstemhm
          208 25 75 3 hintmask 10011000
          308 674 rmoveto
          -32 hlineto
          0 -2 25 37 31 vhcurveto
          -31 35 rlineto
          -52 -38 -20 -32 -53 vvcurveto
          hintmask 01011000
          -69 100 vlineto
          hintmask 00111000
          148 -95 rmoveto
          -101 hlineto
          -2 -29 rlineto
          16 -29 -51 16 -28 hhcurveto
          -121 -83 -71 -172 -172 69 -67 119 41 49 21 24 34 hvcurveto
          hintmask 01011000
          -25 3 -25 -18 vvcurveto
          -58 -60 -24 -63 vhcurveto
          hintmask 10011000
          -46 -71 17 13 -39 hvcurveto
          -25 -92 rlineto
          -16 45 79 -17 57 hhcurveto
          148 78 64 114 hvcurveto
          20 -3 81 37 vvcurveto
          hintmask 00111000
          -220 -21 rmoveto
          -62 -22 62 82 96 30 52 66 36 42 -19 -17 27 hvcurveto
          -206 vlineto
          -28 -37 -37 -22 -43 hhcurveto
          endchar
        </CharString>
        <CharString name="gcommaaccent.sc">
          -7 95 91 88 145 93 hstem
          55 101 187 94 vstem
          319 676 -46 callsubr
          -268 -308 -82 callsubr
          endchar
        </CharString>
        <CharString name="gdotaccent">
          -91 callgsubr
          -27 553 -69 callsubr
          endchar
        </CharString>
        <CharString name="gdotaccent.sc">
          -7 95 91 88 145 93 hstem
          55 101 187 94 vstem
          51 265 -82 callsubr
          152 372 -41 callsubr
        </CharString>
        <CharString name="germandbls">
          -10 92 -61 -21 572 93 hstemhm
          26 103 43 104 62 101 -61 106 hintmask 01111100
          26 hmoveto
          103 466 hlineto
          79 36 27 74 72 27 -25 -42 vhcurveto
          -26 vlineto
          -31 -3 rlineto
          -94 -9 -41 -44 -78 vvcurveto
          -83 22 -36 113 -44 vhcurveto
          hintmask 10111010
          50 -19 21 -10 -20 vvcurveto
          -36 -13 -15 -62 -32 -43 6 13 -36 vhcurveto
          -23 -91 rlineto
          -14 44 51 -6 42 hhcurveto
          139 39 51 94 75 -18 23 -129 52 hvcurveto
          -52 21 -9 10 31 vvcurveto
          22 13 10 18 4 vhcurveto
          hintmask 01111100
          46 10 86 5 0 vvcurveto
          119 vlineto
          89 -53 59 -147 -139 -74 -75 -121 vhcurveto
          endchar
        </CharString>
        <CharString name="greater">
          54 75 callgsubr
          376 289 rmoveto
          -326 -169 49 -87 367 190 rlineto
          127 vlineto
          -376 200 -46 -84 rlineto
          endchar
        </CharString>
        <CharString name="greaterequal">
          364 161 hstem
          363 340 rmoveto
          -301 -82 24 -94 367 110 rlineto
          127 vlineto
          -376 120 -26 -90 rlineto
          368 -407 rmoveto
          10 74 -51 5 rlineto
          -302 hlineto
          -10 -75 51 -4 rlineto
          endchar
        </CharString>
        <CharString name="greaterequal.calt">
          23 93 hstem
          89 23 rmoveto
          328 93 -328 hlineto
          21 23 rmoveto
          298 81 rlineto
          141 vlineto
          -298 82 -24 -91 227 -55 rlineto
          -11 vlineto
          -230 -54 rlineto
          endchar
        </CharString>
        <CharString name="guillemotleft">
          68 callgsubr
          30 267 -12 callsubr
          -18 -164 -12 callsubr
          endchar
        </CharString>
        <CharString name="guillemotleft.calt">
          66 -21 378 -20 hstem
          35 182 -24 callsubr
          212 -104 -24 callsubr
          endchar
        </CharString>
        <CharString name="guillemotright">
          68 callgsubr
          242 431 -11 callgsubr
          -442 164 -11 callgsubr
          endchar
        </CharString>
        <CharString name="guillemotright.calt">
          66 -21 378 -20 hstem
          35 111 10 callsubr
          90 -116 10 callsubr
          endchar
        </CharString>
        <CharString name="guilsinglleft">
          68 callgsubr
          132 267 -12 callsubr
          endchar
        </CharString>
        <CharString name="guilsinglleft.calt">
          66 -21 378 -20 hstem
          145 182 -24 callsubr
          endchar
        </CharString>
        <CharString name="guilsinglright">
          68 callgsubr
          132 431 -11 callgsubr
          endchar
        </CharString>
        <CharString name="guilsinglright.calt">
          68 -21 378 -20 hstem
          149 113 rmoveto
          58 -66 151 135 rlineto
          104 vlineto
          -156 139 -57 -59 122 -128 rlineto
          -14 vlineto
          endchar
        </CharString>
        <CharString name="h">
          -6 callsubr
          184 -20 14 callsubr
          159 350 -44 callsubr
          endchar
        </CharString>
        <CharString name="h.001">
          21 -21 407 -21 281 -20 14 callsubr
          169 210 rmoveto
          341 55 -341 hlineto
          endchar
        </CharString>
        <CharString name="h.sc">
          21 -21 214 92 211 -20 hstem
          59 104 174 104 17 callgsubr
          endchar
        </CharString>
        <CharString name="halfcircleleft.bl">
          14 callgsubr
          501 800 -83 callsubr
          endchar
        </CharString>
        <CharString name="halfcircleleft.wt">
          -33 callgsubr
          0 45 vstem
          501 -155 -102 callgsubr
        </CharString>
        <CharString name="halfcircleright.bl">
          57 callgsubr
          -199 -100 callgsubr
          endchar
        </CharString>
        <CharString name="halfcircleright.wt">
          -11 47 callsubr
          hstem
          40 111 181 103 vstem
          -1 -199 -100 callgsubr
          -43 vlineto
          -90 callsubr
          endchar
        </CharString>
        <CharString name="handle.black">
          -107 -33 callgsubr
          1000 -155 -103 callsubr
        </CharString>
        <CharString name="handle.white">
          -107 -33 callgsubr
          0 45 909 45 vstem
          -1 -199 -107 callgsubr
        </CharString>
        <CharString name="handleleft.bl">
          56 callsubr
          757 -91 callsubr
        </CharString>
        <CharString name="handleleft.wt">
          -33 callgsubr
          0 45 vstem
          -1 757 -101 callgsubr
        </CharString>
        <CharString name="handleright.bl">
          -33 callgsubr
          501 -155 rmoveto
          -294 hlineto
          -105 callsubr
          43 -30 callgsubr
          502 hlineto
          endchar
        </CharString>
        <CharString name="handleright.wt">
          -33 callgsubr
          455 45 vstem
          501 800 -102 callsubr
        </CharString>
        <CharString name="hbar">
          0 -20 309 240 94 -21 hstem
          280 23 140 0 vstem
          602 vmoveto
          -73 303 73 vlineto
          -144 -252 -44 callsubr
          endchar
        </CharString>
        <CharString name="hbar.sc">
          21 -21 202 91 205 -20 hstem
          59 102 178 102 vstem
          62 hmoveto
          104 209 174 -209 104 367 46 73 -46 77 -103 -77 -175 77 -104 -77 -52 -73 52 hlineto
          104 -71 rmoveto
          71 175 -71 vlineto
          endchar
        </CharString>
        <CharString name="hcircumflex">
          -6 callsubr
          184 -20 14 callsubr
          159 350 -44 callsubr
          138 909 -75 callsubr
        </CharString>
        <CharString name="hcircumflex.sc">
          21 -21 202 91 205 -20 hstem
          59 102 178 102 17 callgsubr
          30 89 -70 callgsubr
        </CharString>
        <CharString name="hyphen">
          218 97 hstem
          110 218 rmoveto
          281 97 -281 hlineto
          endchar
        </CharString>
        <CharString name="i">
          0 92 289 92 68 127 hstem
          214 103 vstem
          103 381 rmoveto
          111 -289 -42 callgsubr
          hlineto
          11 callsubr
        </CharString>
        <CharString name="i.001">
          0 92 289 92 78 127 hstem
          219 103 vstem
          -624 1073 rmoveto
          661 -662 39 39 -662 662 rlineto
          1198 -1199 rmoveto
          -525 526 -39 -39 525 -525 rlineto
          endchar
        </CharString>
        <CharString name="i.001.bi">
          -857 21 -21 425 50 95 89 hstemhm
          77 75 -53 53 hintmask 11101000
          13 425 rmoveto
          86 -425 53 475 -139 hlineto
          hintmask 11110000
          64 141 -41 callgsubr
        </CharString>
        <CharString name="i.002.bi">
          -857 0 50 375 50 95 89 hstemhm
          5 147 -75 75 -53 53 hintmask 11100100
          13 425 rmoveto
          86 -375 hlineto
          hintmask 11110000
          -94 -50 233 50 -86 425 -139 hlineto
          hintmask 11101000
          64 141 -41 callgsubr
        </CharString>
        <CharString name="i.bi">
          -857 21 -21 570 89 hstemhm
          82 86 -69 53 hintmask 11010000
          99 -10 callgsubr
          -475 53 475 vlineto
          hintmask 11100000
          -70 141 -41 callgsubr
        </CharString>
        <CharString name="i.calt">
          0 92 291 92 69 133 hstem
          210 103 vstem
          61 hmoveto
          393 92 -141 383 -244 -92 141 -291 -149 hlineto
          130 520 27 callsubr
        </CharString>
        <CharString name="i.sc">
          0 92 333 92 hstem
          202 104 vstem
          75 hmoveto
          349 92 -62 callgsubr
          hlineto
          endchar
        </CharString>
        <CharString name="iacute">
          -73 callsubr
          35 161 -79 callgsubr
          endchar
        </CharString>
        <CharString name="iacute.sc">
          0 92 333 92 hstem
          202 104 vstem
          75 hmoveto
          349 92 -62 callgsubr
          hlineto
          62 525 -79 callgsubr
          endchar
        </CharString>
        <CharString name="ibreve">
          -73 callsubr
          147 106 -99 callsubr
          endchar
        </CharString>
        <CharString name="ibreve.sc">
          78 callsubr
          75 hmoveto
          349 92 -62 callgsubr
          hlineto
          175 469 -99 callsubr
          endchar
        </CharString>
        <CharString name="icircumflex">
          -73 callsubr
          194 272 -75 callsubr
        </CharString>
        <CharString name="icircumflex.sc">
          0 92 333 92 24 152 hstemhm
          84 330 -212 104 hintmask 11110000
          75 hmoveto
          349 92 hlineto
          hintmask 11101000
          -62 callgsubr
          hlineto
          14 514 -70 callgsubr
        </CharString>
        <CharString name="idieresis">
          570 89 -12 57 hstemhm
          163 183 -183 239 -185 75 hintmask 01001000
          107 647 rmoveto
          hintmask 10010000
          -30 24 -27 32 vhcurveto
          hintmask 01001000
          32 24 27 30 hvcurveto
          hintmask 01100000
          30 -25 27 -31 -31 -25 -27 callgsubr
          183 hmoveto
          -30 24 -27 32 vhcurveto
          hintmask 01010000
          32 24 27 30 hvcurveto
          hintmask 01100000
          30 -24 27 -32 -32 -24 -27 callgsubr
          -187 -266 rmoveto
          111 -289 -42 callgsubr
          hlineto
          endchar
        </CharString>
        <CharString name="idieresis.sc">
          0 92 333 92 52 116 hstemhm
          104 114 -16 104 hintmask 11110000
          75 hmoveto
          349 92 hlineto
          hintmask 11101000
          -62 callgsubr
          hlineto
          22 535 -105 callgsubr
          endchar
        </CharString>
        <CharString name="idotaccent.sc">
          0 92 333 92 58 124 hstem
          202 104 vstem
          75 hmoveto
          349 92 -62 callgsubr
          hlineto
          116 545 -41 callsubr
        </CharString>
        <CharString name="igrave">
          0 634 -253 354 -165 89 hstemhm
          95 89 -89 230 -108 75 hintmask 10010100
          144 634 rmoveto
          40 -73 184 87 rlineto
          hintmask 01001000
          -5 callgsubr
          hintmask 10010100
          hintmask 01010100
          -222 -354 rmoveto
          111 -289 hlineto
          hintmask 00101000
          -119 hlineto
          hintmask 10001000
          -44 callgsubr
          vlineto
          endchar
        </CharString>
        <CharString name="igrave.sc">
          0 92 333 92 4 174 hstemhm
          142 224 -164 104 hintmask 11110000
          75 hmoveto
          349 92 hlineto
          hintmask 11101000
          -62 callgsubr
          hlineto
          72 536 -34 callsubr
        </CharString>
        <CharString name="imacron">
          -73 callsubr
          -19 215 -15 callgsubr
          endchar
        </CharString>
        <CharString name="imacron.sc">
          78 callsubr
          85 hmoveto
          329 92 -108 333 108 92 -329 -92 117 -333 -117 hlineto
          15 566 39 callsubr
        </CharString>
        <CharString name="infinity">
          121 68 204 68 hstem
          5 75 340 75 vstem
          5 290 rmoveto
          -106 46 -63 77 64 33 21 63 27 vhcurveto
          -62 21 34 -22 72 hhcurveto
          73 43 58 109 122 -44 50 -74 -66 -34 -21 -60 -19 hvcurveto
          66 -26 -31 16 -68 hhcurveto
          -84 -44 -66 -105 hvcurveto
          75 hmoveto
          79 19 24 34 34 13 -11 -92 38 vhcurveto
          -82 -35 -13 -19 -35 hhcurveto
          -37 -18 25 76 hvcurveto
          340 -2 rmoveto
          -77 -20 -22 -28 -41 -12 15 92 -30 vhcurveto
          85 35 15 12 30 hhcurveto
          33 18 -21 -84 hvcurveto
          endchar
        </CharString>
        <CharString name="integral">
          -3 0 689 94 hstem
          201 103 vstem
          201 583 rmoveto
          -586 vlineto
          4 callgsubr
          586 0 callgsubr
          endchar
        </CharString>
        <CharString name="iogonek">
          -192 4 53 516 -381 92 hstemhm
          231 125 hintmask 11010000
          231 -135 rmoveto
          -50 callsubr
          hvcurveto
          hintmask 10110000
          36 18 32 92 69 vhcurveto
          -37 49 rlineto
          hintmask 11010000
          -130 -76 -30 -55 -53 vvcurveto
          -128 516 rmoveto
          111 hlineto
          hintmask 10110000
          -289 -42 callgsubr
          vlineto
          hintmask 11010000
          11 callsubr
        </CharString>
        <CharString name="iogonek.sc">
          78 callsubr
          75 hmoveto
          243 hlineto
          -61 -28 -30 -53 -53 vvcurveto
          -99 67 -37 -55 callsubr
          30 26 36 18 31 92 69 hvcurveto
          92 -62 callgsubr
          vlineto
          endchar
        </CharString>
        <CharString name="itilde">
          0 92 289 92 97 89 -63 83 callgsubr
          95 222 -103 103 -100 75 hintmask 11100001
          103 381 rmoveto
          hintmask 11100010
          111 -289 hlineto
          hintmask 11100100
          -42 callgsubr
          hlineto
          270 232 rmoveto
          hintmask 11010001
          -20 callgsubr
          hhcurveto
          hintmask 11001001
          -39 -29 42 -60 hhcurveto
          -39 -37 -28 -29 -30 hvcurveto
          45 -55 rlineto
          17 18 23 14 17 hhcurveto
          hintmask 11010001
          56 callgsubr
        </CharString>
        <CharString name="itilde.sc">
          0 92 313 93 98 82 -39 81 hstem
          203 102 vstem
          88 631 -62 callsubr
          -13 -631 rmoveto
          349 92 -62 callgsubr
          hlineto
          endchar
        </CharString>
        <CharString name="j">
          -22 callsubr
          -119 626 rmoveto
          -33 25 -32 38 36 25 29 36 34 -25 28 -36 -36 -27 -29 -33 vhcurveto
          endchar
        </CharString>
        <CharString name="j.001">
          -190 -21 596 90 76 127 hstem
          249 103 vstem
          -85 47 rmoveto
          631 -632 39 39 -632 631 rlineto
          endchar
        </CharString>
        <CharString name="j.001.bi">
          -857 -178 -21 625 49 95 89 hstemhm
          92 80 -53 53 hintmask 11101000
          172 -10 callgsubr
          -140 -49 87 -447 34 callsubr
          hintmask 11110000
          -80 637 -41 callgsubr
        </CharString>
        <CharString name="j.bi">
          -857 -178 -21 769 89 hstemhm
          92 86 -69 53 hintmask 11010000
          162 -10 callgsubr
          -53 -496 34 callsubr
          hintmask 11100000
          -70 637 -41 callgsubr
        </CharString>
        <CharString name="j.calt">
          -179 -21 583 92 70 133 hstem
          281 103 vstem
          104 383 rmoveto
          177 -381 hlineto
          -68 -63 -22 -149 -16 vhcurveto
          12 -96 rlineto
          153 15 150 21 166 vvcurveto
          473 -280 vlineto
          163 138 27 callsubr
        </CharString>
        <CharString name="j.sc">
          425 92 hstem
          288 107 -5 callsubr
          endchar
        </CharString>
        <CharString name="jcircumflex">
          -22 callsubr
          -55 755 -75 callsubr
        </CharString>
        <CharString name="jcircumflex.sc">
          -8 86 327 93 hstem
          224 102 -5 callsubr
          -5 89 -70 callgsubr
        </CharString>
        <CharString name="k">
          32 callsubr
          77 103 vstem
          365 -10 callgsubr
          -31 -48 -42 -79 -44 -57 -68 -7 rcurveline
          383 -103 -667 103 195 vlineto
          70 8 37 -56 49 -95 30 -52 rlinecurve
          119 hlineto
          -40 66 -72 126 -43 61 46 55 66 112 34 55 rrcurveto
          endchar
        </CharString>
        <CharString name="k.calt">
          21 -21 475 -20 210 -20 hstem
          77 103 vstem
          77 hmoveto
          103 196 hlineto
          70 7 rlineto
          63 -97 49 -106 0 vvcurveto
          117 hlineto
          0 -71 142 -78 111 vhcurveto
          77 89 63 133 0 vvcurveto
          -112 hlineto
          0 -49 -104 -63 -80 vhcurveto
          -66 -7 rlineto
          381 -103 vlineto
          endchar
        </CharString>
        <CharString name="k.sc">
          21 75 callgsubr
          64 104 -27 callsubr
          endchar
        </CharString>
        <CharString name="kcommaaccent">
          32 callsubr
          77 103 vstem
          345 -10 callgsubr
          -31 -48 -52 -79 -44 -57 -38 -7 rcurveline
          383 -103 -667 103 191 vlineto
          44 5 37 -56 55 -88 30 -52 rlinecurve
          119 hlineto
          -40 66 -82 126 -43 61 46 55 76 112 34 55 rrcurveto
          -252 -635 -81 callgsubr
          endchar
        </CharString>
        <CharString name="kcommaaccent.sc">
          46 callsubr
          74 100 -27 callsubr
          141 -679 -20 callsubr
        </CharString>
        <CharString name="l">
          -40 callsubr
          endchar
        </CharString>
        <CharString name="l.001">
          -10 52 625 -20 hstem
          173 53 vstem
          26 600 rmoveto
          98 9 16 1 17 2 16 2 rlinecurve
          -517 vlineto
          -69 34 -38 66 50 72 12 9 30 vhcurveto
          -9 50 rlineto
          -6 -25 -65 -13 -49 hhcurveto
          -36 -15 21 36 hvcurveto
          568 vlineto
          -205 -19 rlineto
          endchar
        </CharString>
        <CharString name="l.001.bi">
          -857 -10 52 625 -20 hstem
          90 53 vstem
          -5 605 rmoveto
          46 4 16 1 17 2 16 2 rlinecurve
          -517 5 callgsubr
          568 vlineto
          -153 -14 rlineto
          endchar
        </CharString>
        <CharString name="l.002.bi">
          -857 21 -21 614 49 1 -20 hstemhm
          100 53 hintmask 11010000
          -9 614 rmoveto
          109 1 rlineto
          -615 53 vlineto
          hintmask 10110000
          664 vlineto
          hintmask 11010000
          -163 -1 rlineto
          endchar
        </CharString>
        <CharString name="l.003.bi">
          -857 -49 callgsubr
          99 53 vstem
          99 655 rmoveto
          -655 53 655 vlineto
          endchar
        </CharString>
        <CharString name="l.bi">
          -857 -10 52 613 -20 hstem
          70 53 vstem
          70 655 rmoveto
          -558 5 callgsubr
          556 vlineto
          endchar
        </CharString>
        <CharString name="l.calt">
          0 92 482 91 hstem
          214 103 vstem
          65 hmoveto
          393 92 -141 573 hlineto
          -233 -1 1 -91 129 1 rlineto
          -482 -149 vlineto
          endchar
        </CharString>
        <CharString name="l.sc">
          0 92 425 -20 hstem
          85 104 vstem
          85 hmoveto
          348 92 -244 425 -104 hlineto
          endchar
        </CharString>
        <CharString name="lacute">
          -40 callsubr
          50 113 -79 callgsubr
          endchar
        </CharString>
        <CharString name="lacute.sc">
          -21 callsubr
          425 -104 hlineto
          52 100 -79 callgsubr
          endchar
        </CharString>
        <CharString name="lcaron">
          473 144 -41 12 hstemhm
          208 206 hintmask 01100000
          375 588 rmoveto
          39 hlineto
          -3 -35 -9 -16 -30 -39 rrcurveto
          hintmask 10100000
          27 -25 rlineto
          53 52 16 41 51 vvcurveto
          70 -93 vlineto
          hintmask 01100000
          -276 -112 rmoveto
          109 1 rlineto
          -486 -113 -90 328 90 -112 577 vlineto
          -213 -1 rlineto
          endchar
        </CharString>
        <CharString name="lcaron.sc">
          -21 callsubr
          425 -104 hlineto
          286 67 -20 callsubr
        </CharString>
        <CharString name="lcommaaccent">
          -40 callsubr
          111 -826 -81 callgsubr
          endchar
        </CharString>
        <CharString name="lcommaaccent.sc">
          -21 callsubr
          425 -104 hlineto
          234 159 -46 callsubr
          endchar
        </CharString>
        <CharString name="leftarrow">
          21 -21 151 50 hstem
          248 -10 rmoveto
          71 hlineto
          -220 220 rlineto
          407 55 -407 hlineto
          220 221 rlineto
          -71 hlineto
          -248 -248 rlineto
          endchar
        </CharString>
        <CharString name="leftarrow.circleleft.bl">
          -70 callsubr
          501 800 -83 callsubr
          -367 487 23 callsubr
          endchar
        </CharString>
        <CharString name="leftarrow.circleleft.wt">
          -70 callsubr
          379 161 2 callsubr
          349 -443 -102 callgsubr
        </CharString>
        <CharString name="leftarrow.circleright.bl">
          -70 callsubr
          82 288 23 callsubr
          -310 -360 -100 callgsubr
          endchar
        </CharString>
        <CharString name="leftarrow.circleright.wt">
          -50 callgsubr
          293 161 2 callsubr
          -67 -487 -100 callgsubr
          -63 callgsubr
          hvcurveto
          hintmask 01110110
          -60 callgsubr
        </CharString>
        <CharString name="leftarrow.closed.black">
          -36 callsubr
          86 -512 23 callsubr
          endchar
        </CharString>
        <CharString name="leftarrow.closed.white">
          -70 callsubr
          363 161 2 callsubr
          365 512 -86 callgsubr
        </CharString>
        <CharString name="leftarrow.small.black">
          -35 callgsubr
          137 -512 23 callsubr
          endchar
        </CharString>
        <CharString name="leftarrow.small.white">
          -200 65 874 65 -45 callgsubr
          364 316 2 callsubr
          endchar
        </CharString>
        <CharString name="leftclosed.arrow">
          46 callgsubr
          8 80 840 80 vstem
          448 66 rmoveto
          420 vlineto
          -395 -207 rlineto
          endchar
        </CharString>
        <CharString name="leftclosed.arrow.small">
          -70 callsubr
          363 161 2 callsubr
          endchar
        </CharString>
        <CharString name="less">
          54 75 callgsubr
          466 466 rmoveto
          -46 84 -376 -200 rlineto
          -127 vlineto
          367 -190 49 87 -326 169 rlineto
          endchar
        </CharString>
        <CharString name="lessequal">
          401 120 hstem
          446 431 rmoveto
          -26 90 -376 -120 rlineto
          -127 vlineto
          367 -110 24 94 -301 82 rlineto
          244 -316 rmoveto
          51 4 -10 75 rlineto
          -302 hlineto
          -51 -5 10 -74 rlineto
          endchar
        </CharString>
        <CharString name="lessequal.calt">
          23 93 hstem
          92 220 rmoveto
          298 -81 27 93 -230 54 rlineto
          11 vlineto
          227 55 -24 91 -298 -82 rlineto
          -9 -338 rmoveto
          328 93 -328 hlineto
          endchar
        </CharString>
        <CharString name="logicalnot">
          373 104 hstemhm
          364 104 vstemhm
          36 477 rmoveto
          -104 328 vlineto
          hintmask 11000000
          -142 104 246 vlineto
          endchar
        </CharString>
        <CharString name="lozenge">
          23 -21 688 -20 hstem
          470 346 rmoveto
          -218 344 -218 -344 218 -344 rlineto
          118 344 rmoveto
          -118 -189 -119 189 119 188 rlineto
          endchar
        </CharString>
        <CharString name="lozenge.alt">
          0 87 637 86 hstem
          31 405 rmoveto
          126 -405 rlineto
          192 hlineto
          121 405 -126 405 rlineto
          -192 hlineto
          -16 -405 rmoveto
          90 319 rlineto
          43 hlineto
          96 -319 -91 -318 rlineto
          -44 hlineto
          endchar
        </CharString>
        <CharString name="lslash">
          0 425 -176 326 hstemhm
          95 328 hintmask 10100000
          423 330 rmoveto
          95 vlineto
          -328 -80 rlineto
          hintmask 01100000
          -96 vlineto
          4 326 rmoveto
          109 1 rlineto
          -486 -113 vlineto
          hintmask 10100000
          -90 328 90 -112 577 vlineto
          -213 -1 rlineto
          endchar
        </CharString>
        <CharString name="lslash.sc">
          -21 callsubr
          153 hlineto
          139 35 rlineto
          95 vlineto
          -139 -34 rlineto
          176 -104 -202 vlineto
          -85 -20 rlineto
          -96 vlineto
          85 21 rlineto
          endchar
        </CharString>
        <CharString name="m">
          21 -21 388 95 hstem
          23 105 75 101 72 102 vstem
          121 -10 callgsubr
          -98 -475 105 366 hlineto
          13 17 16 9 16 hhcurveto
          26 0 -51 -63 hvcurveto
          -111 101 111 vlineto
          30 0 41 -5 23 vhcurveto
          12 14 10 8 15 hhcurveto
          38 0 -50 -64 hvcurveto
          -274 102 318 vlineto
          130 -34 35 -77 -25 -37 -16 -22 -30 vhcurveto
          26 -18 -22 12 -37 hhcurveto
          -23 -29 -15 -20 -22 hvcurveto
          endchar
        </CharString>
        <CharString name="m.sc">
          21 -21 178 87 252 -20 hstem
          47 92 223 92 vstem
          47 hmoveto
          92 319 5 hlineto
          65 -141 rlineto
          82 hlineto
          65 140 rlineto
          6 -318 92 517 -89 hlineto
          -110 -252 rlineto
          -8 hlineto
          -111 252 rlineto
          -89 hlineto
          endchar
        </CharString>
        <CharString name="m.tri">
          -357 21 -21 430 51 -6 -20 hstemhm
          65 53 230 53 229 53 hintmask 10111100
          115 -10 callgsubr
          -50 -475 53 388 hlineto
          hintmask 11011100
          19 38 63 23 25 61 callgsubr
          29 -5 22 -6 16 vhcurveto
          19 37 64 26 35 61 callgsubr
          94 -59 69 -94 -48 -72 -31 -25 -43 vhcurveto
          32 -23 -44 24 -52 hhcurveto
          -36 -63 -29 -17 -31 hvcurveto
          endchar
        </CharString>
        <CharString name="minus">
          236 94 hstem
          55 236 rmoveto
          390 94 -390 hlineto
          endchar
        </CharString>
        <CharString name="minus.calt">
          223 93 hstem
          405 223 rmoveto
          93 -310 -93 vlineto
          endchar
        </CharString>
        <CharString name="mu">
          -10 99 386 69 callgsubr
          183 102 vstem
          56 -49 rmoveto
          -65 -4 -11 -16 -40 vhcurveto
          75 -34 rlineto
          24 40 11 39 66 vvcurveto
          21 vlineto
          -9 54 rlineto
          -13 8 30 -18 43 hhcurveto
          44 33 16 23 47 hvcurveto
          2 -29 rlineto
          100 475 -103 -347 hlineto
          -14 -19 -46 -25 -58 hhcurveto
          -32 -27 23 72 hvcurveto
          291 -103 vlineto
          endchar
        </CharString>
        <CharString name="multiply">
          111 -21 413 -20 hstem
          384 90 rmoveto
          70 70 -136 137 137 137 -71 68 -137 -135 -135 136 -73 -69 138 -137 -137 -138 71 -69 136 137 rlineto
          endchar
        </CharString>
        <CharString name="multiply.calt">
          135 -21 361 -20 hstem
          67 182 rmoveto
          64 -64 116 114 120 -118 64 64 -120 118 118 115 -64 64 -118 -115 -115 115 -64 -64 114 -115 rlineto
          endchar
        </CharString>
        <CharString name="n">
          -6 callsubr
          hstem
          56 102 76 callgsubr
          156 -71 callgsubr
          endchar
        </CharString>
        <CharString name="n.sc">
          21 75 callgsubr
          54 94 203 94 vstem
          54 hmoveto
          -55 callgsubr
          endchar
        </CharString>
        <CharString name="nacute">
          19 callsubr
          156 -71 callgsubr
          -20 188 -79 callgsubr
          endchar
        </CharString>
        <CharString name="nacute.sc">
          46 callsubr
          55 103 183 103 vstem
          137 617 -79 callgsubr
          -264 -718 rmoveto
          -55 callgsubr
          endchar
        </CharString>
        <CharString name="ncaron">
          19 callsubr
          156 -71 callgsubr
          258 276 -77 callgsubr
          endchar
        </CharString>
        <CharString name="ncaron.sc">
          46 callsubr
          55 103 183 103 vstem
          54 hmoveto
          -55 callgsubr
          145 34 -63 callsubr
        </CharString>
        <CharString name="ncommaaccent">
          19 callsubr
          156 -71 callgsubr
          46 -606 -81 callgsubr
          endchar
        </CharString>
</ttFont>
